<svg width="48" height="49" viewBox="0 0 48 49" fill="none" xmlns="http://www.w3.org/2000/svg">
<path d="M24 5.69482C18.9609 5.69482 14.1282 7.6966 10.565 11.2598C7.00178 14.823 5 19.6557 5 24.6948C5 29.7339 7.00178 34.5667 10.565 38.1299C14.1282 41.693 18.9609 43.6948 24 43.6948C29.0391 43.6948 33.8718 41.693 37.435 38.1299C40.9982 34.5667 43 29.7339 43 24.6948C43 19.6557 40.9982 14.823 37.435 11.2598C33.8718 7.6966 29.0391 5.69482 24 5.69482Z" fill="#039BE5"/>
<path d="M26.572 29.7306H31.489L32.261 24.7356H26.571V22.0056C26.571 19.9306 27.249 18.0906 29.19 18.0906H32.309V13.7316C31.761 13.6576 30.602 13.4956 28.412 13.4956C23.839 13.4956 21.158 15.9106 21.158 21.4126V24.7356H16.457V29.7306H21.158V43.4596C22.089 43.5996 23.032 43.6946 24 43.6946C24.875 43.6946 25.729 43.6146 26.572 43.5006V29.7306Z" fill="white"/>
</svg>
