<svg width="43" height="42" viewBox="0 0 43 42" fill="none" xmlns="http://www.w3.org/2000/svg">
<path d="M32.25 2.72461H10.75C6.2972 2.72461 2.6875 6.17263 2.6875 10.426V30.9629C2.6875 35.2163 6.2972 38.6643 10.75 38.6643H32.25C36.7028 38.6643 40.3125 35.2163 40.3125 30.9629V10.426C40.3125 6.17263 36.7028 2.72461 32.25 2.72461Z" fill="url(#paint0_radial_89_76)"/>
<path d="M32.25 2.72461H10.75C6.2972 2.72461 2.6875 6.17263 2.6875 10.426V30.9629C2.6875 35.2163 6.2972 38.6643 10.75 38.6643H32.25C36.7028 38.6643 40.3125 35.2163 40.3125 30.9629V10.426C40.3125 6.17263 36.7028 2.72461 32.25 2.72461Z" fill="url(#paint1_radial_89_76)"/>
<path d="M32.25 2.72461H10.75C6.2972 2.72461 2.6875 6.17263 2.6875 10.426V30.9629C2.6875 35.2163 6.2972 38.6643 10.75 38.6643H32.25C36.7028 38.6643 40.3125 35.2163 40.3125 30.9629V10.426C40.3125 6.17263 36.7028 2.72461 32.25 2.72461Z" fill="url(#paint2_radial_89_76)"/>
<path d="M30.9062 13.6353C30.9062 14.6986 30.0038 15.5606 28.8906 15.5606C27.7775 15.5606 26.875 14.6986 26.875 13.6353C26.875 12.572 27.7775 11.71 28.8906 11.71C30.0038 11.71 30.9062 12.572 30.9062 13.6353Z" fill="white"/>
<path fill-rule="evenodd" clip-rule="evenodd" d="M21.5 27.1125C25.2106 27.1125 28.2188 24.2391 28.2188 20.6947C28.2188 17.1502 25.2106 14.2769 21.5 14.2769C17.7894 14.2769 14.7812 17.1502 14.7812 20.6947C14.7812 24.2391 17.7894 27.1125 21.5 27.1125ZM21.5 24.5453C23.7265 24.5453 25.5312 22.8214 25.5312 20.6947C25.5312 18.5679 23.7265 16.844 21.5 16.844C19.2735 16.844 17.4688 18.5679 17.4688 20.6947C17.4688 22.8214 19.2735 24.5453 21.5 24.5453Z" fill="white"/>
<path fill-rule="evenodd" clip-rule="evenodd" d="M8.0625 20.1811C8.0625 15.8679 8.0625 13.7113 8.94126 12.0639C9.71424 10.6148 10.9476 9.43664 12.4647 8.69828C14.1893 7.85889 16.4471 7.85889 20.9625 7.85889H22.0375C26.5529 7.85889 28.8107 7.85889 30.5352 8.69828C32.0523 9.43664 33.2858 10.6148 34.0587 12.0639C34.9375 13.7113 34.9375 15.8679 34.9375 20.1811V21.2079C34.9375 25.5211 34.9375 27.6777 34.0587 29.325C33.2858 30.7742 32.0523 31.9523 30.5352 32.6906C28.8107 33.5301 26.5529 33.5301 22.0375 33.5301H20.9625C16.4471 33.5301 14.1893 33.5301 12.4647 32.6906C10.9476 31.9523 9.71424 30.7742 8.94126 29.325C8.0625 27.6777 8.0625 25.5211 8.0625 21.2079V20.1811ZM20.9625 10.426H22.0375C24.3396 10.426 25.9044 10.428 27.1141 10.5224C28.2924 10.6144 28.8949 10.781 29.3153 10.9856C30.3266 11.4778 31.1488 12.2633 31.6641 13.2293C31.8783 13.6308 32.0529 14.2063 32.1491 15.3319C32.2479 16.4874 32.25 17.9821 32.25 20.1811V21.2079C32.25 23.4069 32.2479 24.9016 32.1491 26.0571C32.0529 27.1826 31.8783 27.7582 31.6641 28.1597C31.1488 29.1257 30.3266 29.9111 29.3153 30.4033C28.8949 30.6079 28.2924 30.7747 27.1141 30.8666C25.9044 30.9609 24.3396 30.963 22.0375 30.963H20.9625C18.6604 30.963 17.0956 30.9609 15.8859 30.8666C14.7076 30.7747 14.1051 30.6079 13.6848 30.4033C12.6734 29.9111 11.8512 29.1257 11.3358 28.1597C11.1217 27.7582 10.9472 27.1826 10.8509 26.0571C10.7521 24.9016 10.75 23.4069 10.75 21.2079V20.1811C10.75 17.9821 10.7521 16.4874 10.8509 15.3319C10.9472 14.2063 11.1217 13.6308 11.3358 13.2293C11.8512 12.2633 12.6734 11.4778 13.6848 10.9856C14.1051 10.781 14.7076 10.6144 15.8859 10.5224C17.0956 10.428 18.6604 10.426 20.9625 10.426Z" fill="white"/>
<defs>
<radialGradient id="paint0_radial_89_76" cx="0" cy="0" r="1" gradientUnits="userSpaceOnUse" gradientTransform="translate(16.125 29.6794) rotate(-54.1385) scale(33.2596 33.7727)">
<stop stop-color="#B13589"/>
<stop offset="0.79309" stop-color="#C62F94"/>
<stop offset="1" stop-color="#8A3AC8"/>
</radialGradient>
<radialGradient id="paint1_radial_89_76" cx="0" cy="0" r="1" gradientUnits="userSpaceOnUse" gradientTransform="translate(14.7813 39.9478) rotate(-64.1199) scale(29.246 30.1066)">
<stop stop-color="#E0E8B7"/>
<stop offset="0.444662" stop-color="#FB8A2E"/>
<stop offset="0.71474" stop-color="#E2425C"/>
<stop offset="1" stop-color="#E2425C" stop-opacity="0"/>
</radialGradient>
<radialGradient id="paint2_radial_89_76" cx="0" cy="0" r="1" gradientUnits="userSpaceOnUse" gradientTransform="translate(0.671876 4.00817) rotate(-7.77048) scale(52.2139 10.6865)">
<stop offset="0.156701" stop-color="#406ADC"/>
<stop offset="0.467799" stop-color="#6A45BE"/>
<stop offset="1" stop-color="#6A45BE" stop-opacity="0"/>
</radialGradient>
</defs>
</svg>
