<svg width="116" height="54" viewBox="0 0 116 54" fill="none" xmlns="http://www.w3.org/2000/svg">
<path d="M35.8289 53.8645C35.7547 53.79 35.694 51.8184 35.694 49.4832C35.694 47.0638 35.598 44.8548 35.4708 44.3478C35.2943 43.6441 35.1081 43.3917 34.5799 43.14C34.2126 42.965 33.7576 42.8219 33.569 42.8219C33.3803 42.8219 32.9628 42.9779 32.6412 43.1686C32.3196 43.3593 31.8984 43.8395 31.7051 44.2356C31.435 44.7893 31.3055 45.8958 31.1451 49.0207C30.9366 53.0854 30.9366 53.0854 29.3677 53.1448C27.7987 53.2041 27.7987 53.2041 27.7987 49.8747C27.7987 48.0436 27.7391 44.8914 27.6661 42.8699C27.5335 39.1944 27.5335 39.1944 29.0326 39.0312C29.8571 38.9414 30.6228 38.8659 30.734 38.8634C30.8453 38.8609 30.9209 39.2017 30.9021 39.6209C30.8833 40.0401 30.9417 40.383 31.0319 40.383C31.1222 40.383 31.5932 40.2021 32.0785 39.981C32.6529 39.7194 33.4063 39.5774 34.2363 39.5745C35.017 39.5719 35.7629 39.6975 36.1595 39.8987C36.5159 40.0795 37.021 40.4224 37.2821 40.6609C37.5432 40.8993 37.899 41.3687 38.0728 41.7041C38.2466 42.0394 38.5102 42.7711 38.6585 43.33C38.8468 44.0394 38.929 45.8034 38.9306 49.1731C38.9331 54 38.9331 54 37.4485 54C36.632 54 35.9032 53.939 35.8289 53.8645ZM17.4142 53.517C16.8802 53.3675 16.163 52.9805 15.8204 52.6572C15.4778 52.3338 15.072 51.7749 14.9187 51.4152C14.7654 51.0555 14.642 50.3239 14.6444 49.7893C14.6469 49.2548 14.8161 48.4478 15.0205 47.9961C15.2249 47.5443 15.677 46.9341 16.0251 46.64C16.3732 46.3459 17.1514 45.92 17.7544 45.6935C18.3573 45.467 19.6341 45.1717 20.5917 45.0372C22.0168 44.8371 22.3328 44.7286 22.3328 44.4395C22.3328 44.2453 22.1613 43.8737 21.9517 43.6138C21.6356 43.2219 21.3786 43.1413 20.4466 43.1413C19.633 43.1413 19.2072 43.2461 18.9046 43.5212C18.6726 43.7319 18.4864 44.1532 18.4864 44.4673C18.4864 44.7787 18.403 45.0853 18.3011 45.1485C18.1993 45.2117 17.4249 45.1602 16.5804 45.0341C15.4871 44.8709 15.0449 44.7208 15.0449 44.5131C15.0449 44.3526 15.1468 43.815 15.2714 43.3184C15.3959 42.8217 15.5781 42.4154 15.6762 42.4154C15.7744 42.4154 15.8546 42.2942 15.8546 42.146C15.8546 41.9978 16.0596 41.688 16.3101 41.4576C16.5606 41.2271 17.1756 40.8225 17.6766 40.5584C18.4592 40.1459 18.8752 40.0782 20.627 40.0782C22.5007 40.0782 22.733 40.1225 23.4872 40.6237C24.0029 40.9663 24.4867 41.5331 24.7882 42.148C25.2282 43.0453 25.2741 43.4283 25.3387 46.7487C25.4093 50.3707 25.4093 50.3707 26.1704 50.2416C26.9315 50.1125 26.9315 50.1125 27.0452 51.4973C27.1078 52.259 27.0836 52.9606 26.9915 53.0565C26.8993 53.1524 26.2337 53.2784 25.5123 53.3365C24.3976 53.4264 24.0763 53.372 23.372 52.9746C22.6185 52.5494 22.5108 52.5355 22.185 52.8213C21.9879 52.9942 21.5078 53.2352 21.1181 53.3569C20.7284 53.4786 19.9541 53.6256 19.3974 53.6836C18.8284 53.7428 17.96 53.6698 17.4142 53.517ZM21.5612 50.2958C22.3039 49.8767 22.3328 49.8199 22.3328 48.78C22.3328 47.7941 22.293 47.6999 21.8773 47.7028C21.6268 47.7048 20.8765 47.8347 20.21 47.9921C19.373 48.1897 18.853 48.4477 18.5288 48.8262C18.2363 49.1676 18.0826 49.5738 18.121 49.904C18.1581 50.2227 18.3845 50.5397 18.6888 50.6994C18.9962 50.8607 19.5081 50.919 19.9923 50.848C20.4308 50.7837 21.1368 50.5352 21.5612 50.2958ZM51.6869 53.6136C51.2972 53.5322 50.7506 53.3428 50.4722 53.1927C50.1939 53.0427 49.7547 52.6828 49.4963 52.393C49.2379 52.1031 48.9418 51.6543 48.8383 51.3955C48.7349 51.1367 48.6503 50.4111 48.6503 49.7829C48.6503 49.051 48.7958 48.3442 49.0556 47.8146C49.2786 47.3601 49.8024 46.7506 50.2197 46.4602C50.637 46.1698 51.426 45.7816 51.973 45.5975C52.5201 45.4134 53.7244 45.153 54.6493 45.0187C56.3063 44.7782 56.329 44.767 56.2078 44.2555C56.1401 43.97 56.003 43.6317 55.903 43.5037C55.8031 43.3756 55.4071 43.2117 55.023 43.1394C54.6389 43.067 53.9654 43.105 53.5263 43.2236C52.8548 43.4052 52.6896 43.5599 52.4866 44.1977C52.3539 44.6147 52.1876 45.0203 52.117 45.0991C52.0464 45.1778 51.3287 45.1439 50.5219 45.0237C49.228 44.8309 49.0553 44.7542 49.0563 44.3724C49.0563 44.1344 49.153 43.5942 49.2698 43.172C49.3866 42.7498 49.742 42.1071 50.0596 41.744C50.3773 41.3808 51.069 40.8671 51.5969 40.6024C52.209 40.2955 53.0555 40.0854 53.9339 40.0223C54.6915 39.9679 55.7339 40.0302 56.2505 40.1608C56.767 40.2913 57.449 40.5907 57.766 40.826C58.083 41.0613 58.5457 41.7209 58.7942 42.2919C59.1881 43.197 59.2578 43.7799 59.3385 46.8414C59.431 50.3529 59.431 50.3529 60.1645 50.2965C60.898 50.2401 60.898 50.2401 60.9992 51.6315C61.0549 52.3968 61.0226 53.0711 60.9275 53.1301C60.8323 53.189 60.1822 53.2834 59.4828 53.3397C58.4119 53.426 58.0801 53.3684 57.3823 52.9746C56.6287 52.5494 56.521 52.5355 56.1953 52.8213C55.9982 52.9942 55.5181 53.2323 55.1284 53.3505C54.7387 53.4687 53.9644 53.6096 53.4076 53.6635C52.8509 53.7175 52.0766 53.6951 51.6869 53.6136ZM55.5772 50.235C56.2971 49.7568 56.3431 49.6639 56.3431 48.6895C56.3431 47.6528 56.3431 47.6528 55.179 47.7889C54.5388 47.8637 53.605 48.1306 53.104 48.382C52.2751 48.7978 52.1875 48.9126 52.1325 49.6565C52.082 50.3384 52.1491 50.5131 52.5374 50.71C52.7937 50.84 53.4089 50.9006 53.907 50.8449C54.4044 50.7893 55.156 50.5149 55.5772 50.235ZM42.7324 52.3143C42.2522 52.0295 41.8648 51.5867 41.6696 51.0998C41.4281 50.4976 41.3623 49.3989 41.3623 45.968C41.3623 41.6025 41.3623 41.6025 40.3501 41.6025C39.3379 41.6025 39.3379 41.6025 39.3379 40.1799C39.3379 38.7572 39.3379 38.7572 40.3423 38.7572C41.3466 38.7572 41.3466 38.7572 41.4051 36.9867C41.4636 35.2162 41.4636 35.2162 42.1721 35.0705C42.5618 34.9904 43.2906 34.8955 43.7916 34.8595C44.7026 34.794 44.7026 34.794 44.7609 36.674C44.8191 38.5539 44.8191 38.5539 46.431 38.5539C48.0429 38.5539 48.0429 38.5539 48.0429 39.9766C48.0429 41.3993 48.0429 41.3993 46.8789 41.402C46.2387 41.4041 45.5099 41.46 45.2594 41.5274C44.8068 41.6491 44.8039 41.6756 44.8039 45.5957C44.8039 49.0308 44.8459 49.5578 45.1288 49.6668C45.3076 49.7356 45.9159 49.6849 46.4805 49.5541C47.0452 49.4232 47.572 49.3869 47.6512 49.4733C47.7304 49.5597 47.8567 50.234 47.9319 50.9716C48.0686 52.3129 48.0686 52.3129 46.9086 52.5467C46.2706 52.6754 45.2399 52.7766 44.6183 52.7716C43.8285 52.7653 43.2604 52.6276 42.7324 52.3143ZM4.82154 51.8303C4.59886 51.7806 4.05741 51.602 3.61829 51.4333C3.17918 51.2645 2.47633 50.8533 2.05642 50.5194C1.60554 50.1609 1.04258 49.397 0.681463 48.6536C0.345147 47.9613 0.0458944 47.0823 0.0164593 46.7003C-0.0370664 46.0059 -0.0370673 46.0059 1.27881 45.7546C2.00254 45.6164 2.68578 45.4837 2.79712 45.4596C2.90846 45.4356 3.11344 45.4267 3.25262 45.4399C3.39179 45.4531 3.50567 45.6637 3.50567 45.9079C3.50567 46.1521 3.69748 46.7496 3.93189 47.2358C4.22389 47.8413 4.60388 48.2455 5.13849 48.5194C5.6801 48.7968 6.32591 48.919 7.24929 48.919C7.98103 48.919 8.88374 48.7915 9.25532 48.6357C9.62688 48.4798 10.0795 48.1393 10.261 47.8791C10.4426 47.6189 10.5911 47.1221 10.5911 46.7752C10.5911 46.3816 10.4178 45.981 10.1299 45.7095C9.8762 45.4703 9.26128 45.1256 8.76341 44.9437C8.26553 44.7617 6.99049 44.3594 5.92998 44.0497C4.86947 43.74 3.63963 43.3002 3.19701 43.0724C2.75439 42.8446 2.19294 42.4435 1.94932 42.1811C1.70572 41.9188 1.32053 41.2925 1.09339 40.7895C0.847403 40.2448 0.678592 39.4389 0.67594 38.7968C0.673309 38.146 0.830597 37.368 1.07288 36.834C1.29366 36.3475 1.84378 35.6319 2.29539 35.2438C2.80196 34.8085 3.59813 34.4012 4.37391 34.1805C5.09102 33.9764 6.37073 33.8156 7.35207 33.8063C8.49287 33.7955 9.41615 33.9083 10.0915 34.1411C10.6517 34.3343 11.4523 34.7755 11.8706 35.1216C12.2888 35.4678 12.9009 36.2876 13.2306 36.9434C13.5604 37.5992 13.8302 38.3133 13.8302 38.5302C13.8302 38.8357 13.6367 38.9575 12.9725 39.0701C12.5008 39.1501 11.7756 39.3357 11.3611 39.4826C10.6073 39.7496 10.6073 39.7496 10.0412 38.6014C9.53587 37.5765 9.37738 37.4237 8.56541 37.179C8.06509 37.0282 7.28769 36.9424 6.83784 36.9882C6.388 37.0341 5.69039 37.2287 5.28759 37.4206C4.87266 37.6182 4.45472 38.0131 4.32333 38.3315C4.14739 38.758 4.14974 39.0222 4.33306 39.4261C4.46845 39.7244 4.94061 40.1297 5.40669 40.3475C5.86425 40.5615 6.42082 40.7873 6.64351 40.8493C6.86619 40.9114 7.86828 41.2122 8.87037 41.5178C9.87246 41.8233 11.1478 42.3183 11.7046 42.6178C12.3007 42.9384 12.9465 43.5031 13.2755 43.9913C13.5828 44.4473 13.9234 45.2919 14.0322 45.8683C14.1648 46.5701 14.1606 47.2281 14.0195 47.8603C13.9036 48.3795 13.6232 49.1058 13.3963 49.4742C13.1695 49.8427 12.605 50.4059 12.1418 50.7258C11.6786 51.0457 10.8638 51.4559 10.331 51.6375C9.66118 51.8658 8.7244 51.9603 7.29439 51.944C6.15701 51.931 5.04423 51.8799 4.82154 51.8303Z" fill="white"/>
<path d="M63.0135 51.8152C63.0078 50.9489 62.9677 48.2737 62.9244 45.8704C62.881 43.4672 62.8336 40.1305 62.819 38.4555C62.804 36.7374 62.7029 35.302 62.5871 35.1618C62.4741 35.0252 62.4351 34.8266 62.5004 34.7205C62.5657 34.6144 63.5047 34.5419 64.587 34.5592C66.5548 34.5907 66.5548 34.5907 66.723 35.5053C66.8156 36.0083 66.9083 37.7917 66.9292 39.4684C66.9501 41.1452 66.8854 44.9635 66.7856 47.9536C66.604 53.3903 66.604 53.3903 64.8139 53.3903C63.0239 53.3903 63.0239 53.3903 63.0135 51.8152ZM66.0605 52.5039C66.0605 52.3159 65.8821 52.2558 65.5038 52.3165C65.0583 52.388 65.0078 52.3606 65.2507 52.1792C65.4843 52.0049 65.3791 51.9829 64.7952 52.0843C64.3067 52.1691 64.0361 52.1381 64.0361 51.9972C64.0361 51.8769 64.4916 51.7177 65.0483 51.6436C65.7942 51.5442 66.0605 51.4216 66.0605 51.1774C66.0605 50.9951 65.8732 50.7285 65.6442 50.5849C65.2278 50.3239 65.2278 50.3239 65.6948 49.9438C65.9516 49.7348 66.1028 49.5043 66.0307 49.4316C65.9586 49.359 65.617 49.2914 65.2715 49.2816C64.9261 49.2716 64.6434 49.1861 64.6434 49.0913C64.6434 48.9966 64.8082 48.919 65.0096 48.919C65.211 48.919 65.5525 48.7893 65.7684 48.6308C65.9844 48.4722 66.0935 48.2747 66.0108 48.1917C65.9282 48.1087 65.6934 48.1937 65.4891 48.3783C65.2848 48.5639 65.0453 48.7158 64.957 48.7158C64.8686 48.7158 64.9097 48.5786 65.0483 48.4109C65.1869 48.2433 65.2407 48.1061 65.1678 48.1061C65.0949 48.1061 64.7194 48.2386 64.3333 48.4006C63.9471 48.5625 63.6312 48.834 63.6312 49.0039C63.6312 49.185 63.7483 49.2676 63.9144 49.2036C64.0702 49.1436 64.2537 49.1858 64.3222 49.297C64.3908 49.4084 64.2583 49.5596 64.0279 49.633C63.7975 49.7064 63.6439 49.873 63.6867 50.0033C63.7294 50.1335 63.9849 50.3544 64.2545 50.4941C64.7446 50.7481 64.7446 50.7481 64.2891 50.8735C63.905 50.9792 63.8336 51.1384 63.8336 51.8897C63.8336 52.7806 63.8336 52.7806 64.9471 52.7806C65.7514 52.7806 66.0605 52.7038 66.0605 52.5039ZM64.359 47.6651C64.7233 47.2486 64.7241 47.2317 64.3738 47.3603C64.1698 47.4351 63.9193 47.4964 63.8171 47.4964C63.7148 47.4964 63.6312 47.6335 63.6312 47.8012C63.6312 47.9689 63.7081 48.1061 63.8022 48.1061C63.8963 48.1061 64.1469 47.9077 64.359 47.6651ZM65.423 47.6798C65.7736 47.557 66.0605 47.3741 66.0605 47.2733C66.0605 47.1725 65.9339 47.0899 65.7793 47.0899C65.6246 47.0899 65.283 47.2698 65.0201 47.4897C64.7572 47.7095 64.5969 47.8924 64.6638 47.8961C64.7307 47.8998 65.0723 47.8025 65.423 47.6798ZM65.4545 46.5811C65.7878 46.4081 66.0605 46.1134 66.0605 45.9263C66.0605 45.6616 66.0065 45.6402 65.8176 45.8299C65.6839 45.964 65.4508 46.0737 65.2995 46.0737C65.1301 46.0737 65.0851 45.9762 65.1825 45.8197C65.2694 45.68 65.3576 45.4532 65.3784 45.3157C65.3992 45.1782 65.5611 44.9201 65.7383 44.7422C65.9155 44.5644 66.0605 44.3339 66.0605 44.2301C66.0605 44.1263 66.0096 44.0414 65.9474 44.0414C65.8852 44.0414 65.4819 44.3257 65.0512 44.6732C64.5879 45.047 64.3122 45.4204 64.3762 45.5877C64.4409 45.757 64.3537 45.8705 64.159 45.8705C63.98 45.8705 63.8336 45.9894 63.8336 46.1347C63.8336 46.28 63.943 46.5087 64.0766 46.6428C64.2655 46.8325 64.2655 46.8867 64.0766 46.8867C63.943 46.8867 63.8336 46.9759 63.8336 47.0849C63.8336 47.2125 64.0145 47.2141 64.3411 47.0894C64.6202 46.9828 65.1213 46.7541 65.4545 46.5811ZM64.2385 45.0751C64.2385 44.973 64.6209 44.6072 65.0882 44.2622C65.5555 43.9172 65.8428 43.6349 65.7266 43.6349C65.6104 43.6349 65.2293 43.7782 64.8795 43.9533C64.5298 44.1285 64.1512 44.2144 64.0381 44.1442C63.9022 44.0599 63.8997 43.8907 64.0308 43.6446C64.1399 43.4399 64.6412 43.0301 65.1448 42.7338C65.6484 42.4375 66.0604 42.1594 66.0604 42.1158C66.0604 42.0722 65.5139 42.2361 64.846 42.4801C63.6315 42.9236 63.6315 42.9236 63.6313 44.0922C63.6312 44.9955 63.7 45.2608 63.9348 45.2608C64.1018 45.2608 64.2385 45.1772 64.2385 45.0751ZM65.7473 43.1958C66.0309 43.0661 66.2629 42.8312 66.2629 42.6739C66.2629 42.4628 66.0904 42.5074 65.605 42.8439C65.2431 43.0948 64.9091 43.3296 64.8627 43.3658C64.8163 43.402 64.8803 43.4317 65.005 43.4317C65.1297 43.4317 65.4637 43.3255 65.7473 43.1958ZM64.5674 41.6876C64.9989 41.2873 65.3292 40.8758 65.3013 40.7731C65.2735 40.6704 65.4218 40.5863 65.6308 40.5863C65.8399 40.5863 66.1176 40.4573 66.248 40.2996C66.4196 40.092 66.4232 39.9744 66.2612 39.8738C66.138 39.7974 65.6781 39.9735 65.2391 40.2651C64.8002 40.5567 64.441 40.8369 64.441 40.8877C64.441 40.9385 64.6004 40.9297 64.7953 40.8682C65.0978 40.7727 65.0921 40.8033 64.7566 41.0778C64.5405 41.2546 64.2444 41.3992 64.0987 41.3992C63.9529 41.3992 63.8337 41.3475 63.8337 41.2842C63.8337 41.221 63.9255 40.9971 64.0377 40.7866C64.1499 40.5762 64.742 40.1035 65.3536 39.7363C66.0073 39.3438 66.4654 38.9257 66.4654 38.7216C66.4654 38.5308 66.3861 38.3254 66.2891 38.2653C66.1922 38.2051 65.9027 38.3388 65.6458 38.5625C65.3168 38.849 65.1361 38.8996 65.0341 38.734C64.9389 38.5794 64.6913 38.5545 64.3109 38.6613C63.9928 38.7507 63.6642 38.8088 63.5806 38.7905C63.4971 38.7722 63.4288 39.5802 63.4288 40.5863C63.4288 41.5923 63.5085 42.4154 63.6058 42.4154C63.7032 42.4154 64.1358 42.0879 64.5674 41.6876ZM63.8694 39.6378C63.9054 39.4514 64.0633 39.256 64.2202 39.2036C64.4135 39.1389 64.4658 39.2121 64.3823 39.4304C64.2923 39.6659 64.3471 39.7188 64.5857 39.6269C64.8032 39.5431 64.8634 39.5805 64.7659 39.7388C64.6854 39.8696 64.436 39.9766 64.2117 39.9766C63.9399 39.9766 63.8258 39.8637 63.8694 39.6378ZM64.6434 39.062C64.6434 39.0061 64.689 38.9604 64.7446 38.9604C64.8003 38.9604 64.8459 39.0061 64.8459 39.062C64.8459 39.1179 64.8003 39.1637 64.7446 39.1637C64.689 39.1637 64.6434 39.1179 64.6434 39.062ZM65.7062 41.895C66.1251 41.7947 66.2629 41.639 66.2629 41.2658C66.2629 40.77 66.2629 40.77 65.352 41.3993C64.8509 41.7453 64.441 42.076 64.441 42.1341C64.441 42.1921 64.6004 42.1921 64.7952 42.134C64.9901 42.0758 65.4 41.9683 65.7062 41.895ZM65.2507 38.0714C65.7831 37.9118 66.1889 37.6597 66.2272 37.4648C66.2635 37.2797 66.163 37.1313 66.0014 37.1313C65.8413 37.1313 65.4654 37.3246 65.1661 37.5609C64.8669 37.7972 64.5827 37.951 64.5346 37.9027C64.4865 37.8544 64.8557 37.5258 65.355 37.1724C65.9277 36.7671 66.2629 36.376 66.2629 36.1129C66.2629 35.8835 66.137 35.6473 65.9829 35.588C65.8289 35.5286 65.3623 35.623 64.946 35.7976C64.5297 35.9722 64.018 36.1151 63.8089 36.1151C63.4831 36.1151 63.4288 36.2748 63.4288 37.2329C63.4288 38.2575 63.4667 38.3504 63.8843 38.3476C64.1348 38.3456 64.7497 38.2216 65.2507 38.0714ZM63.6312 37.1719C63.6312 37.0825 63.7405 36.8996 63.8741 36.7654C64.0077 36.6313 64.1953 36.5216 64.291 36.5216C64.3866 36.5216 64.4057 36.6177 64.3333 36.7352C64.261 36.8527 64.54 36.807 64.9534 36.6336C65.3668 36.4602 65.7395 36.3183 65.7816 36.3183C65.8236 36.3183 65.8577 36.3869 65.8573 36.4707C65.8573 36.5546 65.4688 36.7832 64.9948 36.9788C64.5208 37.1745 64.0202 37.3345 63.8821 37.3345C63.7441 37.3345 63.6312 37.2613 63.6312 37.1719ZM63.9133 35.3868C63.989 35.1888 63.9438 35.0959 63.7958 35.1454C63.6635 35.1897 63.5192 35.3345 63.4751 35.4673C63.4311 35.6 63.4839 35.7086 63.5927 35.7086C63.7014 35.7086 63.8457 35.5638 63.9133 35.3868ZM64.7565 35.4102C65.0867 35.1595 65.0968 35.1108 64.82 35.1053C64.6388 35.1019 64.3771 35.2361 64.2385 35.4037C64.0999 35.5714 64.0714 35.7086 64.1751 35.7086C64.2788 35.7086 64.5404 35.5743 64.7565 35.4102ZM73.534 53.2012C73.135 53.1229 72.4906 52.8616 72.102 52.6205C71.7134 52.3793 70.9172 51.6537 70.3327 51.0079C69.7482 50.3621 69.0402 49.445 68.7594 48.97C68.4333 48.4181 68.2094 47.6683 68.1394 46.893C68.0791 46.2257 68.1374 45.1265 68.2707 44.4504C68.4032 43.7743 68.6973 43.017 68.9241 42.7675C69.151 42.518 69.536 41.9951 69.7796 41.6056C70.0232 41.2161 70.5842 40.6895 71.0263 40.4355C71.4684 40.1815 72.3188 39.8276 72.9161 39.6491C73.7065 39.4129 74.3575 39.3627 75.3077 39.4649C76.3387 39.5757 76.7529 39.7284 77.2774 40.1906C77.9415 40.776 77.9415 40.776 78.0669 36.9896C78.1359 34.9071 78.2746 33.1206 78.3752 33.0196C78.4758 32.9187 79.2015 32.8205 79.988 32.8016C80.7744 32.7827 81.4789 32.8285 81.5535 32.9034C81.6281 32.9783 81.7608 34.5775 81.8483 36.4573C81.9358 38.337 81.9842 41.1097 81.9558 42.6187C81.9274 44.1277 81.8382 46.5514 81.7575 48.0045C81.6701 49.5778 81.691 50.9932 81.809 51.5033C81.9492 52.1094 81.94 52.4495 81.7773 52.6664C81.6141 52.884 81.1197 52.9829 80.0745 53.0071C79.2644 53.0258 78.55 52.9894 78.487 52.9262C78.424 52.863 77.9481 52.9404 77.4294 53.0986C76.9107 53.2566 75.9852 53.3764 75.3728 53.3648C74.7605 53.3532 73.933 53.2795 73.534 53.2012ZM75.1704 52.6862C75.1704 52.5224 75.3604 52.2864 75.5926 52.1616C75.8249 52.0368 76.0548 51.9748 76.1036 52.0239C76.1524 52.0729 76.0535 52.2287 75.8838 52.3701C75.7141 52.5115 75.5753 52.6921 75.5753 52.7715C75.5753 52.8509 76.0965 52.8448 76.7335 52.7581C77.6383 52.6348 77.9743 52.4866 78.2687 52.0807C78.4761 51.795 78.7649 51.5612 78.9105 51.5612C79.0562 51.5612 79.2347 51.3237 79.3073 51.0333C79.4001 50.6622 79.6773 50.4115 80.2403 50.1895C80.9511 49.9092 81.0412 49.7971 81.0412 49.1932C81.0412 48.7238 80.947 48.5127 80.7376 48.5127C80.5705 48.5127 80.4339 48.4212 80.4339 48.3094C80.4339 48.1976 80.5705 48.1062 80.7376 48.1062C80.9298 48.1062 81.0412 47.9118 81.0412 47.5763C81.0412 47.1908 80.9592 47.0781 80.74 47.1625C80.5659 47.2296 80.4591 47.1745 80.4869 47.0319C80.5134 46.8962 80.6945 46.6656 80.8894 46.5196C81.0842 46.3735 81.2437 46.1742 81.2437 46.0768C81.2437 45.9793 81.1093 45.7647 80.9452 45.5999C80.6822 45.3359 80.6822 45.2866 80.9452 45.1853C81.1093 45.1221 81.2437 44.898 81.2437 44.6873C81.2437 44.3502 81.1225 44.316 80.2314 44.402C79.6204 44.4609 79.2192 44.4182 79.2192 44.2942C79.2192 44.1812 79.0274 44.0385 78.793 43.9769C78.5586 43.9154 78.4061 43.7447 78.4541 43.5976C78.502 43.4504 78.9161 43.0557 79.3743 42.7204C79.8325 42.385 80.1722 42.002 80.1294 41.8693C80.0865 41.7365 80.2409 41.5993 80.4725 41.5644C80.7041 41.5295 81.029 41.2952 81.1945 41.0436C81.3662 40.7828 81.4046 40.5864 81.2839 40.5864C81.1675 40.5864 80.8016 40.815 80.4708 41.0945C80.14 41.3739 79.6775 41.6026 79.4431 41.6026C79.1567 41.6026 79.0168 41.7315 79.0168 41.9953C79.0168 42.2144 78.831 42.4473 78.5967 42.522C78.3656 42.5956 78.1152 42.5943 78.0403 42.5191C77.9653 42.4439 78.0633 42.2654 78.258 42.1225C78.4527 41.9796 78.6119 41.8042 78.6119 41.7326C78.6119 41.6611 78.4268 41.6026 78.2007 41.6026C77.9745 41.6026 77.7372 41.7393 77.6734 41.9063C77.6095 42.0734 77.4757 42.1594 77.3761 42.0976C77.2764 42.0357 77.1948 42.0766 77.1948 42.1884C77.1948 42.3001 77.2859 42.4481 77.3973 42.5172C77.5086 42.5863 77.5997 42.7756 77.5997 42.9379C77.5997 43.1002 77.7977 43.6664 78.0396 44.1961C78.2815 44.7259 78.5067 45.1948 78.5399 45.2382C78.5731 45.2815 79.0155 45.2003 79.5229 45.0577C80.0303 44.9151 80.4993 44.8524 80.5651 44.9184C80.6309 44.9845 80.244 45.2486 79.7053 45.5054C79.1666 45.7622 78.7548 46.0637 78.7903 46.1755C78.8258 46.2873 78.9141 46.3639 78.9864 46.3458C79.0588 46.3277 79.4824 46.2589 79.9278 46.1929C80.7376 46.0729 80.7376 46.0729 79.9278 46.4743C79.4824 46.695 79.0449 46.9026 78.9555 46.9356C78.8661 46.9686 78.7117 47.3573 78.6124 47.7993C78.5131 48.2413 78.4702 48.6414 78.517 48.6884C78.5638 48.7354 78.7568 48.6465 78.9458 48.4909C79.2524 48.2384 79.2775 48.2544 79.1788 48.6394C79.0877 48.9946 79.1408 49.0518 79.479 48.963C79.7705 48.8865 79.8449 48.9283 79.7349 49.1069C79.644 49.2545 79.3834 49.3091 79.1048 49.2389C78.7601 49.152 78.4467 49.2799 77.9629 49.7046C77.5961 50.0266 76.9898 50.357 76.6154 50.4387C76.2411 50.5205 75.7016 50.7837 75.4167 51.0236C75.1317 51.2634 74.732 51.6197 74.5284 51.8154C74.3248 52.011 74.0671 52.171 73.9557 52.171C73.8444 52.171 73.7533 52.1125 73.7533 52.041C73.7533 51.9695 73.9127 51.7864 74.1076 51.634C74.3652 51.4326 74.379 51.3801 74.1582 51.4416C73.9912 51.4881 73.5585 51.5775 73.1966 51.6403C72.7003 51.7263 72.5387 51.6807 72.5387 51.4546C72.5387 51.2897 72.4074 51.1548 72.247 51.1548C72.0865 51.1548 71.8935 51.2551 71.8181 51.3776C71.7427 51.5001 71.8201 51.7391 71.9883 51.9088C72.1573 52.0785 72.874 52.3833 73.5811 52.5862C74.2882 52.789 74.9351 52.9615 75.0186 52.9695C75.1021 52.9774 75.1704 52.8499 75.1704 52.6862ZM75.5753 51.5852C75.5753 51.4734 75.6664 51.3254 75.7777 51.2563C75.8891 51.1872 75.9802 51.2222 75.9802 51.334C75.9802 51.4457 75.8891 51.5937 75.7777 51.6628C75.6664 51.7319 75.5753 51.6969 75.5753 51.5852ZM76.5875 51.5829C76.5875 51.4831 76.7372 51.3438 76.9201 51.2733C77.1031 51.2028 77.2944 51.1869 77.3453 51.238C77.3962 51.2891 77.3778 51.4284 77.3044 51.5477C77.231 51.6669 77.0396 51.7644 76.8792 51.7644C76.7188 51.7644 76.5875 51.6827 76.5875 51.5829ZM77.484 51.3579C77.484 51.1344 77.5457 50.9515 77.6211 50.9515C77.6965 50.9515 77.8151 50.7242 77.8845 50.4465C77.9632 50.1316 78.2037 49.8929 78.5232 49.8123C78.8051 49.7413 79.0997 49.7524 79.178 49.8371C79.2564 49.9217 79.2195 50.0274 79.0961 50.0721C78.9727 50.1167 78.6996 50.2796 78.4891 50.4341C78.2786 50.5886 78.1796 50.7884 78.269 50.8782C78.3584 50.9679 78.5066 50.9193 78.5984 50.7702C78.7369 50.5453 78.7812 50.5463 78.8583 50.7761C78.9095 50.9289 78.6914 51.2125 78.3718 51.4088C78.0531 51.6044 77.723 51.7644 77.6382 51.7644C77.5534 51.7644 77.484 51.5815 77.484 51.3579ZM79.0168 50.4434C79.0168 50.3875 79.0623 50.3418 79.118 50.3418C79.1737 50.3418 79.2192 50.3875 79.2192 50.4434C79.2192 50.4993 79.1737 50.545 79.118 50.545C79.0623 50.545 79.0168 50.4993 79.0168 50.4434ZM79.6241 49.7594C79.6241 49.6477 79.8132 49.4959 80.0443 49.4223C80.2753 49.3487 80.5183 49.3425 80.5841 49.4087C80.65 49.4748 80.6659 49.5632 80.6195 49.6052C80.5731 49.6472 80.3301 49.7449 80.0796 49.8222C79.8176 49.903 79.6241 49.8763 79.6241 49.7594ZM80.0071 47.891C80.2734 47.6684 80.5465 47.5417 80.6141 47.6096C80.6816 47.6774 80.5602 47.8626 80.3443 48.0211C80.1283 48.1797 79.8552 48.3063 79.7373 48.3026C79.6194 48.2989 79.7407 48.1137 80.0071 47.891ZM80.0685 52.0313C80.3808 51.7309 80.6363 51.4193 80.6363 51.3389C80.6363 51.2585 80.4399 51.2443 80.1998 51.3074C79.8643 51.3954 79.8017 51.3557 79.9292 51.1359C80.0205 50.9786 79.8526 51.1061 79.556 51.4192C79.2594 51.7324 79.0168 52.1211 79.0168 52.283C79.0168 52.4449 79.1257 52.5774 79.2588 52.5774C79.3919 52.5774 79.7563 52.3316 80.0685 52.0313ZM81.0412 52.0757C81.0412 51.8938 80.9225 51.8229 80.7376 51.8942C80.5705 51.9585 80.4339 52.0928 80.4339 52.1926C80.4339 52.2925 80.5705 52.3741 80.7376 52.3741C80.9046 52.3741 81.0412 52.2398 81.0412 52.0757ZM74.6643 50.9447C75.2925 50.6324 75.3512 50.5656 74.9263 50.6468C74.625 50.7044 74.1467 50.8399 73.8634 50.9481C73.5802 51.0562 73.3484 51.1926 73.3484 51.2513C73.3484 51.3099 73.4623 51.3555 73.6015 51.3526C73.7407 51.3498 74.2189 51.1661 74.6643 50.9447ZM71.815 50.976C71.8755 50.8777 72.1088 50.749 72.3333 50.6901C72.5798 50.6254 72.6914 50.6646 72.6148 50.789C72.5338 50.9205 72.6618 50.9415 72.9688 50.847C73.2333 50.7656 73.5863 50.6181 73.7533 50.5192C73.9428 50.4069 73.5843 50.3716 72.7995 50.4253C72.1079 50.4726 71.4459 50.5709 71.3285 50.6438C71.211 50.7167 71.1674 50.8615 71.2314 50.9655C71.2955 51.0696 71.4283 51.1547 71.5264 51.1547C71.6246 51.1547 71.7545 51.0743 71.815 50.976ZM80.7376 50.7482C80.8064 50.6364 80.7716 50.545 80.6602 50.545C80.5489 50.545 80.4015 50.6364 80.3327 50.7482C80.2639 50.86 80.2987 50.9515 80.41 50.9515C80.5213 50.9515 80.6687 50.86 80.7376 50.7482ZM71.4926 50.0956C71.6184 50.2909 71.7986 50.3051 72.2012 50.1514C72.4981 50.0381 72.7411 49.9166 72.7411 49.8815C72.7411 49.8464 72.5361 49.8159 72.2856 49.8139C72.0351 49.8118 71.4831 49.7925 71.059 49.7711C70.6349 49.7496 70.3374 49.6517 70.3978 49.5535C70.4583 49.4553 70.8508 49.208 71.2701 49.004C71.8194 48.7367 71.9336 48.612 71.6786 48.558C71.4839 48.5167 71.1814 48.6268 71.0062 48.8026C70.8311 48.9785 70.5174 49.1223 70.3093 49.1223C70.1011 49.1223 69.882 49.2015 69.8224 49.2984C69.7628 49.3952 69.8713 49.6119 70.0635 49.78C70.2557 49.948 70.5497 50.1294 70.7167 50.1831C70.8837 50.2369 71.0887 50.1803 71.1722 50.0572C71.2794 49.8994 71.3736 49.9106 71.4926 50.0956ZM76.8703 49.6523C77.3276 49.4605 77.6189 49.156 77.7747 48.7074C77.9011 48.3433 78.0046 47.5413 78.0046 46.9251C78.0046 46.3088 77.8491 45.3092 77.659 44.7038C77.4385 44.0018 77.0768 43.3945 76.6606 43.0277C76.0664 42.5039 75.9338 42.4691 75.1796 42.6392C74.6594 42.7566 74.1307 43.0711 73.7584 43.4846C73.4137 43.8675 73.0768 44.5512 72.9534 45.1184C72.8366 45.6548 72.7411 46.3582 72.7411 46.6815C72.7411 47.0047 72.8232 47.3201 72.9235 47.3824C73.0238 47.4446 73.0965 47.828 73.0851 48.2344C73.0685 48.8224 73.1862 49.0711 73.6618 49.4532C74.1019 49.8067 74.5147 49.9335 75.2275 49.9343C75.76 49.9343 76.4992 49.8079 76.8703 49.6523ZM72.5387 49.243C72.5387 49.0572 72.3969 48.9943 72.1338 49.0634C71.9111 49.1219 71.7289 49.2505 71.7289 49.3493C71.7289 49.448 71.9111 49.5288 72.1338 49.5288C72.3565 49.5288 72.5387 49.4002 72.5387 49.243ZM70.5594 48.5264C71.0356 48.3104 71.5846 48.0846 71.7795 48.0247C71.995 47.9584 72.1338 47.7141 72.1338 47.4012C72.1338 47.1182 72.0852 46.8867 72.0258 46.8867C71.9664 46.8867 71.4882 47.1162 70.963 47.3966C70.4378 47.6771 69.8259 48.02 69.6032 48.1588C69.3806 48.2975 69.1665 48.4278 69.1275 48.4483C69.0885 48.4688 69.1167 48.5831 69.19 48.7023C69.2634 48.8215 69.4068 48.9191 69.5085 48.9191C69.6103 48.9191 70.0832 48.7424 70.5594 48.5264ZM70.3737 47.2801C71.0634 46.9376 71.7188 46.5671 71.8301 46.4568C71.9635 46.3246 71.7217 46.2979 71.1216 46.3783C70.6205 46.4455 69.8689 46.602 69.4514 46.7261C69.0339 46.8502 68.6923 47.0211 68.6923 47.1059C68.6923 47.1906 68.7475 47.4046 68.8151 47.5814C68.8827 47.7582 68.9789 47.9029 69.0289 47.9029C69.0789 47.9029 69.6841 47.6227 70.3737 47.2801ZM69.9695 45.9941C70.677 45.7267 71.4792 45.2923 71.7521 45.0287C72.025 44.7651 72.4047 44.3012 72.5959 43.9977C72.7871 43.6942 72.9435 43.397 72.9435 43.3372C72.9435 43.2774 72.8297 43.229 72.6905 43.2297C72.5513 43.2297 72.1944 43.3582 71.8973 43.5138C71.6002 43.6695 70.9625 43.8551 70.4802 43.9265C69.6451 44.0499 69.6271 44.0422 70.1033 43.7636C70.3784 43.6027 71.1299 43.3022 71.7735 43.0957C72.417 42.8893 72.9435 42.6575 72.9435 42.5807C72.9435 42.5039 72.6019 42.4939 72.1844 42.5586C71.7668 42.6233 71.388 42.7082 71.3426 42.7473C71.2972 42.7864 71.1404 42.7187 70.9941 42.5968C70.7963 42.432 70.5485 42.4866 70.0275 42.8099C69.5582 43.1011 69.2125 43.5453 68.9804 44.1556C68.7898 44.6567 68.6983 45.1314 68.7771 45.2105C68.8559 45.2896 69.5962 45.005 70.4223 44.5781C71.2484 44.1512 72.0395 43.8405 72.1803 43.8876C72.3372 43.9401 72.2406 44.084 71.9308 44.2591C71.6527 44.4164 71.0608 44.6902 70.6155 44.8677C70.1701 45.0451 69.8285 45.2976 69.8563 45.4288C69.8858 45.5679 69.6637 45.6673 69.3232 45.6673C68.9097 45.6673 68.7086 45.7858 68.6336 46.0737C68.5754 46.2973 68.5627 46.4802 68.6054 46.4802C68.6481 46.4802 69.2619 46.2615 69.9695 45.9941ZM72.0325 45.8705C72.1014 45.7587 72.0384 45.6737 71.8927 45.6816C71.7469 45.6895 71.4455 45.7744 71.2228 45.8705C70.8613 46.0265 70.8762 46.0467 71.3627 46.0595C71.6623 46.0674 71.9637 45.9823 72.0325 45.8705ZM81.3956 43.4825C81.4512 43.3147 81.2506 43.2237 80.805 43.2147C80.1354 43.201 80.1342 43.199 80.6363 42.9662C80.9147 42.8372 81.207 42.6383 81.2858 42.5244C81.3647 42.4105 81.3467 42.2344 81.2458 42.1331C81.1363 42.0231 80.6446 42.2679 80.0246 42.7411C78.9867 43.5333 78.9867 43.5333 79.8621 43.6571C80.3436 43.7253 80.8667 43.771 81.0244 43.7588C81.1822 43.7466 81.3493 43.6222 81.3956 43.4825ZM74.2107 40.5193C74.5179 40.3946 74.7361 40.1986 74.6955 40.0838C74.655 39.9689 74.3581 39.9008 74.0357 39.9323C73.7134 39.9639 72.8881 40.2709 72.2016 40.6145C71.5152 40.9581 70.7006 41.5044 70.3913 41.8285C69.829 42.4177 69.829 42.4177 71.7406 41.5819C72.7919 41.1222 73.9034 40.644 74.2107 40.5193ZM76.3271 41.9794C76.685 41.8756 77.0342 41.699 77.1033 41.5868C77.1822 41.4586 77.016 41.4298 76.6551 41.5093C76.3395 41.5787 75.8309 41.7307 75.5247 41.8469C75.2185 41.9632 74.968 42.1484 74.968 42.2586C74.968 42.3693 75.1265 42.3939 75.3222 42.3135C75.5171 42.2336 75.9693 42.0832 76.3271 41.9794ZM73.3484 41.9074C73.2098 41.7397 72.9883 41.6025 72.8562 41.6025C72.7241 41.6025 72.4392 41.7368 72.2231 41.9009C71.858 42.1781 71.893 42.1997 72.7153 42.2058C73.4795 42.2113 73.566 42.1706 73.3484 41.9074ZM76.0308 41.0894C76.5597 40.898 76.9924 40.6608 76.9924 40.5622C76.9924 40.4637 76.9047 40.3831 76.7975 40.3831C76.6904 40.3831 76.0755 40.5852 75.4311 40.8323C74.7867 41.0794 74.1987 41.2852 74.1245 41.2896C74.0502 41.2941 73.9136 41.3772 73.8208 41.4745C73.7257 41.5741 73.9615 41.6046 74.3606 41.5444C74.7503 41.4856 75.5019 41.2808 76.0308 41.0894ZM79.2192 40.8272C79.2192 40.7361 79.5153 40.5208 79.8772 40.3488C80.239 40.1767 80.6945 40.0602 80.8894 40.0899C81.1443 40.1287 81.2437 40.0054 81.2437 39.6503C81.2437 39.1568 81.2436 39.1568 80.2113 39.682C79.6435 39.9708 79.134 40.162 79.0791 40.1069C79.0241 40.0517 79.2837 39.8479 79.6559 39.654C80.0281 39.46 80.2326 39.2674 80.1103 39.2258C79.988 39.1843 79.6555 39.239 79.3714 39.3475C78.951 39.5079 78.8548 39.6794 78.8548 40.2687C78.8548 40.6669 78.9368 40.9928 79.037 40.9928C79.1372 40.9928 79.2192 40.9183 79.2192 40.8272ZM80.164 40.6541C80.0897 40.5796 79.9683 40.5796 79.8941 40.6541C79.8198 40.7286 79.8805 40.7896 80.029 40.7896C80.1775 40.7896 80.2382 40.7286 80.164 40.6541ZM80.5416 38.6659C81.2437 38.3714 81.2437 38.3714 81.2287 36.9892C81.2204 36.229 81.1521 35.2412 81.0768 34.794C80.94 33.9811 80.94 33.9811 80.262 34.6428C79.6242 35.2652 79.6122 35.3014 80.0596 35.2525C80.3703 35.2185 80.5351 35.3061 80.5351 35.5054C80.5351 35.7032 80.3705 35.7924 80.0663 35.7594C79.8084 35.7315 79.4212 35.8033 79.2059 35.919C78.9906 36.0347 78.8144 36.2281 78.8144 36.3488C78.8144 36.4765 79.023 36.4311 79.3133 36.2401C79.5878 36.0595 79.8665 35.9118 79.9326 35.9118C79.9988 35.9118 79.9966 36.0033 79.9278 36.1151C79.859 36.2269 79.9978 36.3183 80.2363 36.3183C80.4927 36.3183 80.6361 36.4222 80.587 36.5724C80.5413 36.7121 80.192 37.0439 79.8109 37.3097C79.211 37.7281 79.1859 37.7761 79.6241 37.6669C79.9025 37.5976 80.3352 37.4838 80.5857 37.414C80.8591 37.3378 81.0412 37.3767 81.0412 37.5112C81.0412 37.6344 80.6768 37.9773 80.2314 38.2732C79.7861 38.5691 79.4217 38.8448 79.4217 38.8858C79.4217 38.9268 79.5157 38.9604 79.6306 38.9604C79.7455 38.9604 80.1555 38.8279 80.5416 38.6659ZM79.726 38.1464C79.7945 38.0352 79.7935 37.9442 79.724 37.9442C79.6544 37.9442 79.4213 38.0389 79.2059 38.1546C78.9906 38.2703 78.8144 38.4565 78.8144 38.5682C78.8144 38.7009 78.951 38.698 79.208 38.5599C79.4245 38.4436 79.6576 38.2575 79.726 38.1464ZM79.7597 36.7932C79.7161 36.7493 79.4344 36.8072 79.1339 36.922C78.8334 37.0367 78.6433 37.2211 78.7115 37.3319C78.7876 37.4554 79.0293 37.4057 79.3373 37.2031C79.6134 37.0215 79.8035 36.8371 79.7597 36.7932ZM79.1805 35.0718C79.3855 34.8012 79.3749 34.7179 79.1232 34.6209C78.8945 34.5328 78.8144 34.641 78.8144 35.0375C78.8144 35.3321 78.8401 35.535 78.8716 35.4884C78.9031 35.4419 79.0421 35.2544 79.1805 35.0718ZM80.1302 34.2859C80.1991 34.1742 80.2098 34.0827 80.1541 34.0827C80.0985 34.0827 79.9966 34.1742 79.9278 34.2859C79.859 34.3977 79.8482 34.4892 79.9039 34.4892C79.9596 34.4892 80.0614 34.3977 80.1302 34.2859ZM79.4217 33.4198C79.4217 33.3745 79.285 33.3375 79.118 33.3375C78.951 33.3375 78.8144 33.5117 78.8144 33.7246C78.8144 34.0687 78.8481 34.0779 79.118 33.8069C79.285 33.6392 79.4217 33.465 79.4217 33.4198ZM80.7376 33.473C80.8064 33.3612 80.7716 33.2697 80.6602 33.2697C80.5489 33.2697 80.4015 33.3612 80.3327 33.473C80.2639 33.5848 80.2987 33.6762 80.41 33.6762C80.5213 33.6762 80.6687 33.5848 80.7376 33.473ZM88.6762 52.9848C88.1434 52.8899 87.3866 52.6222 86.9945 52.39C86.6024 52.1577 86.1653 51.9677 86.0232 51.9677C85.8811 51.9677 85.4435 51.6704 85.0508 51.3071C84.508 50.8051 84.2023 50.2324 83.7768 48.9204C83.2992 47.4475 83.2348 46.9833 83.3379 45.7579C83.4113 44.8864 83.6664 43.847 83.9866 43.1145C84.2769 42.4506 84.8033 41.6018 85.1565 41.2284C85.5096 40.855 86.2997 40.2939 86.912 39.9814C87.5244 39.6689 88.3801 39.3151 88.8135 39.1952C89.3769 39.0393 89.8964 39.0403 90.6355 39.1984C91.2042 39.3202 92.1674 39.6402 92.776 39.9097C93.3846 40.1791 94.0548 40.5559 94.2652 40.7469C94.4757 40.938 94.8316 41.4558 95.0562 41.8975C95.3263 42.4289 95.4967 43.2542 95.5596 44.3364C95.6283 45.5187 95.5792 46.0685 95.3828 46.3199C95.215 46.5345 94.6072 46.744 93.7951 46.867C93.0713 46.9766 91.6138 47.1285 90.556 47.2045C89.4982 47.2805 88.405 47.3678 88.1267 47.3986C87.8224 47.4322 87.6463 47.5642 87.685 47.7295C87.7204 47.8807 87.877 48.2026 88.0328 48.4447C88.1887 48.6869 88.843 49.0846 89.4867 49.3286C90.4189 49.6818 90.9536 49.7537 92.1129 49.6817C93.0196 49.6254 93.7701 49.4588 94.103 49.2398C94.397 49.0464 94.7668 48.938 94.9249 48.9988C95.135 49.0798 95.2122 49.4908 95.2122 50.53C95.2122 51.9505 95.2122 51.9505 94.2506 52.518C93.4097 53.0142 93.0602 53.0899 91.467 53.1213C90.4649 53.1411 89.2091 53.0797 88.6762 52.9848ZM92.7378 52.261C92.9853 52.087 93.1877 51.8522 93.1877 51.7392C93.1877 51.6262 93.0055 51.5919 92.7829 51.6628C92.5602 51.7338 92.378 51.7559 92.378 51.712C92.378 51.6682 92.8771 51.2733 93.4871 50.8346C94.097 50.3959 94.5981 49.9683 94.6005 49.8845C94.6029 49.8006 94.5365 49.7335 94.453 49.7352C94.3695 49.7372 93.7845 49.8605 93.1529 50.0097C92.5214 50.1589 91.8564 50.4299 91.6752 50.6118C91.494 50.7937 91.1916 51.0291 91.0032 51.135C90.8148 51.2408 90.7198 51.3869 90.7922 51.4595C90.8645 51.5322 91.2983 51.3427 91.7562 51.0386C92.2141 50.7344 92.6373 50.5344 92.6969 50.5941C92.7564 50.6539 92.3958 51.0394 91.8957 51.4508C91.1943 52.0279 90.9025 52.1566 90.6194 52.0137C90.3529 51.8793 90.1553 51.9311 89.8981 52.203C89.5556 52.5648 89.5897 52.5774 90.9158 52.5774C91.83 52.5774 92.438 52.4718 92.7378 52.261ZM91.9731 52.0693C91.9731 52.0134 92.0186 51.9677 92.0743 51.9677C92.13 51.9677 92.1755 52.0134 92.1755 52.0693C92.1755 52.1252 92.13 52.1709 92.0743 52.1709C92.0186 52.1709 91.9731 52.1252 91.9731 52.0693ZM89.2236 52.2508C89.3997 52.1829 89.5438 52.0425 89.5438 51.9388C89.5438 51.8302 89.3775 51.8395 89.1522 51.9605C88.9368 52.0762 88.7091 52.1709 88.6461 52.1709C88.5831 52.1709 88.5316 51.9888 88.5316 51.7662C88.5316 51.5435 88.7138 51.2472 88.9365 51.1075C89.1591 50.9679 89.3413 50.781 89.3413 50.6922C89.3413 50.6034 89.1709 50.6222 88.9627 50.7341C88.7544 50.846 88.2073 51.0226 87.7468 51.1264C87.2175 51.2458 86.8654 51.2434 86.7893 51.1199C86.7232 51.0124 86.8374 50.8009 87.0432 50.6498C87.3628 50.4152 87.2762 50.4076 86.4486 50.5977C85.6303 50.7857 85.5228 50.8633 85.7561 51.0975C85.908 51.25 86.5718 51.5975 87.2313 51.8697C87.8908 52.1419 88.5368 52.3667 88.6668 52.3694C88.7969 52.372 89.0474 52.3186 89.2236 52.2508ZM94.2769 51.4375C94.5976 51.0503 94.8095 50.6827 94.7477 50.6207C94.6859 50.5586 94.4611 50.5634 94.2482 50.6312C94.0353 50.6991 93.7636 51.0732 93.6446 51.4627C93.5255 51.8522 93.4879 52.1643 93.561 52.1562C93.6341 52.1481 93.9562 51.8247 94.2769 51.4375ZM94.7061 51.7644C94.7749 51.6526 94.7347 51.5612 94.6168 51.5612C94.4989 51.5612 94.4024 51.6526 94.4024 51.7644C94.4024 51.8762 94.4426 51.9677 94.4917 51.9677C94.5408 51.9677 94.6372 51.8762 94.7061 51.7644ZM90.4042 50.8577C90.8217 50.6443 91.1633 50.3952 91.1633 50.3041C91.1633 50.213 91.1132 50.1385 91.052 50.1385C90.9908 50.1385 90.6881 50.2697 90.3794 50.43C90.0706 50.5903 89.6879 50.8795 89.529 51.0727C89.3701 51.266 89.3312 51.3839 89.4426 51.3349C89.5539 51.2858 89.9866 51.0711 90.4042 50.8577ZM86.7602 50.2113C86.9551 50.1562 87.1145 49.9801 87.1145 49.82C87.1145 49.6025 86.8325 49.5288 86.001 49.5288C85.3887 49.5288 84.8876 49.4395 84.8876 49.3304C84.8876 49.2213 85.2292 48.9474 85.6468 48.7218C86.4059 48.3116 86.4059 48.3116 85.4949 48.3613C84.584 48.411 84.5839 48.411 84.6067 49.1694C84.6193 49.5866 84.7476 50.0708 84.892 50.2455C85.0764 50.4685 85.3408 50.5256 85.7803 50.4372C86.1244 50.368 86.5654 50.2663 86.7602 50.2113ZM89.23 50.1157C89.348 50.005 89.3042 49.9353 89.1169 49.9353C88.9488 49.9353 88.6346 50.0772 88.4184 50.2507C88.0408 50.5538 88.0452 50.5608 88.5316 50.4311C88.8099 50.3568 89.1242 50.2149 89.23 50.1157ZM88.1267 49.8337C88.405 49.6739 88.5417 49.5412 88.4304 49.5388C88.319 49.5363 88.0229 49.5895 87.7724 49.6569C87.5219 49.7243 87.3169 49.8602 87.3169 49.959C87.3169 50.0577 87.3852 50.1353 87.4688 50.1313C87.5523 50.1274 87.8483 49.9934 88.1267 49.8337ZM87.5194 48.9311C87.5194 48.8259 87.4333 48.6864 87.328 48.6211C87.2228 48.5558 86.8356 48.6343 86.4676 48.7958C85.7986 49.0892 85.7986 49.0892 86.659 49.1057C87.1322 49.1149 87.5194 49.0363 87.5194 48.9311ZM85.4781 47.5694C85.5245 47.5293 85.2739 47.4964 84.9213 47.4964C84.5688 47.4964 84.2803 47.5896 84.2803 47.7035C84.2803 47.8265 84.5065 47.8562 84.837 47.7766C85.1432 47.7028 85.4317 47.6096 85.4781 47.5694ZM86.912 47.598C86.912 47.4304 86.8384 47.2932 86.7483 47.2932C86.6582 47.2932 86.4077 47.4275 86.1916 47.5916C85.8152 47.8774 85.8221 47.8902 86.3553 47.8964C86.7181 47.9007 86.912 47.7967 86.912 47.598ZM86.994 46.5818C87.4042 46.3024 87.8496 46.0731 87.9838 46.0724C88.1181 46.0724 88.5012 45.8823 88.8352 45.6515C89.4426 45.232 89.4426 45.232 88.7846 45.3642C88.41 45.4394 88.1267 45.4128 88.1267 45.3023C88.1267 45.1957 88.399 45.0537 88.7318 44.9869C89.0646 44.92 89.4745 44.9184 89.6428 44.9832C89.8351 45.0573 89.9487 44.9833 89.9487 44.784C89.9487 44.5116 89.6846 44.4824 88.0761 44.5769C87.0462 44.6374 86.1124 44.7822 86.001 44.8985C85.8617 45.0441 85.9722 45.069 86.3553 44.9783C86.772 44.8797 86.912 44.9227 86.912 45.1489C86.912 45.3245 87.0308 45.4055 87.1952 45.3422C87.351 45.2822 87.5423 45.3369 87.6205 45.4639C87.7038 45.5992 87.5945 45.7388 87.356 45.8014C87.1324 45.8601 86.904 46.0826 86.8485 46.2958C86.7897 46.5215 86.5704 46.6835 86.3237 46.6835C86.0906 46.6835 85.8998 46.7749 85.8998 46.8867C85.8998 46.9985 85.9782 47.0899 86.074 47.0899C86.1698 47.0899 86.5838 46.8613 86.994 46.5818ZM86.006 45.9819C86.424 45.6971 86.637 45.464 86.4792 45.464C86.3214 45.464 86.0127 45.586 85.793 45.7351C85.5734 45.8842 85.2372 46.0631 85.0459 46.1327C84.8547 46.2023 84.6442 46.1716 84.5783 46.0645C84.5123 45.9574 84.7042 45.7759 85.0048 45.6612C85.3052 45.5465 85.5075 45.4089 85.4541 45.3553C85.4008 45.3018 85.0751 45.3146 84.7304 45.3838C84.3857 45.453 84.0552 45.6366 83.9959 45.7917C83.9366 45.9468 83.9439 46.2197 84.0121 46.3982C84.1002 46.6286 84.2968 46.6903 84.691 46.6112C84.9962 46.5499 85.5879 46.2667 86.006 45.9819ZM90.2017 46.5489C90.0625 46.4925 89.9487 46.3698 89.9487 46.2762C89.9487 46.1826 90.2447 46.0376 90.6066 45.9538C91.2397 45.8074 91.2457 45.7969 90.7646 45.6759C90.2647 45.5503 90.2647 45.5503 90.8659 45.325C91.1965 45.2012 91.7858 45.0002 92.1755 44.8786C92.8736 44.6606 92.87 44.6587 91.9313 44.7507C91.4073 44.8021 90.9236 44.755 90.8565 44.646C90.7894 44.537 90.6448 44.4478 90.5352 44.4478C90.4255 44.4478 90.3626 44.6028 90.3953 44.7922C90.4289 44.9866 90.2547 45.239 89.9957 45.3717C89.7432 45.5009 89.4699 45.6806 89.3884 45.771C89.3068 45.8613 89.4044 45.876 89.6049 45.8036C89.8055 45.7312 89.921 45.7511 89.8614 45.8478C89.8018 45.9446 89.3416 46.1278 88.8387 46.2549C88.3357 46.3821 87.9242 46.5305 87.9242 46.5848C87.9242 46.6391 88.4936 46.6763 89.1895 46.6674C89.8854 46.6587 90.3409 46.6052 90.2017 46.5489ZM92.8841 46.3679C93.3294 46.3062 93.9899 46.2107 94.3518 46.1555C94.7136 46.1004 95.0097 45.9816 95.0097 45.8915C95.0097 45.8014 94.4036 45.7555 93.6628 45.7896C92.922 45.8237 92.2205 45.9473 92.104 46.0643C91.9875 46.1813 91.5687 46.2834 91.1734 46.2913C90.5813 46.3031 90.5261 46.3372 90.8597 46.4851C91.0823 46.5838 91.4467 46.623 91.6694 46.5723C91.8921 46.5215 92.4387 46.4295 92.8841 46.3679ZM92.728 45.3412C92.6607 45.2737 92.4862 45.2665 92.34 45.3252C92.1785 45.3901 92.2265 45.4382 92.4623 45.448C92.6757 45.4567 92.7953 45.4088 92.728 45.3412ZM94.8073 45.2608C94.8073 45.149 94.7671 45.0576 94.718 45.0576C94.6689 45.0576 94.5724 45.149 94.5036 45.2608C94.4348 45.3726 94.475 45.464 94.5929 45.464C94.7108 45.464 94.8073 45.3726 94.8073 45.2608ZM94.9085 44.2588C94.9085 44.1019 94.7819 43.9313 94.6272 43.8795C94.444 43.8182 94.4002 43.8732 94.5014 44.0377C94.5896 44.181 94.5362 44.3728 94.3777 44.4815C94.166 44.6268 94.1964 44.6574 94.5036 44.6084C94.7263 44.5729 94.9085 44.4156 94.9085 44.2588ZM86.643 44.176C86.6993 44.1194 86.7146 43.9371 86.6769 43.7707C86.6208 43.5229 86.4437 43.5585 85.6974 43.9673C84.7864 44.4664 84.7864 44.4664 85.6635 44.3726C86.1459 44.321 86.5867 44.2325 86.643 44.176ZM94.1451 44.1218C94.0778 44.0543 93.9033 44.0471 93.7571 44.1058C93.5956 44.1706 93.6436 44.2188 93.8794 44.2286C94.0928 44.2373 94.2124 44.1893 94.1451 44.1218ZM85.2925 43.744C85.7222 43.5037 85.7475 43.4411 85.4601 43.3291C85.274 43.2565 84.9324 43.2988 84.701 43.4232C84.4696 43.5475 84.2803 43.7374 84.2803 43.8453C84.2803 43.9531 84.3942 44.0381 84.5333 44.0342C84.6725 44.0303 85.0141 43.8996 85.2925 43.744ZM91.5682 43.4889C91.5682 43.2276 91.3515 42.892 91.0581 42.699C90.6935 42.4592 90.2829 42.3935 89.6179 42.4688C89.1063 42.5266 88.4476 42.7538 88.1542 42.9736C87.8607 43.1933 87.5954 43.5014 87.5645 43.6582C87.5194 43.8876 87.905 43.9432 89.5383 43.9432C91.5045 43.9432 91.5682 43.929 91.5682 43.4889ZM94.5741 43.455C94.7243 43.3595 94.8154 43.1192 94.7766 42.921C94.7378 42.7228 94.5607 42.4688 94.3831 42.3565C94.1882 42.2333 93.8271 42.2201 93.4721 42.3234C92.8841 42.4944 92.8841 42.4944 93.4408 42.5701C93.747 42.6117 93.9975 42.7145 93.9975 42.7986C93.9975 42.8826 93.7014 43.0994 93.3396 43.2802C92.6816 43.6089 92.6816 43.6089 93.4914 43.6188C93.9368 43.6243 94.424 43.5505 94.5741 43.455ZM92.728 43.1056C92.6607 43.0381 92.4862 43.0309 92.34 43.0896C92.1785 43.1544 92.2265 43.2026 92.4623 43.2124C92.6757 43.2211 92.7953 43.1731 92.728 43.1056ZM87.364 42.6414C87.5757 42.4197 87.4965 42.3988 86.912 42.522C86.5223 42.6042 86.0213 42.7453 85.7986 42.8355C85.5145 42.9506 85.6492 42.9862 86.2506 42.9549C86.7219 42.9303 87.2229 42.7893 87.364 42.6414ZM85.6015 42.2515C85.5392 42.1889 85.3758 42.2514 85.2385 42.3902C85.0401 42.591 85.0633 42.6143 85.3519 42.504C85.5515 42.4277 85.6639 42.314 85.6015 42.2515ZM92.8398 42.2236C92.9268 42.1433 92.7219 42.1182 92.3843 42.1679C92.0468 42.2177 91.7706 42.3456 91.7706 42.4522C91.7706 42.5588 91.9756 42.5839 92.2261 42.5079C92.4767 42.4319 92.7528 42.304 92.8398 42.2236ZM88.1267 41.9074C88.2653 41.7397 88.5362 41.6025 88.7286 41.6025C88.921 41.6025 89.3654 41.5021 89.716 41.3794C90.0667 41.2567 90.3536 41.0835 90.3536 40.9945C90.3536 40.9056 89.9664 40.9173 89.4932 41.0205C89.02 41.1238 88.1773 41.3089 87.6206 41.4318C87.0639 41.5547 86.5173 41.7114 86.4059 41.78C86.2946 41.8486 86.5223 41.9619 86.912 42.0317C87.3017 42.1016 87.6777 42.1707 87.7476 42.1855C87.8175 42.2001 87.9881 42.075 88.1267 41.9074ZM88.9365 42.1106C88.9365 42.0547 88.8909 42.009 88.8352 42.009C88.7796 42.009 88.734 42.0547 88.734 42.1106C88.734 42.1665 88.7796 42.2122 88.8352 42.2122C88.8909 42.2122 88.9365 42.1665 88.9365 42.1106ZM91.2645 41.8057C91.5827 41.6685 91.4959 41.6287 90.8597 41.6199C90.2657 41.6118 90.1308 41.6612 90.3536 41.8057C90.5206 41.9141 90.7028 41.9977 90.7584 41.9916C90.8141 41.9855 91.0419 41.9018 91.2645 41.8057ZM93.9572 41.5075C94.0188 41.4457 93.8936 41.2557 93.6791 41.0854C93.4645 40.915 93.0836 40.6895 92.8327 40.5841C92.5302 40.4571 92.206 40.4705 91.8711 40.6237C91.5932 40.7508 91.3658 40.9287 91.3658 41.019C91.3658 41.1094 91.4796 41.1483 91.6188 41.1056C91.758 41.0629 92.1679 40.9766 92.5298 40.9138C93.0261 40.8277 93.1877 40.8734 93.1877 41.0995C93.1877 41.2644 93.0565 41.3993 92.896 41.3993C92.7356 41.3993 92.5392 41.505 92.4597 41.6342C92.3553 41.8038 92.5281 41.8345 93.0801 41.7445C93.5009 41.676 93.8956 41.5693 93.9572 41.5075ZM87.2487 41.0675C87.6202 40.9116 87.9242 40.7396 87.9242 40.6852C87.9242 40.6308 87.6737 40.5896 87.3675 40.5936C87.0613 40.5977 86.5375 40.8338 86.2035 41.1185C85.6375 41.6008 85.6294 41.6263 86.0846 41.4934C86.3533 41.415 86.8771 41.2233 87.2487 41.0675ZM90.9749 40.4589C91.4085 40.3893 91.714 40.2523 91.6538 40.1545C91.5936 40.0566 91.3697 39.9766 91.1563 39.9766C90.9429 39.9766 90.4699 40.1693 90.1054 40.4047C89.7408 40.6402 89.61 40.7771 89.8146 40.7091C90.0191 40.6411 90.5413 40.5285 90.9749 40.4589ZM104.579 52.8512C103.318 52.5511 103.318 52.5511 102.691 51.2317C102.346 50.506 102.013 49.4177 101.951 48.8133C101.879 48.1208 101.935 47.4771 102.102 47.0731C102.248 46.7205 102.953 45.9467 103.669 45.3535C104.557 44.6182 105.282 44.2003 105.946 44.0402C106.483 43.9111 107.361 43.8313 107.899 43.8629C108.877 43.9204 108.877 43.9204 108.823 43.1209C108.793 42.6811 108.63 42.1824 108.461 42.0127C108.254 41.8051 107.775 41.7083 106.997 41.7169C106.178 41.7261 105.51 41.889 104.707 42.2758C104.084 42.5762 103.525 42.8219 103.465 42.8219C103.405 42.8219 103.296 42.3875 103.224 41.8566C103.151 41.3256 103.043 40.6424 102.984 40.3383C102.893 39.8775 102.984 39.7188 103.531 39.3854C103.891 39.1655 104.786 38.8778 105.52 38.7461C106.645 38.5443 107.118 38.5608 108.537 38.8515C109.463 39.041 110.532 39.3268 110.913 39.4864C111.403 39.6921 111.746 40.0573 112.089 40.7404C112.356 41.2704 112.737 42.3816 112.937 43.2096C113.239 44.4638 113.262 44.8964 113.073 45.8018C112.876 46.745 112.902 47.0831 113.275 48.3611C113.511 49.171 113.783 49.938 113.878 50.0656C113.974 50.1932 114.457 50.3585 114.952 50.433C115.447 50.5075 115.901 50.6484 115.961 50.7461C116.021 50.8438 116.011 51.4329 115.938 52.0554C115.805 53.1871 115.805 53.1871 114.051 53.1871C112.428 53.1871 112.237 53.1424 111.487 52.5889C110.677 51.9907 110.677 51.9907 109.495 52.5889C108.55 53.0674 108.066 53.1835 107.077 53.1691C106.397 53.1592 105.273 53.0162 104.579 52.8512ZM107.102 51.7763C107.554 51.201 107.554 51.201 106.936 50.9439C106.382 50.7136 106.272 50.7323 105.882 51.124C105.447 51.5612 105.447 51.5612 105.937 51.5612C106.318 51.5612 106.373 51.6154 106.185 51.8051C106.051 51.9392 105.942 52.1221 105.942 52.2116C105.942 52.301 106.101 52.3691 106.296 52.3629C106.491 52.3568 106.853 52.0927 107.102 51.7763ZM109.016 52.1891C109.273 52.0873 109.842 51.6612 110.278 51.2421C111.072 50.4803 111.072 50.4803 110.43 50.6092C109.941 50.7073 109.788 50.6666 109.788 50.4383C109.788 50.2734 109.658 50.1385 109.5 50.1385C109.341 50.1385 108.928 50.3785 108.58 50.6719C108.233 50.9653 107.991 51.2477 108.043 51.2995C108.094 51.3513 108.416 51.1864 108.757 50.933C109.099 50.6796 109.43 50.5241 109.493 50.5875C109.556 50.6509 109.216 51.0209 108.736 51.4096C108.257 51.7984 107.728 52.1672 107.561 52.2293C107.394 52.2913 107.548 52.3493 107.902 52.3581C108.257 52.3668 108.758 52.2909 109.016 52.1891ZM113.634 51.3349C113.634 51.1877 113.475 51.2368 113.229 51.4596C113.007 51.6619 112.825 51.9677 112.825 52.1391C112.825 52.3776 112.92 52.3484 113.229 52.0145C113.452 51.7745 113.634 51.4687 113.634 51.3349ZM115.176 52.0812C115.238 51.92 115.257 51.6269 115.219 51.4298C115.161 51.1251 115.045 51.1681 114.443 51.7168C113.736 52.3622 113.736 52.3622 114.4 52.3682C114.796 52.3716 115.109 52.2559 115.176 52.0812ZM105.396 51.1727C105.597 50.8275 105.666 50.545 105.548 50.545C105.431 50.545 105.334 50.3621 105.334 50.1385C105.334 49.915 105.257 49.732 105.163 49.732C105.069 49.732 104.827 49.915 104.626 50.1385C104.271 50.5315 104.272 50.5452 104.645 50.5505C104.954 50.5549 104.894 50.6696 104.339 51.1314C103.696 51.6667 103.675 51.7218 104.03 51.9216C104.248 52.0436 104.546 52.0638 104.722 51.9684C104.892 51.876 105.195 51.5179 105.396 51.1727ZM112.217 51.9677C112.217 51.8559 112.177 51.7644 112.128 51.7644C112.079 51.7644 111.982 51.8559 111.914 51.9677C111.845 52.0794 111.885 52.1709 112.003 52.1709C112.121 52.1709 112.217 52.0794 112.217 51.9677ZM111.509 51.3579C111.578 51.2462 111.537 51.1547 111.419 51.1547C111.302 51.1547 111.205 51.2462 111.205 51.3579C111.205 51.4697 111.245 51.5612 111.294 51.5612C111.343 51.5612 111.44 51.4697 111.509 51.3579ZM114.545 51.1547C114.614 51.0429 114.579 50.9515 114.468 50.9515C114.357 50.9515 114.209 51.0429 114.14 51.1547C114.072 51.2665 114.106 51.3579 114.218 51.3579C114.329 51.3579 114.477 51.2665 114.545 51.1547ZM112.916 50.9188C113.2 50.7891 113.432 50.6062 113.432 50.5124C113.432 50.4185 113.352 50.3418 113.254 50.3418C113.156 50.3418 112.966 50.0753 112.832 49.7497C112.698 49.4241 112.388 49.1073 112.143 49.0457C111.899 48.9841 111.474 48.9894 111.199 49.0573C110.924 49.1253 110.585 49.2704 110.446 49.3797C110.307 49.489 110.193 49.7045 110.193 49.8585C110.193 50.0124 110.271 50.1384 110.367 50.1384C110.463 50.1384 110.852 49.927 111.231 49.6686C111.883 49.2245 111.94 49.2178 112.285 49.546C112.635 49.8795 112.631 49.9062 112.186 50.2191C111.785 50.5008 111.773 50.5449 112.093 50.5449C112.339 50.5449 112.424 50.6472 112.347 50.8498C112.282 51.0174 112.268 51.1546 112.315 51.1546C112.362 51.1546 112.633 51.0486 112.916 50.9188ZM104.389 49.8567C104.891 49.3663 105.483 48.6118 105.704 48.18C105.924 47.7481 106.335 47.1793 106.616 46.9159C106.897 46.6525 107.083 46.323 107.03 46.1838C106.977 46.0446 107.174 45.7726 107.467 45.5795C107.761 45.3863 107.955 45.1822 107.899 45.1259C107.843 45.0696 107.311 45.3454 106.718 45.7389C106.124 46.1324 105.41 46.641 105.132 46.8692C104.853 47.0974 104.697 47.2862 104.785 47.2886C104.872 47.2911 105.171 47.1436 105.449 46.9608C105.727 46.778 106.016 46.6906 106.092 46.7666C106.168 46.8425 105.96 47.126 105.63 47.3965C105.3 47.667 104.928 47.8916 104.802 47.8956C104.677 47.8996 104.461 48.0401 104.322 48.2078C104.116 48.4566 104.128 48.5126 104.387 48.5126C104.561 48.5126 104.759 48.4212 104.828 48.3094C104.897 48.1976 105.039 48.1061 105.144 48.1061C105.249 48.1061 105.334 48.1924 105.334 48.2979C105.334 48.4034 105.061 48.6514 104.728 48.8492C104.394 49.047 104.144 49.3108 104.171 49.4356C104.199 49.5603 103.948 49.9038 103.614 50.1989C103.279 50.494 103.112 50.7383 103.241 50.7418C103.37 50.7453 103.886 50.347 104.389 49.8567ZM108.505 49.9226C108.817 49.8038 109.14 49.598 109.224 49.4653C109.308 49.3325 109.378 48.6635 109.38 47.9786C109.382 47.1386 109.288 46.6541 109.091 46.49C108.861 46.2985 108.64 46.3225 108.052 46.6029C107.603 46.8166 107.072 47.3263 106.724 47.8772C106.405 48.3822 106.144 48.9207 106.144 49.0739C106.144 49.227 106.238 49.5292 106.354 49.7454C106.498 50.0157 106.778 50.1385 107.251 50.1385C107.63 50.1385 108.194 50.0413 108.505 49.9226ZM103.426 49.5519C103.426 49.323 103.321 49.2089 103.165 49.2688C103.022 49.3239 102.905 49.4431 102.905 49.5336C102.905 49.6241 103.019 49.7443 103.158 49.8007C103.297 49.8571 103.414 49.9104 103.418 49.9192C103.422 49.928 103.426 49.7628 103.426 49.5519ZM103.917 49.6304C103.917 49.5745 103.872 49.5288 103.816 49.5288C103.76 49.5288 103.715 49.5745 103.715 49.6304C103.715 49.6863 103.76 49.732 103.816 49.732C103.872 49.732 103.917 49.6863 103.917 49.6304ZM103.31 48.2974C103.31 48.0672 103.219 47.9354 103.107 48.0045C102.996 48.0736 102.905 48.2619 102.905 48.423C102.905 48.584 102.996 48.7158 103.107 48.7158C103.219 48.7158 103.31 48.5275 103.31 48.2974ZM111.188 48.3857C111.235 48.3437 111.231 48.2673 111.179 48.2158C111.128 48.1644 110.885 48.175 110.639 48.2395C110.394 48.304 110.193 48.4437 110.193 48.55C110.193 48.6565 110.397 48.6802 110.648 48.6027C110.899 48.5254 111.142 48.4277 111.188 48.3857ZM112.217 48.3094C112.217 48.1976 112.177 48.1061 112.128 48.1061C112.079 48.1061 111.982 48.1976 111.914 48.3094C111.845 48.4212 111.885 48.5126 112.003 48.5126C112.121 48.5126 112.217 48.4212 112.217 48.3094ZM111.375 46.5827C111.312 46.5201 111.021 46.5606 110.727 46.6728C110.328 46.825 110.193 47.0185 110.193 47.4367C110.193 47.9967 110.193 47.9967 110.84 47.3466C111.197 46.989 111.437 46.6453 111.375 46.5827ZM112.015 47.1844C112.015 47.0207 111.957 46.8867 111.885 46.8867C111.814 46.8867 111.635 47.0468 111.487 47.2424C111.339 47.438 111.215 47.6698 111.212 47.7576C111.208 47.8454 111.387 47.8193 111.61 47.6997C111.833 47.58 112.015 47.3482 112.015 47.1844ZM104.232 47.0372C104.56 46.7846 105.147 46.2672 105.537 45.8873C106.245 45.1966 106.245 45.1966 105.638 45.3444C105.304 45.4257 104.757 45.6535 104.423 45.8505C104.061 46.0645 103.84 46.3464 103.876 46.5504C103.909 46.7384 103.795 46.9464 103.623 47.0128C103.451 47.0791 103.31 47.2151 103.31 47.3149C103.31 47.4147 103.383 47.4964 103.473 47.4964C103.563 47.4964 103.904 47.2898 104.232 47.0372ZM111.064 45.7229C110.931 45.6778 110.635 45.7414 110.407 45.8645C110.178 45.9874 109.99 46.1786 109.99 46.2893C109.99 46.4001 110.286 46.3364 110.648 46.1478C111.01 45.9593 111.197 45.7681 111.064 45.7229ZM112.291 45.7689C112.355 45.6012 112.33 45.464 112.236 45.464C112.142 45.464 111.951 45.6012 111.812 45.7689C111.607 46.0171 111.617 46.0737 111.867 46.0737C112.036 46.0737 112.226 45.9366 112.291 45.7689ZM110.421 45.3491C110.77 45.1677 111.321 45.0584 111.646 45.1062C111.97 45.1539 112.268 45.1396 112.308 45.0743C112.348 45.009 112.273 44.3612 112.14 43.6347C111.925 42.4534 111.852 42.319 111.451 42.3623C111.204 42.3889 111.003 42.3185 111.003 42.2059C111.003 42.0857 110.773 42.0564 110.446 42.1348C110.14 42.2083 109.825 42.3044 109.746 42.3485C109.668 42.3925 109.653 42.5593 109.714 42.7192C109.809 42.9672 109.897 42.9628 110.313 42.6893C110.634 42.4783 110.8 42.4493 110.8 42.6042C110.8 42.7338 110.95 42.8129 111.133 42.78C111.317 42.7472 111.504 42.8277 111.55 42.959C111.596 43.0903 111.289 43.4329 110.867 43.7204C110.101 44.2431 110.101 44.2431 110.845 44.1931C111.255 44.1655 111.604 44.2344 111.621 44.3462C111.637 44.458 111.36 44.5188 111.004 44.4813C110.57 44.4356 110.214 44.5452 109.921 44.815C109.681 45.0361 109.189 45.2796 108.829 45.3561C108.468 45.4327 108.129 45.5672 108.075 45.6551C108.021 45.743 108.383 45.7843 108.881 45.7469C109.379 45.7095 110.072 45.5305 110.421 45.3491ZM108.266 44.2832C108.004 44.2486 107.511 44.3652 107.17 44.5425C106.828 44.7197 106.549 44.942 106.549 45.0364C106.549 45.1309 107.042 45.0142 107.645 44.7772C108.504 44.4397 108.638 44.3326 108.266 44.2832ZM105.132 44.9559C105.132 44.9001 105.086 44.8543 105.031 44.8543C104.975 44.8543 104.929 44.9001 104.929 44.9559C104.929 45.0118 104.975 45.0576 105.031 45.0576C105.086 45.0576 105.132 45.0118 105.132 44.9559ZM106.043 44.6511C106.112 44.5393 106.094 44.4492 106.004 44.451C105.914 44.453 105.704 44.5427 105.537 44.6511C105.275 44.8209 105.28 44.8485 105.575 44.8512C105.764 44.8532 105.974 44.7629 106.043 44.6511ZM106.549 44.3462C106.549 44.2903 106.503 44.2446 106.448 44.2446C106.392 44.2446 106.346 44.2903 106.346 44.3462C106.346 44.4021 106.392 44.4478 106.448 44.4478C106.503 44.4478 106.549 44.4021 106.549 44.3462ZM110.545 43.6349C110.96 43.4113 111.201 43.2284 111.08 43.2284C110.96 43.2284 110.574 43.3288 110.223 43.4515C109.872 43.5742 109.586 43.7572 109.586 43.858C109.586 43.9589 109.631 44.0414 109.688 44.0414C109.744 44.0414 110.129 43.8585 110.545 43.6349ZM106.635 40.9928C106.877 40.9928 107.185 40.883 107.318 40.7489C107.452 40.6148 107.561 40.4267 107.561 40.3309C107.561 40.2351 107.359 40.2992 107.111 40.4732C106.864 40.6472 106.488 40.7896 106.277 40.7896C105.974 40.7896 105.941 40.7301 106.122 40.5118C106.31 40.2836 106.179 40.2871 105.387 40.5315C104.857 40.6951 104.309 40.8629 104.17 40.9045C104.031 40.9461 103.917 41.2104 103.917 41.492C103.917 42.0039 103.917 42.0039 105.056 41.4983C105.682 41.2203 106.393 40.9928 106.635 40.9928ZM110.138 41.3993C110.421 41.1757 110.59 40.9928 110.514 40.9928C110.438 40.9928 110.106 41.1323 109.778 41.3029C109.449 41.4734 109.181 41.6563 109.181 41.7094C109.181 41.7624 109.28 41.8057 109.402 41.8057C109.523 41.8057 109.855 41.6228 110.138 41.3993ZM110.888 41.6075C111.174 41.4985 111.408 41.3133 111.408 41.1959C111.408 41.0693 111.16 41.1108 110.8 41.2977C110.466 41.4711 110.193 41.6563 110.193 41.7094C110.193 41.7624 110.232 41.8057 110.281 41.8057C110.329 41.8057 110.603 41.7165 110.888 41.6075ZM108.472 40.9928C108.541 40.881 108.501 40.7896 108.383 40.7896C108.265 40.7896 108.168 40.881 108.168 40.9928C108.168 41.1046 108.209 41.196 108.258 41.196C108.307 41.196 108.403 41.1046 108.472 40.9928ZM110.381 40.6844C111.075 40.4309 111.075 40.4309 110.441 40.1021C110.093 39.9213 109.644 39.7754 109.444 39.7779C109.243 39.7803 108.852 39.963 108.573 40.1837C108.067 40.585 108.067 40.585 108.735 40.3589C109.103 40.2346 109.459 40.1886 109.527 40.2567C109.595 40.3249 109.476 40.5796 109.264 40.8228C108.882 41.2594 108.882 41.2629 109.282 41.1014C109.505 41.0115 109.999 40.8238 110.381 40.6844ZM104.727 39.9766C105.005 39.758 105.125 39.5771 104.993 39.5746C104.861 39.5722 104.52 39.6593 104.234 39.7683C103.948 39.8773 103.715 40.0603 103.715 40.1748C103.715 40.2893 103.829 40.381 103.968 40.3785C104.107 40.3761 104.449 40.1952 104.727 39.9766ZM106.238 39.8373C106.632 39.649 106.954 39.4203 106.954 39.3293C106.954 39.2382 106.885 39.164 106.802 39.1644C106.718 39.1644 106.354 39.3464 105.992 39.5679C105.63 39.7894 105.334 40.0177 105.334 40.0752C105.334 40.1328 105.377 40.1798 105.429 40.1798C105.481 40.1798 105.845 40.0257 106.238 39.8373ZM107.472 39.8814C107.802 39.6308 107.812 39.582 107.535 39.5766C107.354 39.5731 107.092 39.7073 106.954 39.875C106.815 40.0427 106.787 40.1798 106.89 40.1798C106.994 40.1798 107.256 40.0456 107.472 39.8814ZM108.573 39.7734C108.573 39.6616 108.533 39.5701 108.484 39.5701C108.435 39.5701 108.339 39.6616 108.27 39.7734C108.201 39.8851 108.241 39.9766 108.359 39.9766C108.477 39.9766 108.573 39.8851 108.573 39.7734ZM96.8104 52.8947C96.754 52.8381 96.7836 52.2634 96.8761 51.6176C96.9685 50.9718 97.086 48.0471 97.1371 45.1183C97.1997 41.5254 97.1609 39.7504 97.0176 39.6615C96.8812 39.5769 96.9298 39.3917 97.1535 39.1435C97.4305 38.8362 97.7828 38.7572 98.8755 38.7572C99.7523 38.7572 100.309 38.8491 100.413 39.0112C100.503 39.1509 100.599 41.9175 100.626 45.1592C100.653 48.4008 100.699 51.4646 100.727 51.9677C100.779 52.8822 100.779 52.8822 98.8461 52.9399C97.7828 52.9716 96.8668 52.9513 96.8104 52.8947ZM99.8625 52.1788C100.026 52.0749 100.113 51.9427 100.056 51.8851C99.9987 51.8276 99.7519 51.833 99.5075 51.8971C99.2631 51.9613 99.113 52.0949 99.174 52.194C99.235 52.293 99.3478 52.3727 99.4248 52.371C99.5017 52.3689 99.6987 52.2828 99.8625 52.1788ZM99.1237 51.6437C99.6446 51.4655 100.071 51.2423 100.071 51.1476C100.071 51.0529 99.9908 50.9258 99.893 50.8652C99.7952 50.8045 99.3405 50.9591 98.8825 51.2088C98.4244 51.4585 98.0489 51.7314 98.048 51.8152C98.046 51.8991 98.0757 51.9677 98.1115 51.9677C98.1473 51.9677 98.6028 51.8219 99.1237 51.6437ZM98.3381 51.0466C98.6527 50.8077 98.6677 50.7482 98.4135 50.7482C98.2388 50.7482 97.9825 50.8854 97.8439 51.0531C97.7053 51.2208 97.6714 51.355 97.7685 51.3515C97.8656 51.348 98.122 51.2107 98.3381 51.0466ZM99.8141 49.784C99.8714 49.634 99.8739 49.4666 99.8195 49.4121C99.7652 49.3575 99.4365 49.4758 99.0892 49.6749C98.7418 49.874 98.4176 50.1405 98.3686 50.2672C98.3029 50.4374 98.4661 50.44 98.9948 50.2771C99.3881 50.1559 99.7568 49.934 99.8141 49.784ZM98.6537 49.4272C99.2413 48.9919 99.2784 48.9191 98.912 48.9191C98.6768 48.9191 98.3402 48.9746 98.1641 49.0424C97.988 49.1103 97.8439 49.3389 97.8439 49.5505C97.8439 49.7621 97.8718 49.9353 97.9058 49.9353C97.9398 49.9353 98.2764 49.7066 98.6537 49.4272ZM99.1464 48.4818C99.4278 48.353 99.7137 48.0718 99.7817 47.8567C99.8497 47.6417 99.8577 47.418 99.7995 47.3596C99.7414 47.3013 99.3686 47.5139 98.9713 47.8322C98.5739 48.1505 98.2488 48.4796 98.2488 48.5634C98.2487 48.6473 98.3356 48.7158 98.4417 48.7158C98.5478 48.7158 98.8649 48.6105 99.1464 48.4818ZM98.7549 47.5706C99.1482 47.2603 99.1453 47.2553 98.6537 47.3966C98.3753 47.4766 98.061 47.6233 97.9552 47.7225C97.8371 47.8333 97.8762 47.9004 98.0565 47.8964C98.2179 47.893 98.5322 47.7462 98.7549 47.5706ZM99.6629 46.6928C99.9396 46.4794 100.106 46.2447 100.033 46.1712C99.9597 46.0977 99.5527 46.2744 99.1285 46.5638C98.5479 46.9599 98.4564 47.0888 98.7585 47.0854C98.9792 47.083 99.3862 46.9063 99.6629 46.6928ZM98.6278 46.392C98.9366 46.2317 99.3039 45.9619 99.444 45.7924C99.6665 45.5233 99.6004 45.4998 98.9232 45.6072C98.4966 45.6748 98.0806 45.8303 97.9988 45.9527C97.917 46.0752 97.8487 46.2897 97.847 46.4294C97.845 46.5691 97.894 46.6835 97.9552 46.6835C98.0164 46.6835 98.3191 46.5523 98.6278 46.392ZM99.7671 45.0576C99.8359 44.9458 99.71 44.8543 99.4873 44.8543C99.2646 44.8543 99.0262 44.9458 98.9573 45.0576C98.8885 45.1693 99.0144 45.2608 99.2371 45.2608C99.4598 45.2608 99.6983 45.1693 99.7671 45.0576ZM99.5906 43.9992C99.6719 43.8673 99.474 43.8457 99.0333 43.9384C98.6575 44.0175 98.2254 44.2014 98.073 44.3471C97.9207 44.4928 97.8549 44.7077 97.9268 44.8246C98.0111 44.9615 98.308 44.8889 98.7612 44.6204C99.1481 44.3912 99.5214 44.1117 99.5906 43.9992ZM99.3116 43.4936C99.6178 43.4316 99.8683 43.2551 99.8683 43.1014C99.8683 42.9477 99.8339 42.8219 99.7918 42.8219C99.7498 42.8219 99.3916 42.9577 98.9959 43.1237C98.6002 43.2897 98.2098 43.5339 98.1282 43.6664C98.0237 43.8362 98.0942 43.8629 98.3674 43.7568C98.5805 43.6741 99.0054 43.5557 99.3116 43.4936ZM98.8843 42.8287C99.2589 42.5154 99.2905 42.4275 99.0304 42.4222C98.8479 42.4186 98.4835 42.5953 98.2206 42.8152C97.8459 43.1285 97.8144 43.2163 98.0745 43.2216C98.257 43.2253 98.6214 43.0485 98.8843 42.8287ZM99.7393 41.8007C99.8353 41.7112 99.8808 41.5396 99.8405 41.4193C99.7995 41.2973 99.4987 41.4285 99.1598 41.7165C98.5707 42.2169 98.5677 42.2283 99.0586 42.0978C99.3369 42.0238 99.6432 41.8901 99.7393 41.8007ZM98.9573 41.3993C99.3777 41.0639 99.6513 40.7896 99.5654 40.7896C99.4795 40.7896 99.057 40.8955 98.6266 41.025C98.0862 41.1875 97.8439 41.3762 97.8439 41.6347C97.8439 41.8405 97.9225 42.009 98.0185 42.009C98.1145 42.009 98.537 41.7346 98.9573 41.3993ZM99.6538 40.2645C99.8142 40.1115 99.8949 39.9355 99.8331 39.8735C99.7713 39.8114 99.4357 39.9236 99.0872 40.1227C98.7388 40.3218 98.4532 40.5595 98.4525 40.6508C98.4525 40.7422 98.6562 40.7552 98.9067 40.6798C99.1572 40.6044 99.4934 40.4175 99.6538 40.2645ZM98.7884 39.4025C98.4728 39.3663 98.0817 39.3877 97.9193 39.4503C97.6881 39.5394 97.6721 39.6543 97.8457 39.9799C98.0672 40.3955 98.0677 40.3955 98.7148 39.9321C99.3622 39.4685 99.3622 39.4685 98.7884 39.4025ZM97.3248 36.2559C97.2653 36.1004 97.2439 35.342 97.2773 34.5706C97.3378 33.1681 97.3378 33.1681 98.6923 33.1083C99.8351 33.0578 100.078 33.1063 100.245 33.4204C100.354 33.625 100.468 34.3836 100.497 35.1061C100.551 36.4199 100.551 36.4199 98.9922 36.4793C97.8056 36.5246 97.4071 36.4712 97.3248 36.2559ZM99.6659 35.2799C99.6659 35.0686 99.5807 34.8956 99.4766 34.8956C99.3725 34.8956 99.0537 34.9848 98.7681 35.0938C98.4825 35.2029 98.2488 35.4132 98.2488 35.5611C98.2488 35.749 98.4627 35.8051 98.9573 35.7472C99.4881 35.685 99.6659 35.5677 99.6659 35.2799ZM98.3837 34.5569C98.3095 34.4824 98.2488 34.5433 98.2488 34.6924C98.2488 34.8414 98.3095 34.9024 98.3837 34.8279C98.458 34.7534 98.458 34.6314 98.3837 34.5569ZM99.5353 34.3707C99.7044 34.3056 99.7932 34.1227 99.7327 33.9642C99.6721 33.8058 99.4957 33.6762 99.3406 33.6762C99.1855 33.6762 99.0586 33.7145 99.0586 33.7612C99.0586 33.808 99.0033 33.9909 98.9357 34.1677C98.8681 34.3445 98.9062 34.4892 99.0204 34.4892C99.1345 34.4892 99.3662 34.4359 99.5353 34.3707ZM98.4512 33.9811C98.6576 33.7314 98.6438 33.6762 98.3748 33.6762C98.1941 33.6762 98.0463 33.8134 98.0463 33.9811C98.0463 34.1487 98.0807 34.2859 98.1228 34.2859C98.1648 34.2859 98.3126 34.1487 98.4512 33.9811ZM30.5625 32.1321C29.6886 31.9736 28.4132 31.6244 27.7283 31.3561C27.0435 31.0879 25.8502 30.7627 25.0767 30.6335C24.3032 30.5043 22.9752 30.1294 22.1257 29.8005C21.2762 29.4716 20.2065 28.8806 19.7486 28.4872C19.2908 28.0938 18.6713 27.2693 18.372 26.6551C17.886 25.6579 17.838 25.3704 17.9235 23.9674C17.9843 22.9698 18.1969 21.957 18.506 21.1921C18.7737 20.5298 19.0875 19.9569 19.2034 19.9192C19.3192 19.8814 19.5891 19.9791 19.8031 20.1361C20.0953 20.3506 20.1377 20.4905 19.9735 20.6978C19.8532 20.8496 19.6137 21.4311 19.4412 21.99C19.2688 22.5489 19.0706 23.3478 19.001 23.7653C18.9313 24.1829 18.9787 24.9137 19.1063 25.3894C19.2339 25.8651 19.525 26.5175 19.7531 26.8392C19.9813 27.1609 20.5769 27.6845 21.0767 28.0027C21.5765 28.3209 22.5705 28.7767 23.2856 29.0156C24.0007 29.2545 24.6363 29.3992 24.6982 29.3372C24.76 29.2751 24.6545 29.0677 24.4639 28.8763C24.2732 28.6849 23.5181 28.3181 22.7858 28.0612C22.0535 27.8043 21.1283 27.3303 20.7297 27.0079C20.3311 26.6854 19.8924 26.2019 19.7549 25.9333C19.6173 25.6648 19.5035 24.9742 19.5018 24.3987C19.4996 23.6201 19.6577 23.0492 20.1197 22.1674C20.4612 21.5158 21.0408 20.6148 21.4078 20.1652C21.7747 19.7157 22.6569 18.7824 23.3681 18.0913C24.0793 17.4001 25.0711 16.5248 25.5721 16.1462C26.0731 15.7676 27.4852 14.7772 28.71 13.9453C29.9347 13.1134 31.5135 12.0808 32.2184 11.6506C32.9232 11.2204 34.6541 10.2943 36.0648 9.59258C37.4754 8.89085 39.0807 8.11291 39.6321 7.8638C40.1835 7.6147 41.8689 6.92795 43.3773 6.33769C44.8858 5.74744 47.467 4.84475 49.1134 4.33171C50.7598 3.81868 52.9917 3.16577 54.0733 2.88081C55.1548 2.59584 57.295 2.09174 58.8294 1.76058C60.3638 1.42942 62.9145 0.935518 64.4978 0.663012C66.081 0.390506 68.6973 0.109453 70.3118 0.0384476C72.0076 -0.0361347 74.0166 0.000457011 75.0692 0.125099C76.0713 0.24376 78.7587 0.479208 81.0412 0.648314C84.2241 0.884124 85.6395 1.08194 87.1145 1.49708C88.1722 1.79479 89.3804 2.25372 89.7993 2.51693C90.2182 2.78013 90.7492 3.15368 90.9792 3.34703C91.2092 3.54038 91.6079 4.0644 91.8651 4.51153C92.1223 4.95865 92.3909 5.65832 92.462 6.06635C92.533 6.47437 92.4928 7.24888 92.3726 7.78747C92.2523 8.32607 91.8729 9.36409 91.5294 10.0942C91.0189 11.1791 90.4198 11.8989 88.2505 14.0343C86.7906 15.4713 84.8729 17.1932 83.9888 17.8606C83.1048 18.5281 82.0116 19.2624 81.5595 19.4924C81.1075 19.7224 80.692 19.9764 80.6363 20.0567C80.5807 20.1371 79.032 20.9424 77.1948 21.8463C75.3577 22.7502 72.5336 24.0112 70.9191 24.6485C69.3046 25.2857 66.2395 26.3821 64.1076 27.0848C61.9758 27.7876 58.1952 28.871 55.7063 29.4925C53.2174 30.114 49.6779 30.8941 47.8407 31.226C46.0036 31.5579 43.1593 31.9707 41.5202 32.1432C39.881 32.3157 37.1025 32.4486 35.3457 32.4385C33.5567 32.4284 31.4524 32.2935 30.5625 32.1321ZM41.32 31.0242C42.4012 30.907 44.6978 30.5801 46.4236 30.2978C48.1495 30.0155 51.1102 29.4224 53.003 28.9798C54.8958 28.5372 57.4466 27.8949 58.6714 27.5524C59.8961 27.2098 61.627 26.7013 62.5178 26.4224C63.4085 26.1434 65.0483 25.592 66.1617 25.197C67.2752 24.802 69.006 24.1605 70.0081 23.7714C71.0102 23.3823 72.7866 22.6437 73.9557 22.13C75.1249 21.6163 76.9468 20.7478 78.0046 20.1999C79.0623 19.6521 80.0189 19.1134 80.1302 19.003C80.2416 18.8925 80.0138 18.9424 79.6241 19.1139C79.2344 19.2853 77.4273 20.0752 75.6083 20.8691C73.7894 21.6629 70.0088 23.0802 67.207 24.0184C64.4052 24.9567 60.6098 26.1321 58.7726 26.6304C56.9354 27.1287 54.248 27.8177 52.8006 28.1615C51.3531 28.5053 48.939 29.0181 47.4358 29.3011C45.9327 29.5842 43.1997 30.0417 41.3626 30.3178C39.5254 30.594 36.7014 30.9005 35.0869 30.9989C32.1515 31.1779 32.1515 31.1779 35.7528 31.2076C37.7335 31.2239 40.2387 31.1415 41.32 31.0242ZM38.6296 29.5148C39.9657 29.3545 41.7422 29.1253 42.5772 29.0054C43.4123 28.8856 45.5531 28.5064 47.3346 28.1628C49.1161 27.8192 51.8491 27.2281 53.4079 26.8491C54.9667 26.4702 56.7887 26.0107 57.4567 25.828C58.1248 25.6454 59.4457 25.2719 60.3921 24.998C61.3385 24.7242 63.4338 24.0827 65.0483 23.5726C66.6628 23.0624 69.3957 22.1182 71.1216 21.4743C72.8474 20.8304 75.3526 19.8324 76.6887 19.2564C78.0248 18.6803 80.2112 17.6364 81.5473 16.9364C82.8834 16.2364 84.6143 15.2411 85.3937 14.7247C86.2227 14.1753 87.1332 13.3507 87.5874 12.7378C88.0146 12.1616 88.5868 11.245 88.8589 10.7009C89.177 10.0652 89.3634 9.3273 89.3807 8.63592C89.3969 7.98932 89.2761 7.30623 89.078 6.92379C88.8968 6.57381 88.4492 6.03298 88.0834 5.72193C87.7175 5.41088 86.8508 4.89697 86.1573 4.57991C85.4639 4.26285 84.849 4.00343 84.7908 4.00343C84.7327 4.00343 84.6852 4.09304 84.6852 4.20256C84.6852 4.31208 85.1634 4.67511 85.748 5.0093C86.3325 5.34349 86.978 5.73403 87.1822 5.87718C87.3865 6.02032 87.6825 6.3844 87.8401 6.68625C87.9977 6.98809 88.1267 7.54853 88.1267 7.93167C88.1267 8.3148 87.9979 8.93769 87.8405 9.31586C87.6831 9.69403 87.1676 10.4446 86.6948 10.9838C86.222 11.523 85.2277 12.4508 84.4851 13.0456C83.7425 13.6405 82.5383 14.4938 81.809 14.9419C81.0797 15.39 78.1262 16.947 75.2456 18.4019C72.365 19.8568 69.416 21.2887 68.6923 21.584C67.9685 21.8792 66.3287 22.5152 65.0483 22.9975C63.7678 23.4797 61.2171 24.3313 59.3799 24.89C57.5428 25.4486 55.2653 26.0973 54.3189 26.3316C53.3725 26.5658 51.9604 26.9023 51.181 27.0794C50.4016 27.2564 48.8074 27.5813 47.6383 27.8013C46.4692 28.0213 44.3284 28.3815 42.8809 28.6018C41.4334 28.8221 38.6834 29.1061 36.7697 29.233C34.1021 29.4098 32.7086 29.4062 30.7976 29.2174C29.4267 29.0819 27.7585 28.9264 27.0904 28.8718C25.8758 28.7725 25.8758 28.7725 26.4747 29.2841C26.8611 29.6143 27.3997 29.8275 27.993 29.8852C28.4987 29.9344 30.5522 29.9367 32.5564 29.8903C34.5605 29.844 37.2935 29.6751 38.6296 29.5148ZM23.9526 27.0406C23.9526 26.9679 23.5037 26.4764 22.955 25.9483C22.2611 25.2803 21.8856 24.7201 21.7212 24.1073C21.5913 23.6229 21.5402 22.8797 21.6077 22.4558C21.6753 22.032 21.692 21.6852 21.6449 21.6852C21.5979 21.6852 21.3645 22.0892 21.1264 22.5831C20.8883 23.077 20.648 23.7858 20.5926 24.1582C20.5227 24.6275 20.6206 25.0424 20.9117 25.5098C21.1786 25.9383 21.7173 26.3602 22.3891 26.6667C22.9707 26.9321 23.5603 27.1544 23.6995 27.1609C23.8387 27.1674 23.9526 27.1132 23.9526 27.0406ZM40.4853 26.8339C40.4111 26.7594 40.2896 26.7594 40.2154 26.8339C40.1412 26.9084 40.2019 26.9694 40.3504 26.9694C40.4988 26.9694 40.5596 26.9084 40.4853 26.8339ZM36.7064 26.2309C37.9869 26.0612 40.3554 25.6494 41.9699 25.3159C43.5844 24.9824 45.953 24.4349 47.2334 24.0991C48.5138 23.7635 49.9259 23.3908 50.3713 23.2711C50.8166 23.1513 52.092 22.7843 53.2054 22.4554C54.3189 22.1266 56.6419 21.4014 58.3677 20.8441C60.0935 20.2867 63.0998 19.2328 65.0483 18.5021C66.9968 17.7714 69.7753 16.6679 71.2228 16.0499C72.6702 15.4318 74.8847 14.4387 76.1437 13.843C77.4028 13.2472 79.2703 12.2846 80.2938 11.7039C81.3173 11.1232 82.3523 10.4702 82.5938 10.2527C82.8353 10.0353 83.2168 9.42819 83.4416 8.90367C83.6663 8.37915 83.912 7.48246 83.9875 6.91104C84.1052 6.02051 84.0708 5.84319 83.747 5.66973C83.5393 5.55842 82.4692 5.35382 81.369 5.21505C80.0373 5.04707 78.0076 5.00161 75.2958 5.07902C73.0556 5.14297 69.9929 5.34286 68.4898 5.52322C66.9867 5.70358 64.6637 6.03292 63.3275 6.25509C61.9914 6.47726 59.9872 6.84318 58.8738 7.06823C57.7604 7.29329 55.8929 7.70938 54.7238 7.99289C53.5547 8.27639 51.4978 8.81658 50.153 9.19329C48.8081 9.57001 46.6673 10.238 45.3956 10.6778C44.1239 11.1176 42.0357 11.8926 40.7553 12.3999C39.4748 12.9073 37.5162 13.7763 36.4028 14.3311C35.2893 14.8859 33.8773 15.6484 33.2649 16.0254C32.6525 16.4025 31.6049 17.0898 30.9368 17.5528C30.2688 18.0157 29.3507 18.7574 28.8966 19.2009C28.4425 19.6444 27.7521 20.4076 27.3624 20.897C26.9726 21.3864 26.4203 22.1983 26.135 22.7014C25.8497 23.2044 25.4748 24.0956 25.3018 24.6818C25.0105 25.6688 25.0127 25.7611 25.3303 25.9288C25.519 26.0283 26.1744 26.2131 26.7868 26.3393C27.3991 26.4656 28.3101 26.602 28.8112 26.6425C29.3122 26.683 30.7698 26.6764 32.0503 26.6279C33.3307 26.5793 35.426 26.4006 36.7064 26.2309ZM44.8366 26.1703C46.5445 25.8426 49.011 25.3419 50.3176 25.0576C51.6243 24.7733 53.4463 24.3502 54.3665 24.1173C55.2867 23.8844 57.4972 23.2787 59.2787 22.7712C61.0602 22.2637 63.8387 21.4077 65.4532 20.8688C67.0677 20.33 69.4362 19.4789 70.7167 18.9775C71.9971 18.4761 73.5914 17.8205 74.2594 17.5206C74.9275 17.2206 76.2029 16.4842 77.0936 15.8839C77.9843 15.2837 79.2142 14.3321 79.8266 13.7693C80.94 12.7461 80.94 12.7461 77.8294 14.2825C76.1186 15.1276 73.75 16.2356 72.5659 16.7448C71.3818 17.254 69.1376 18.171 67.5788 18.7827C66.02 19.3944 63.4237 20.3475 61.8092 20.9006C60.1947 21.4537 57.1429 22.4426 55.0274 23.098C52.9119 23.7534 49.8899 24.6197 48.3118 25.0231C46.7337 25.4266 44.4107 25.9769 43.1495 26.2461C41.8883 26.5154 41.0533 26.7425 41.2939 26.7509C41.5344 26.7592 43.1287 26.498 44.8366 26.1703ZM23.7342 23.87C23.872 23.3949 24.219 22.6443 24.5054 22.202C24.7917 21.7597 25.3538 21.0381 25.7545 20.5984C26.1552 20.1587 27.4313 18.936 28.5903 17.8813C29.7493 16.8265 31.8445 15.2033 33.2465 14.2741C34.6484 13.3449 37.0708 11.9388 38.6296 11.1493C40.1884 10.3598 42.0559 9.44858 42.7797 9.12442C43.5034 8.80025 44.8949 8.23408 45.8719 7.86627C46.8489 7.49845 47.6109 7.16004 47.5653 7.11426C47.5197 7.06847 46.0371 7.52779 44.2707 8.13497C42.5042 8.74214 40.1479 9.60468 39.0345 10.0517C37.9211 10.4987 36.0997 11.2935 34.987 11.8179C33.8743 12.3423 32.1435 13.2415 31.1406 13.8162C30.1378 14.3908 28.6779 15.379 27.8965 16.0121C27.115 16.6451 25.8969 17.7842 25.1896 18.5433C24.467 19.3188 23.6484 20.4651 23.321 21.16C23.0005 21.84 22.7382 22.6894 22.7381 23.0475C22.738 23.4055 22.8436 23.9314 22.9729 24.2161C23.1021 24.5008 23.2699 24.7337 23.3457 24.7337C23.4215 24.7337 23.5964 24.345 23.7342 23.87ZM84.7837 11.2687C85.6365 10.4808 86.4558 9.50915 86.7075 8.98707C86.9487 8.48694 87.1161 7.9222 87.0796 7.7321C87.0325 7.48647 86.8441 7.6468 86.4288 8.28624C86.1073 8.78111 85.5198 9.46038 85.1232 9.79572C84.7265 10.1311 84.1696 10.6483 83.8856 10.9452C83.6017 11.242 83.1416 11.7824 82.8632 12.146C82.5848 12.5096 82.2777 12.9416 82.1807 13.1059C82.0505 13.3263 82.1738 13.3045 82.6513 13.0228C83.0071 12.8128 83.9667 12.0235 84.7837 11.2687ZM43.7244 9.96509C43.6502 9.89057 43.5287 9.89057 43.4545 9.96509C43.3803 10.0396 43.4409 10.1006 43.5894 10.1006C43.7379 10.1006 43.7986 10.0396 43.7244 9.96509ZM45.1543 9.59655C45.5741 9.43112 47.2385 8.88542 48.8529 8.3839C50.4674 7.88238 53.6624 7.05896 55.953 6.55409C58.2436 6.04921 61.2043 5.45613 62.5324 5.23613C63.8605 5.01612 66.5413 4.63449 68.4898 4.38806C71.1304 4.05409 73.1924 3.93514 76.5875 3.92091C79.0927 3.9104 81.1927 3.83439 81.254 3.75198C81.3154 3.66957 81.6737 3.69087 82.0504 3.79931C82.427 3.90776 82.7792 3.95232 82.8329 3.89834C82.8867 3.84436 82.8742 3.74345 82.8051 3.67409C82.736 3.60473 82.2425 3.46599 81.7085 3.36576C81.1745 3.26554 79.4622 3.0918 77.9034 2.97967C75.982 2.84146 73.8304 2.84381 71.2228 2.98695C69.1073 3.10308 66.6476 3.28987 65.7568 3.40203C64.8661 3.51419 63.0897 3.84314 61.8092 4.13302C60.5288 4.4229 58.3502 4.96947 56.9679 5.34761C55.5857 5.72575 52.9893 6.52942 51.1983 7.13353C49.4073 7.73765 47.0796 8.56548 46.0255 8.97315C44.9715 9.38083 44.0681 9.75555 44.018 9.80586C43.9679 9.85617 44.0313 9.89733 44.1589 9.89733C44.2866 9.89733 44.7345 9.76198 45.1543 9.59655ZM91.3137 7.1333C91.3804 6.56504 91.2832 6.00861 91.0078 5.38373C90.7858 4.87977 90.2786 4.21818 89.8807 3.91353C89.4829 3.60888 88.5383 3.15141 87.7817 2.89692C87.025 2.64244 85.8138 2.33488 85.0901 2.21345C84.3663 2.09203 83.4098 1.94626 82.9644 1.88953C82.2091 1.79332 82.1819 1.80686 82.5595 2.09078C82.7822 2.2582 83.1922 2.44505 83.4705 2.50601C83.7489 2.56697 84.4321 2.75908 84.9888 2.93293C85.5456 3.10678 86.4565 3.4533 87.0133 3.70296C87.57 3.95263 88.425 4.50596 88.9134 4.93259C89.4017 5.35922 89.969 6.07921 90.1742 6.53257C90.3793 6.98593 90.5565 7.81415 90.5681 8.37306C90.589 9.38925 90.589 9.38925 90.9024 8.67791C91.0748 8.28668 91.2598 7.5916 91.3137 7.1333ZM85.4933 7.66567C85.6308 7.33249 85.6823 6.81625 85.6079 6.51846C85.5329 6.21839 85.3983 6.05808 85.306 6.15885C85.2144 6.25885 85.0939 6.7751 85.0384 7.30606C84.9828 7.83702 85.0062 8.27144 85.0904 8.27144C85.1745 8.27144 85.3559 7.99884 85.4933 7.66567ZM48.2456 6.95039C48.2456 6.8945 48.2001 6.84877 48.1444 6.84877C48.0887 6.84877 48.0432 6.8945 48.0432 6.95039C48.0432 7.00628 48.0887 7.05201 48.1444 7.05201C48.2001 7.05201 48.2456 7.00628 48.2456 6.95039ZM54.7564 4.11925C55.9076 3.84761 58.2614 3.38873 59.9872 3.09953C61.7131 2.81032 64.446 2.34278 66.0605 2.06055C67.675 1.77831 69.5425 1.47096 70.2106 1.37753C71.4252 1.20766 71.4252 1.20766 70.2989 1.18288C69.6795 1.16924 68.1763 1.29121 66.9586 1.45391C65.7409 1.61661 63.2922 2.03004 61.5169 2.37265C59.7416 2.71525 57.0119 3.31813 55.4509 3.71238C53.8899 4.10663 52.5714 4.47058 52.521 4.52117C52.4706 4.57176 52.4821 4.61315 52.5464 4.61315C52.6108 4.61315 53.6053 4.39089 54.7564 4.11925Z" fill="#F7A927"/>
</svg>
