<svg width="208" height="97" viewBox="0 0 208 97" fill="none" xmlns="http://www.w3.org/2000/svg">
<g clip-path="url(#clip0_14_76)">
<path d="M64.245 82.0666C64.1119 81.9531 64.003 78.9493 64.003 75.3915C64.003 71.7052 63.8309 68.3397 63.6029 67.5673C63.2864 66.4952 62.9525 66.1105 62.0053 65.7271C61.3467 65.4605 60.5309 65.2424 60.1926 65.2424C59.8543 65.2424 59.1058 65.4801 58.5291 65.7707C57.9525 66.0612 57.1972 66.7928 56.8506 67.3963C56.3661 68.24 56.1339 69.9257 55.8464 74.6867C55.4725 80.8797 55.4725 80.8797 52.6592 80.9701C49.846 81.0605 49.846 81.0605 49.846 75.988C49.846 73.198 49.739 68.3954 49.6082 65.3155C49.3704 59.7157 49.3704 59.7157 52.0585 59.467C53.5369 59.3302 54.9098 59.2152 55.1093 59.2113C55.3088 59.2076 55.4444 59.7268 55.4106 60.3654C55.3769 61.0041 55.4816 61.5266 55.6435 61.5266C55.8053 61.5266 56.6498 61.251 57.5201 60.9141C58.55 60.5155 59.901 60.2992 61.3893 60.2948C62.7892 60.2908 64.1266 60.4822 64.8378 60.7887C65.4767 61.0641 66.3825 61.5866 66.8507 61.9499C67.3189 62.3132 67.9569 63.0284 68.2685 63.5393C68.5801 64.0503 69.0527 65.165 69.3188 66.0165C69.6564 67.0974 69.8037 69.7849 69.8067 74.9189C69.811 82.2731 69.8111 82.2731 67.149 82.2731C65.6849 82.2731 64.3781 82.1802 64.245 82.0666ZM31.2255 81.5373C30.268 81.3094 28.9819 80.7199 28.3675 80.2272C27.7532 79.7345 27.0257 78.883 26.7508 78.335C26.4759 77.787 26.2546 76.6723 26.259 75.8578C26.2634 75.0434 26.5668 73.8139 26.9333 73.1256C27.2999 72.4374 28.1105 71.5076 28.7347 71.0596C29.3589 70.6115 30.7543 69.9626 31.8354 69.6175C32.9166 69.2725 35.2061 68.8225 36.9231 68.6176C39.4784 68.3127 40.045 68.1474 40.045 67.707C40.045 67.411 39.7375 66.8449 39.3616 66.449C38.7948 65.8519 38.3341 65.729 36.6629 65.729C35.204 65.729 34.4406 65.8888 33.8978 66.3078C33.4819 66.6289 33.148 67.2708 33.148 67.7493C33.148 68.2238 32.9985 68.6908 32.8158 68.7871C32.6331 68.8834 31.2447 68.8051 29.7303 68.6129C27.77 68.3642 26.977 68.1356 26.977 67.819C26.977 67.5746 27.1598 66.7555 27.3831 65.9988C27.6065 65.2422 27.9332 64.6231 28.1091 64.6231C28.2851 64.6231 28.429 64.4384 28.429 64.2126C28.429 63.9868 28.7965 63.5149 29.2458 63.1638C29.695 62.8127 30.7976 62.1962 31.696 61.7938C33.0992 61.1653 33.8452 61.0622 36.9863 61.0622C40.346 61.0622 40.7626 61.1296 42.115 61.8932C43.0397 62.4153 43.9071 63.2789 44.4478 64.2156C45.2368 65.5827 45.319 66.1663 45.435 71.2252C45.5614 76.7435 45.5614 76.7435 46.9262 76.5469C48.2909 76.3502 48.2909 76.3502 48.4949 78.4601C48.6071 79.6206 48.5637 80.6895 48.3985 80.8356C48.2332 80.9817 47.0397 81.1737 45.7462 81.2622C43.7475 81.3991 43.1714 81.3163 41.9085 80.7109C40.5573 80.0631 40.3642 80.0419 39.78 80.4773C39.4266 80.7407 38.5658 81.1079 37.867 81.2933C37.1682 81.4788 35.7798 81.7027 34.7815 81.791C33.7613 81.8813 32.2041 81.77 31.2255 81.5373ZM38.6614 76.6294C39.9932 75.9909 40.045 75.9044 40.045 74.32C40.045 72.818 39.9736 72.6744 39.2283 72.6788C38.779 72.6819 37.4337 72.8798 36.2387 73.1196C34.7379 73.4207 33.8054 73.8138 33.224 74.3904C32.6995 74.9105 32.4239 75.5295 32.4929 76.0326C32.5594 76.5181 32.9652 77.0011 33.511 77.2444C34.0622 77.4901 34.98 77.579 35.8482 77.4708C36.6345 77.3729 37.9005 76.9942 38.6614 76.6294ZM92.6799 81.6844C91.9812 81.5603 91.0011 81.2718 90.5019 81.0432C90.0028 80.8146 89.2153 80.2663 88.752 79.8247C88.2886 79.3831 87.7577 78.6992 87.5722 78.3049C87.3867 77.9106 87.2349 76.8051 87.2349 75.8481C87.2349 74.733 87.496 73.656 87.9618 72.8491C88.3616 72.1567 89.3009 71.2282 90.0491 70.7857C90.7973 70.3432 92.2121 69.7517 93.193 69.4712C94.174 69.1908 96.3335 68.7939 97.9918 68.5894C100.963 68.223 101.004 68.206 100.786 67.4267C100.665 66.9917 100.419 66.4762 100.24 66.2811C100.061 66.0861 99.3506 65.8363 98.6619 65.7261C97.9732 65.6159 96.7655 65.6737 95.9781 65.8545C94.7741 66.1311 94.4779 66.3669 94.114 67.3386C93.876 67.9739 93.5777 68.5919 93.4512 68.7119C93.3246 68.8319 92.0376 68.7802 90.5911 68.597C88.2709 68.3033 87.9612 68.1864 87.963 67.6048C87.963 67.2421 88.1363 66.4191 88.3458 65.7758C88.5552 65.1325 89.1926 64.1534 89.7621 63.6001C90.3317 63.0467 91.5721 62.2641 92.5186 61.8609C93.6161 61.3933 95.134 61.0731 96.7091 60.977C98.0675 60.8941 99.9366 60.9891 100.863 61.188C101.789 61.3869 103.012 61.843 103.58 62.2015C104.149 62.56 104.979 63.565 105.424 64.4349C106.13 65.8139 106.255 66.702 106.4 71.3665C106.566 76.7164 106.566 76.7164 107.881 76.6305C109.196 76.5446 109.196 76.5446 109.378 78.6645C109.478 79.8305 109.42 80.8579 109.249 80.9477C109.079 81.0375 107.913 81.1813 106.659 81.2671C104.739 81.3986 104.144 81.3108 102.892 80.7109C101.541 80.0631 101.348 80.0419 100.764 80.4773C100.411 80.7407 99.5497 81.1035 98.8509 81.2836C98.1522 81.4636 96.7637 81.6782 95.7654 81.7605C94.7672 81.8427 93.3787 81.8085 92.6799 81.6844ZM99.6556 76.5369C100.946 75.8082 101.029 75.6668 101.029 74.1822C101.029 72.6026 101.029 72.6026 98.9417 72.8099C97.7937 72.924 96.1194 73.3306 95.2209 73.7136C93.7347 74.3471 93.5777 74.5221 93.4789 75.6554C93.3884 76.6944 93.5087 76.9605 94.2049 77.2605C94.6646 77.4586 95.7677 77.5509 96.6609 77.4661C97.5527 77.3814 98.9003 76.9633 99.6556 76.5369ZM76.6236 79.7049C75.7626 79.2708 75.068 78.5963 74.7179 77.8544C74.2849 76.9369 74.167 75.263 74.167 70.0358C74.167 63.3846 74.167 63.3846 72.352 63.3846C70.537 63.3846 70.537 63.3846 70.537 61.2171C70.537 59.0495 70.537 59.0495 72.3378 59.0495C74.1387 59.0495 74.1387 59.0495 74.2436 56.352C74.3484 53.6545 74.3485 53.6545 75.619 53.4326C76.3177 53.3106 77.6245 53.1659 78.523 53.1111C80.1565 53.0114 80.1565 53.0114 80.2609 55.8756C80.3652 58.7399 80.3652 58.7399 83.2556 58.7399C86.146 58.7399 86.146 58.7399 86.146 60.9074C86.146 63.075 86.146 63.0749 84.0587 63.0792C82.9107 63.0823 81.6039 63.1674 81.1547 63.2701C80.3433 63.4556 80.338 63.4959 80.338 69.4686C80.338 74.7021 80.4134 75.505 80.9207 75.6711C81.2412 75.776 82.3319 75.6987 83.3444 75.4994C84.3569 75.3 85.3015 75.2446 85.4435 75.3763C85.5855 75.508 85.812 76.5353 85.9469 77.6592C86.192 79.7026 86.192 79.7026 84.112 80.059C82.9679 80.2549 81.1198 80.4091 80.0052 80.4016C78.589 80.392 77.5703 80.1821 76.6236 79.7049ZM8.64552 78.9673C8.24622 78.8917 7.27536 78.6195 6.48798 78.3625C5.70059 78.1054 4.44031 77.4789 3.68738 76.9702C2.87891 76.424 1.86945 75.2601 1.22193 74.1274C0.618884 73.0726 0.0822934 71.7335 0.0295133 71.1515C-0.0664638 70.0935 -0.0664655 70.0935 2.29303 69.7107C3.59075 69.5001 4.81588 69.2978 5.01553 69.2612C5.21518 69.2246 5.58272 69.2111 5.83228 69.2312C6.08184 69.2513 6.28603 69.5722 6.28603 69.9442C6.28603 70.3162 6.62997 71.2266 7.05029 71.9673C7.57388 72.8899 8.25523 73.5058 9.21384 73.923C10.185 74.3456 11.343 74.5319 12.9987 74.5319C14.3108 74.5319 15.9295 74.3376 16.5958 74.1001C17.262 73.8627 18.0735 73.3439 18.3991 72.9475C18.7246 72.551 18.991 71.7941 18.991 71.2656C18.991 70.666 18.6801 70.0556 18.164 69.6419C17.709 69.2774 16.6064 68.7523 15.7137 68.4751C14.821 68.1978 12.5347 67.5849 10.6331 67.1131C8.73146 66.6412 6.52624 65.9711 5.73258 65.6241C4.93891 65.277 3.93217 64.666 3.49533 64.2662C3.05854 63.8664 2.36785 62.9123 1.96056 62.1459C1.51948 61.316 1.21679 60.0882 1.21203 59.1098C1.20731 58.1183 1.48935 56.9329 1.92378 56.1195C2.31967 55.3782 3.30609 54.288 4.11587 53.6967C5.02421 53.0334 6.45182 52.4129 7.84287 52.0766C9.12872 51.7657 11.4234 51.5207 13.183 51.5064C15.2286 51.49 16.8841 51.6618 18.095 52.0166C19.0996 52.3109 20.5352 52.9831 21.2852 53.5105C22.0352 54.0379 23.1326 55.2869 23.7239 56.2861C24.3152 57.2853 24.799 58.3732 24.799 58.7037C24.799 59.1691 24.4521 59.3546 23.2611 59.5263C22.4152 59.6482 21.1149 59.931 20.3716 60.1547C19.0201 60.5615 19.0201 60.5615 18.0049 58.8121C17.0988 57.2506 16.8146 57.0179 15.3587 56.645C14.4615 56.4153 13.0676 56.2845 12.261 56.3544C11.4543 56.4243 10.2035 56.7207 9.48119 57.0131C8.73719 57.3143 7.98777 57.9158 7.75218 58.401C7.4367 59.0507 7.44092 59.4533 7.76962 60.0687C8.01239 60.5232 8.85902 61.1406 9.69475 61.4726C10.5152 61.7985 11.5132 62.1425 11.9125 62.237C12.3118 62.3316 14.1086 62.7899 15.9055 63.2555C17.7023 63.721 19.9892 64.4752 20.9875 64.9315C22.0564 65.42 23.2143 66.2802 23.8044 67.0241C24.3554 67.7188 24.966 69.0057 25.1613 69.8838C25.399 70.9531 25.3914 71.9555 25.1384 72.9188C24.9306 73.7099 24.4277 74.8164 24.021 75.3778C23.6143 75.9392 22.602 76.7972 21.7715 77.2846C20.941 77.772 19.4799 78.397 18.5246 78.6736C17.3235 79.0214 15.6438 79.1655 13.0796 79.1407C11.0402 79.1209 9.04482 79.043 8.64552 78.9673Z" fill="white"/>
<path d="M64.4764 94.3416H61.5723V96.9196H60.6597V91.082H64.947V91.7155H61.5723V93.7122H64.4764V94.3416Z" fill="white"/>
<path d="M69.1052 97C68.4081 97 67.8408 96.8075 67.4035 96.4226C66.9662 96.035 66.7476 95.5178 66.7476 94.871V94.7347C66.7476 94.3043 66.8442 93.9208 67.0375 93.584C67.234 93.2445 67.5065 92.9799 67.8551 92.7901C68.2068 92.5977 68.587 92.5015 68.9958 92.5015C69.6644 92.5015 70.1841 92.6872 70.5548 93.0588C70.9256 93.4303 71.111 93.9622 71.111 94.6545V94.9632H67.6269C67.6395 95.3909 67.7869 95.737 68.069 96.0016C68.3542 96.2636 68.7154 96.3945 69.1527 96.3945C69.4632 96.3945 69.7262 96.3411 69.9418 96.2342C70.1572 96.1272 70.3457 95.9856 70.5073 95.8092L71.0445 96.162C70.6135 96.7206 69.9671 97 69.1052 97ZM68.9958 93.1109C68.6409 93.1109 68.3431 93.2205 68.1022 93.4397C67.8614 93.6562 67.7125 93.9609 67.6554 94.3538H70.2316V94.2977C70.2063 93.9208 70.0859 93.6294 69.8704 93.4236C69.6549 93.2151 69.3634 93.1109 68.9958 93.1109Z" fill="white"/>
<path d="M74.2514 96.9197H73.3721V92.5816H74.2514V96.9197ZM73.3008 91.431C73.3008 91.3107 73.3436 91.2091 73.4291 91.1262C73.5178 91.0434 73.6478 91.002 73.8189 91.002C73.99 91.002 74.1199 91.0434 74.2086 91.1262C74.2974 91.2091 74.3417 91.3107 74.3417 91.431C74.3417 91.5512 74.2974 91.6515 74.2086 91.7316C74.1199 91.8118 73.99 91.8519 73.8189 91.8519C73.6478 91.8519 73.5178 91.8118 73.4291 91.7316C73.3436 91.6515 73.3008 91.5512 73.3008 91.431Z" fill="white"/>
<path d="M79.3125 93.2472C79.1794 93.2285 79.0352 93.2191 78.88 93.2191C78.3033 93.2191 77.9119 93.4263 77.706 93.8406V96.9197H76.8267V92.5817H77.6822L77.6964 93.0828C77.9847 92.6952 78.3935 92.5015 78.9227 92.5015C79.0938 92.5015 79.2237 92.5202 79.3124 92.5576L79.3125 93.2472Z" fill="white"/>
<path d="M84.2736 96.9198C84.2229 96.8342 84.1817 96.6819 84.15 96.4627C83.7413 96.8209 83.2533 97 82.6861 97C82.1791 97 81.7624 96.8797 81.436 96.6391C81.1128 96.3959 80.9512 96.0885 80.9512 95.717C80.9512 95.2652 81.154 94.9151 81.5596 94.6665C81.9683 94.4153 82.5419 94.2896 83.2802 94.2896H84.1358V93.9488C84.1358 93.6896 84.0439 93.4838 83.8601 93.3314C83.6763 93.1764 83.4054 93.0989 83.0473 93.0989C82.7336 93.0989 82.4706 93.1657 82.2583 93.2993C82.046 93.433 81.9398 93.5947 81.9398 93.7845H81.0557C81.0557 93.568 81.146 93.3595 81.3267 93.159C81.5105 92.9559 81.7576 92.7955 82.0682 92.6779C82.3819 92.5603 82.7257 92.5015 83.0996 92.5015C83.6921 92.5015 84.1564 92.6271 84.4923 92.8783C84.8281 93.1269 85.0024 93.4704 85.0151 93.9088V95.9054C85.0151 96.3037 85.0753 96.6204 85.1957 96.8556V96.9198H84.2736ZM82.8144 96.3544C83.0901 96.3544 83.3515 96.2943 83.5987 96.174C83.8458 96.0538 84.0249 95.8974 84.1358 95.7049V94.8149H83.4466C82.3692 94.8149 81.8305 95.0808 81.8305 95.6127C81.8305 95.8453 81.9224 96.027 82.1062 96.158C82.29 96.289 82.5261 96.3544 82.8144 96.3544Z" fill="white"/>
<path d="M90.556 95.7691C90.556 95.5686 90.4657 95.4136 90.2851 95.304C90.1076 95.1917 89.7955 95.0955 89.3488 95.0153C88.9052 94.9351 88.5518 94.8389 88.2888 94.7267C88.029 94.6144 87.8356 94.4807 87.7089 94.3257C87.5853 94.1707 87.5235 93.9863 87.5235 93.7724C87.5235 93.4169 87.701 93.1162 88.0559 92.8703C88.414 92.6244 88.8703 92.5015 89.4248 92.5015C90.0079 92.5015 90.48 92.6284 90.8412 92.8824C91.2056 93.1363 91.3878 93.461 91.3878 93.8566H90.5038C90.5038 93.6535 90.4008 93.4784 90.1948 93.3314C89.992 93.1844 89.7354 93.1109 89.4248 93.1109C89.1048 93.1109 88.8544 93.1697 88.6738 93.2873C88.4931 93.4049 88.4028 93.5586 88.4028 93.7484C88.4028 93.9275 88.4868 94.0624 88.6548 94.1533C88.8227 94.2442 89.1253 94.3311 89.5626 94.4139C90.0031 94.4968 90.3596 94.5957 90.6321 94.7106C90.9046 94.8256 91.1058 94.9645 91.2358 95.1276C91.3688 95.288 91.4354 95.4844 91.4354 95.717C91.4354 96.1045 91.2516 96.4159 90.884 96.6511C90.5164 96.8837 90.0395 97 89.4533 97C89.0414 97 88.677 96.9385 88.3601 96.8155C88.0433 96.6926 87.7945 96.5215 87.6139 96.3023C87.4364 96.0805 87.3477 95.8412 87.3477 95.5846H88.227C88.2427 95.8332 88.36 96.031 88.5788 96.178C88.8006 96.3224 89.0921 96.3945 89.4533 96.3945C89.786 96.3945 90.0522 96.3384 90.2519 96.2262C90.4547 96.1112 90.556 95.9589 90.556 95.7691Z" fill="white"/>
<path d="M99.4616 97C98.7644 97 98.1972 96.8075 97.7599 96.4226C97.3226 96.035 97.104 95.5178 97.104 94.871V94.7347C97.104 94.3043 97.2006 93.9208 97.3939 93.584C97.5904 93.2445 97.8629 92.9799 98.2115 92.7901C98.5632 92.5977 98.9434 92.5015 99.3522 92.5015C100.021 92.5015 100.541 92.6872 100.911 93.0588C101.282 93.4303 101.467 93.9622 101.467 94.6545V94.9632H97.9833C97.9959 95.3909 98.1432 95.737 98.4254 96.0016C98.7105 96.2636 99.0718 96.3945 99.5091 96.3945C99.8197 96.3945 100.083 96.3411 100.298 96.2342C100.514 96.1272 100.702 95.9856 100.864 95.8092L101.401 96.162C100.97 96.7206 100.323 97 99.4616 97ZM99.3522 93.1109C98.9973 93.1109 98.6995 93.2205 98.4586 93.4397C98.2178 93.6562 98.0689 93.9609 98.0118 94.3538H100.588V94.2977C100.563 93.9208 100.442 93.6294 100.227 93.4236C100.011 93.2151 99.7198 93.1109 99.3522 93.1109Z" fill="white"/>
<path d="M111.28 94.2213H108.281V96.2902H111.765V96.9196H107.368V91.082H111.717V91.7155H108.281V93.5919H111.28V94.2213Z" fill="white"/>
<path d="M115.505 95.9133L116.779 92.5815H117.677L115.833 96.9197H115.163L113.299 92.5815H114.198L115.505 95.9133Z" fill="white"/>
<path d="M121.763 97C121.066 97 120.499 96.8075 120.062 96.4226C119.624 96.035 119.406 95.5178 119.406 94.871V94.7347C119.406 94.3043 119.502 93.9208 119.696 93.584C119.892 93.2445 120.165 92.9799 120.513 92.7901C120.865 92.5977 121.245 92.5015 121.654 92.5015C122.323 92.5015 122.842 92.6872 123.213 93.0588C123.584 93.4303 123.769 93.9622 123.769 94.6545V94.9632H120.285C120.298 95.3909 120.445 95.737 120.727 96.0016C121.012 96.2636 121.374 96.3945 121.811 96.3945C122.121 96.3945 122.384 96.3411 122.6 96.2342C122.815 96.1272 123.004 95.9856 123.166 95.8092L123.703 96.162C123.272 96.7206 122.625 97 121.763 97ZM121.654 93.1109C121.299 93.1109 121.001 93.2205 120.76 93.4397C120.52 93.6562 120.371 93.9609 120.314 94.3538H122.89V94.2977C122.864 93.9208 122.744 93.6294 122.529 93.4236C122.313 93.2151 122.022 93.1109 121.654 93.1109Z" fill="white"/>
<path d="M126.786 92.5817L126.814 93.1269C127.207 92.71 127.721 92.5015 128.354 92.5015C129.441 92.5015 129.989 93.0187 129.999 94.0531V96.9198H129.12V94.0491C129.117 93.7363 129.031 93.5051 128.863 93.3555C128.698 93.2058 128.44 93.1309 128.088 93.1309C127.803 93.1309 127.553 93.1951 127.337 93.3234C127.122 93.4517 126.954 93.6201 126.833 93.8286V96.9198H125.954V92.5817H126.786Z" fill="white"/>
<path d="M133.687 91.5312V92.5817H134.647V93.155H133.687V95.8453C133.687 96.019 133.73 96.15 133.815 96.2382C133.901 96.3238 134.046 96.3665 134.252 96.3665C134.354 96.3665 134.493 96.3505 134.671 96.3184V96.9198C134.439 96.9733 134.214 97 133.996 97C133.603 97 133.307 96.8998 133.107 96.6993C132.907 96.4988 132.807 96.2142 132.807 95.8453V93.155H131.871V92.5817H132.807V91.5312H133.687Z" fill="white"/>
<path d="M136.514 94.7106C136.514 94.2856 136.612 93.9034 136.808 93.5639C137.008 93.2245 137.284 92.9625 137.635 92.7781C137.99 92.5937 138.394 92.5015 138.847 92.5015C139.548 92.5015 140.113 92.706 140.544 93.1149C140.978 93.5239 141.195 94.0678 141.195 94.7467V94.7988C141.195 95.2211 141.099 95.6007 140.906 95.9375C140.715 96.2716 140.441 96.5322 140.083 96.7193C139.728 96.9064 139.32 97 138.857 97C138.16 97 137.594 96.7955 137.16 96.3865C136.729 95.9776 136.514 95.4363 136.514 94.7627V94.7106ZM137.398 94.7988C137.398 95.2799 137.529 95.6662 137.792 95.9575C138.058 96.2489 138.413 96.3945 138.857 96.3945C139.304 96.3945 139.659 96.2475 139.922 95.9535C140.185 95.6568 140.316 95.2425 140.316 94.7106C140.316 94.2349 140.182 93.8499 139.912 93.5559C139.646 93.2592 139.291 93.1109 138.847 93.1109C138.413 93.1109 138.063 93.2566 137.797 93.5479C137.531 93.8393 137.398 94.2562 137.398 94.7988Z" fill="white"/>
<path d="M146.461 95.7691C146.461 95.5686 146.371 95.4136 146.19 95.304C146.012 95.1917 145.7 95.0955 145.254 95.0153C144.81 94.9351 144.457 94.8389 144.194 94.7267C143.934 94.6144 143.74 94.4807 143.614 94.3257C143.49 94.1707 143.428 93.9863 143.428 93.7724C143.428 93.4169 143.606 93.1162 143.961 92.8703C144.319 92.6244 144.775 92.5015 145.33 92.5015C145.913 92.5015 146.385 92.6284 146.746 92.8824C147.11 93.1363 147.293 93.461 147.293 93.8566H146.409C146.409 93.6535 146.306 93.4784 146.1 93.3314C145.897 93.1844 145.64 93.1109 145.33 93.1109C145.01 93.1109 144.759 93.1697 144.579 93.2873C144.398 93.4049 144.308 93.5586 144.308 93.7484C144.308 93.9275 144.392 94.0624 144.56 94.1533C144.728 94.2442 145.03 94.3311 145.467 94.4139C145.908 94.4968 146.264 94.5957 146.537 94.7106C146.809 94.8256 147.011 94.9645 147.141 95.1276C147.274 95.288 147.34 95.4844 147.34 95.717C147.34 96.1045 147.156 96.4159 146.789 96.6511C146.421 96.8837 145.944 97 145.358 97C144.946 97 144.582 96.9385 144.265 96.8155C143.948 96.6926 143.699 96.5215 143.519 96.3023C143.341 96.0805 143.252 95.8412 143.252 95.5846H144.132C144.148 95.8332 144.265 96.031 144.484 96.178C144.705 96.3224 144.997 96.3945 145.358 96.3945C145.691 96.3945 145.957 96.3384 146.157 96.2262C146.359 96.1112 146.461 95.9589 146.461 95.7691Z" fill="white"/>
<path d="M112.989 78.9444C112.979 77.6245 112.907 73.5487 112.829 69.8871C112.752 66.2255 112.667 61.1418 112.641 58.59C112.614 55.9721 112.432 53.7853 112.225 53.5717C112.022 53.3635 111.952 53.061 112.069 52.8993C112.186 52.7377 113.87 52.6271 115.811 52.6536C119.339 52.7016 119.339 52.7016 119.641 54.095C119.807 54.8614 119.973 57.5786 120.011 60.1332C120.048 62.6878 119.932 68.5053 119.753 73.061C119.427 81.3441 119.427 81.3441 116.218 81.3441C113.008 81.3441 113.008 81.3441 112.989 78.9444ZM118.453 79.9937C118.453 79.7072 118.133 79.6157 117.455 79.7082C116.656 79.8172 116.565 79.7754 117.001 79.499C117.42 79.2334 117.231 79.2 116.184 79.3544C115.308 79.4836 114.823 79.4363 114.823 79.2217C114.823 79.0383 115.64 78.7958 116.638 78.6829C117.975 78.5315 118.453 78.3447 118.453 77.9726C118.453 77.6949 118.117 77.2887 117.706 77.0699C116.96 76.6722 116.96 76.6722 117.797 76.0932C118.258 75.7747 118.529 75.4235 118.399 75.3128C118.27 75.2021 117.658 75.0993 117.038 75.0842C116.419 75.069 115.912 74.9388 115.912 74.7944C115.912 74.65 116.207 74.5319 116.568 74.5319C116.93 74.5319 117.542 74.3342 117.929 74.0927C118.316 73.8512 118.512 73.5501 118.364 73.4237C118.216 73.2973 117.795 73.4268 117.428 73.708C117.062 73.9908 116.633 74.2222 116.474 74.2222C116.316 74.2222 116.389 74.0132 116.638 73.7577C116.886 73.5023 116.983 73.2933 116.852 73.2933C116.721 73.2933 116.048 73.4951 115.356 73.7419C114.663 73.9887 114.097 74.4024 114.097 74.6612C114.097 74.9371 114.307 75.063 114.605 74.9655C114.884 74.8741 115.213 74.9382 115.336 75.1077C115.459 75.2774 115.221 75.5077 114.808 75.6196C114.395 75.7315 114.12 75.9853 114.196 76.1838C114.273 76.3822 114.731 76.7188 115.215 76.9316C116.093 77.3187 116.093 77.3187 115.277 77.5096C114.588 77.6706 114.46 77.9133 114.46 79.0579C114.46 80.4152 114.46 80.4152 116.456 80.4152C117.899 80.4152 118.453 80.2982 118.453 79.9937ZM115.402 72.6214C116.055 71.9868 116.057 71.9611 115.428 72.157C115.063 72.271 114.613 72.3643 114.43 72.3643C114.247 72.3643 114.097 72.5733 114.097 72.8288C114.097 73.0843 114.235 73.2933 114.404 73.2933C114.572 73.2933 115.022 72.991 115.402 72.6214ZM117.31 72.6437C117.938 72.4568 118.453 72.1781 118.453 72.0245C118.453 71.8708 118.226 71.7451 117.949 71.7451C117.671 71.7451 117.059 72.0191 116.587 72.3541C116.116 72.689 115.829 72.9677 115.948 72.9734C116.068 72.979 116.681 72.8307 117.31 72.6437ZM117.366 70.9699C117.964 70.7063 118.453 70.2573 118.453 69.9722C118.453 69.5689 118.356 69.5363 118.017 69.8253C117.778 70.0297 117.36 70.1969 117.088 70.1969C116.785 70.1969 116.704 70.0482 116.879 69.8098C117.034 69.5969 117.192 69.2513 117.23 69.0419C117.267 68.8324 117.557 68.4392 117.875 68.1682C118.193 67.8972 118.453 67.5461 118.453 67.3879C118.453 67.2298 118.362 67.1004 118.25 67.1004C118.139 67.1004 117.415 67.5335 116.643 68.063C115.812 68.6325 115.318 69.2015 115.433 69.4564C115.549 69.7142 115.392 69.8872 115.043 69.8872C114.722 69.8872 114.46 70.0684 114.46 70.2898C114.46 70.5112 114.656 70.8595 114.895 71.0639C115.234 71.3529 115.234 71.4355 114.895 71.4355C114.656 71.4355 114.46 71.5713 114.46 71.7374C114.46 71.9318 114.784 71.9343 115.37 71.7442C115.87 71.5819 116.769 71.2335 117.366 70.9699ZM115.186 68.6754C115.186 68.5198 115.871 67.9625 116.709 67.4368C117.547 66.9111 118.062 66.4811 117.854 66.4811C117.646 66.4811 116.962 66.6994 116.335 66.9663C115.708 67.2331 115.029 67.364 114.827 67.2571C114.583 67.1286 114.578 66.8708 114.813 66.4958C115.009 66.184 115.908 65.5596 116.811 65.1082C117.714 64.6567 118.453 64.2331 118.453 64.1667C118.453 64.1003 117.473 64.35 116.275 64.7216C114.097 65.3973 114.097 65.3973 114.097 67.1778C114.097 68.5541 114.22 68.9583 114.641 68.9583C114.941 68.9583 115.186 68.831 115.186 68.6754ZM117.891 65.8121C118.4 65.6144 118.816 65.2566 118.816 65.0169C118.816 64.6953 118.507 64.7632 117.636 65.276C116.987 65.6582 116.388 66.016 116.305 66.0711C116.222 66.1263 116.337 66.1714 116.56 66.1714C116.784 66.1714 117.383 66.0097 117.891 65.8121ZM115.776 63.5143C116.549 62.9044 117.142 62.2774 117.092 62.1209C117.042 61.9644 117.308 61.8363 117.682 61.8363C118.057 61.8363 118.555 61.6397 118.789 61.3994C119.097 61.0832 119.103 60.904 118.813 60.7508C118.592 60.6344 117.767 60.9026 116.98 61.347C116.193 61.7913 115.549 62.2181 115.549 62.2955C115.549 62.3729 115.835 62.3595 116.184 62.2658C116.727 62.1203 116.717 62.1669 116.115 62.5851C115.727 62.8545 115.196 63.0749 114.935 63.0749C114.674 63.0749 114.46 62.996 114.46 62.8997C114.46 62.8033 114.625 62.4622 114.826 62.1415C115.027 61.8209 116.089 61.1008 117.185 60.5413C118.357 59.9432 119.179 59.3062 119.179 58.9954C119.179 58.7046 119.037 58.3917 118.863 58.3C118.689 58.2083 118.17 58.4121 117.709 58.7529C117.119 59.1894 116.795 59.2665 116.612 59.0142C116.442 58.7786 115.998 58.7407 115.316 58.9035C114.745 59.0396 114.156 59.1281 114.006 59.1002C113.856 59.0723 113.734 60.3035 113.734 61.8363C113.734 63.369 113.877 64.6231 114.051 64.6231C114.226 64.6231 115.002 64.1242 115.776 63.5143ZM114.524 60.3912C114.589 60.1072 114.872 59.8095 115.153 59.7296C115.5 59.6311 115.593 59.7426 115.444 60.0752C115.282 60.434 115.381 60.5146 115.808 60.3745C116.198 60.2468 116.306 60.3038 116.132 60.5451C115.987 60.7444 115.54 60.9074 115.138 60.9074C114.65 60.9074 114.446 60.7353 114.524 60.3912ZM115.912 59.514C115.912 59.4288 115.994 59.3592 116.093 59.3592C116.193 59.3592 116.275 59.4288 116.275 59.514C116.275 59.5991 116.193 59.6688 116.093 59.6688C115.994 59.6688 115.912 59.5991 115.912 59.514ZM117.818 63.8302C118.569 63.6774 118.816 63.4401 118.816 62.8716C118.816 62.1162 118.816 62.1162 117.182 63.0749C116.284 63.6022 115.549 64.106 115.549 64.1944C115.549 64.2829 115.835 64.2828 116.184 64.1943C116.534 64.1057 117.269 63.9419 117.818 63.8302ZM117.001 58.0047C117.956 57.7615 118.683 57.3774 118.752 57.0805C118.817 56.7984 118.637 56.5723 118.347 56.5723C118.06 56.5723 117.386 56.8669 116.849 57.2269C116.313 57.5869 115.803 57.8213 115.717 57.7477C115.631 57.6741 116.292 57.1734 117.188 56.635C118.215 56.0175 118.816 55.4215 118.816 55.0207C118.816 54.6713 118.59 54.3114 118.314 54.221C118.038 54.1306 117.201 54.2743 116.454 54.5403C115.708 54.8064 114.791 55.0241 114.416 55.0241C113.831 55.0241 113.734 55.2674 113.734 56.7271C113.734 58.2882 113.802 58.4298 114.551 58.4255C115 58.4224 116.102 58.2335 117.001 58.0047ZM114.097 56.6342C114.097 56.498 114.293 56.2193 114.532 56.0149C114.772 55.8106 115.108 55.6434 115.28 55.6434C115.451 55.6434 115.486 55.7899 115.356 55.9689C115.226 56.148 115.726 56.0783 116.468 55.8141C117.209 55.5499 117.877 55.3337 117.953 55.3337C118.028 55.3337 118.089 55.4382 118.089 55.566C118.089 55.6937 117.392 56.042 116.542 56.3401C115.692 56.6381 114.794 56.882 114.547 56.882C114.299 56.882 114.097 56.7705 114.097 56.6342ZM114.603 53.9144C114.738 53.6128 114.657 53.4713 114.392 53.5467C114.155 53.6142 113.896 53.8348 113.817 54.0371C113.738 54.2393 113.833 54.4048 114.028 54.4048C114.223 54.4048 114.481 54.1841 114.603 53.9144ZM116.115 53.9501C116.707 53.5682 116.725 53.4939 116.229 53.4857C115.904 53.4804 115.434 53.6848 115.186 53.9403C114.937 54.1958 114.886 54.4048 115.072 54.4048C115.258 54.4048 115.727 54.2002 116.115 53.9501ZM131.854 81.0561C131.138 80.9368 129.983 80.5386 129.286 80.1713C128.589 79.8039 127.161 78.6983 126.113 77.7144C125.065 76.7304 123.796 75.3332 123.292 74.6095C122.708 73.7687 122.306 72.6263 122.181 71.445C122.072 70.4283 122.177 68.7537 122.416 67.7236C122.654 66.6935 123.181 65.5397 123.588 65.1595C123.994 64.7794 124.685 63.9828 125.122 63.3893C125.558 62.7958 126.564 61.9936 127.357 61.6066C128.15 61.2195 129.675 60.6804 130.746 60.4084C132.163 60.0485 133.33 59.9721 135.034 60.1278C136.883 60.2966 137.626 60.5292 138.566 61.2335C139.757 62.1254 139.757 62.1254 139.982 56.3565C140.105 53.1836 140.354 50.4617 140.534 50.3079C140.715 50.1541 142.016 50.0046 143.426 49.9757C144.836 49.9469 146.1 50.0167 146.233 50.1308C146.367 50.2449 146.605 52.6815 146.762 55.5455C146.919 58.4094 147.006 62.6337 146.955 64.9328C146.904 67.232 146.744 70.9245 146.599 73.1385C146.443 75.5355 146.48 77.6919 146.692 78.4691C146.943 79.3926 146.926 79.9109 146.635 80.2413C146.342 80.5727 145.456 80.7234 143.581 80.7603C142.129 80.7888 140.848 80.7334 140.735 80.6371C140.622 80.5407 139.769 80.6588 138.838 80.8997C137.908 81.1405 136.249 81.323 135.151 81.3053C134.053 81.2876 132.569 81.1754 131.854 81.0561ZM134.788 80.2713C134.788 80.0219 135.129 79.6622 135.545 79.4721C135.961 79.282 136.374 79.1876 136.461 79.2623C136.549 79.337 136.371 79.5743 136.067 79.7897C135.763 80.0052 135.514 80.2804 135.514 80.4014C135.514 80.5223 136.448 80.5131 137.591 80.3809C139.213 80.1931 139.815 79.9673 140.344 79.349C140.715 78.9136 141.233 78.5574 141.494 78.5574C141.755 78.5574 142.076 78.1955 142.206 77.7531C142.372 77.1878 142.869 76.8058 143.879 76.4675C145.153 76.0404 145.315 75.8697 145.315 74.9495C145.315 74.2343 145.146 73.9127 144.77 73.9127C144.471 73.9127 144.226 73.7734 144.226 73.6031C144.226 73.4328 144.471 73.2934 144.77 73.2934C145.115 73.2934 145.315 72.9973 145.315 72.4862C145.315 71.8987 145.168 71.7271 144.775 71.8557C144.463 71.9579 144.271 71.874 144.321 71.6566C144.368 71.4499 144.693 71.0986 145.043 70.8761C145.392 70.6535 145.678 70.35 145.678 70.2015C145.678 70.053 145.437 69.7261 145.143 69.475C144.671 69.0728 144.671 68.9977 145.143 68.8433C145.437 68.7469 145.678 68.4055 145.678 68.0846C145.678 67.5709 145.461 67.5188 143.863 67.6497C142.767 67.7396 142.048 67.6745 142.048 67.4856C142.048 67.3135 141.704 67.0959 141.284 67.0022C140.863 66.9084 140.59 66.6483 140.676 66.4242C140.762 66.2 141.504 65.5986 142.326 65.0877C143.147 64.5768 143.757 63.9933 143.68 63.791C143.603 63.5887 143.88 63.3797 144.295 63.3265C144.71 63.2733 145.293 62.9163 145.59 62.5331C145.898 62.1357 145.966 61.8364 145.75 61.8364C145.541 61.8364 144.885 62.1848 144.292 62.6105C143.699 63.0363 142.87 63.3847 142.449 63.3847C141.936 63.3847 141.685 63.5811 141.685 63.9831C141.685 64.3168 141.352 64.6717 140.932 64.7855C140.517 64.8976 140.068 64.8956 139.934 64.7811C139.799 64.6665 139.975 64.3946 140.324 64.1769C140.673 63.9591 140.959 63.6918 140.959 63.5829C140.959 63.4739 140.627 63.3848 140.222 63.3848C139.816 63.3848 139.39 63.593 139.276 63.8474C139.161 64.1019 138.922 64.2331 138.743 64.1388C138.564 64.0446 138.418 64.1069 138.418 64.2772C138.418 64.4475 138.581 64.6729 138.781 64.7782C138.981 64.8834 139.144 65.1719 139.144 65.4191C139.144 65.6664 139.499 66.5291 139.933 67.3362C140.366 68.1433 140.77 68.8577 140.83 68.9238C140.889 68.9898 141.682 68.8661 142.592 68.6488C143.502 68.4315 144.343 68.336 144.461 68.4367C144.579 68.5373 143.885 68.9397 142.919 69.3309C141.953 69.7221 141.215 70.1816 141.279 70.3519C141.342 70.5222 141.501 70.639 141.63 70.6113C141.76 70.5838 142.52 70.4789 143.318 70.3784C144.77 70.1956 144.77 70.1956 143.318 70.8071C142.52 71.1433 141.735 71.4596 141.575 71.5099C141.415 71.5602 141.138 72.1524 140.96 72.8258C140.782 73.4993 140.705 74.1089 140.789 74.1805C140.873 74.2521 141.219 74.1167 141.558 73.8795C142.107 73.4949 142.152 73.5193 141.975 74.1058C141.812 74.647 141.907 74.7342 142.514 74.5989C143.036 74.4823 143.17 74.546 142.973 74.8181C142.81 75.043 142.342 75.1262 141.843 75.0192C141.225 74.8869 140.663 75.0816 139.795 75.7288C139.137 76.2193 138.05 76.7226 137.379 76.8473C136.708 76.9718 135.74 77.3728 135.229 77.7383C134.718 78.1037 134.002 78.6466 133.637 78.9446C133.272 79.2427 132.81 79.4865 132.61 79.4865C132.41 79.4865 132.247 79.3974 132.247 79.2884C132.247 79.1795 132.533 78.9005 132.882 78.6684C133.344 78.3615 133.369 78.2815 132.973 78.3752C132.673 78.446 131.897 78.5822 131.249 78.6779C130.359 78.809 130.069 78.7395 130.069 78.395C130.069 78.1438 129.833 77.9383 129.546 77.9383C129.258 77.9383 128.912 78.091 128.777 78.2776C128.642 78.4643 128.78 78.8285 129.082 79.087C129.385 79.3455 130.67 79.8099 131.938 80.119C133.206 80.4281 134.366 80.6909 134.516 80.703C134.665 80.7151 134.788 80.5208 134.788 80.2713ZM135.514 78.5939C135.514 78.4236 135.677 78.1982 135.877 78.0929C136.077 77.9877 136.24 78.0409 136.24 78.2112C136.24 78.3815 136.077 78.607 135.877 78.7122C135.677 78.8175 135.514 78.7642 135.514 78.5939ZM137.329 78.5905C137.329 78.4385 137.597 78.2262 137.925 78.1188C138.253 78.0114 138.596 77.9872 138.688 78.065C138.779 78.1429 138.746 78.3551 138.614 78.5368C138.483 78.7184 138.14 78.867 137.852 78.867C137.564 78.867 137.329 78.7426 137.329 78.5905ZM138.936 78.2477C138.936 77.9071 139.047 77.6284 139.182 77.6284C139.317 77.6284 139.53 77.2822 139.655 76.859C139.796 76.3793 140.227 76.0156 140.8 75.8929C141.305 75.7847 141.834 75.8016 141.974 75.9306C142.114 76.0595 142.048 76.2206 141.827 76.2886C141.606 76.3566 141.116 76.6048 140.739 76.8402C140.361 77.0756 140.184 77.38 140.344 77.5167C140.504 77.6535 140.77 77.5794 140.935 77.3522C141.183 77.0095 141.262 77.0111 141.401 77.3612C141.493 77.594 141.101 78.0262 140.528 78.3252C139.957 78.6232 139.365 78.867 139.213 78.867C139.061 78.867 138.936 78.5884 138.936 78.2477ZM141.685 76.8543C141.685 76.7692 141.767 76.6995 141.866 76.6995C141.966 76.6995 142.048 76.7692 142.048 76.8543C142.048 76.9395 141.966 77.0091 141.866 77.0091C141.767 77.0091 141.685 76.9395 141.685 76.8543ZM142.774 75.8123C142.774 75.642 143.113 75.4108 143.527 75.2987C143.942 75.1865 144.377 75.1771 144.495 75.2779C144.613 75.3786 144.642 75.5134 144.559 75.5774C144.475 75.6414 144.04 75.7901 143.591 75.9079C143.121 76.0311 142.774 75.9904 142.774 75.8123ZM143.461 72.9656C143.938 72.6265 144.428 72.4335 144.549 72.5368C144.67 72.6402 144.452 72.9223 144.065 73.1638C143.678 73.4054 143.188 73.5984 142.977 73.5927C142.765 73.5871 142.983 73.3049 143.461 72.9656ZM143.571 79.2736C144.131 78.8159 144.589 78.3413 144.589 78.2188C144.589 78.0963 144.237 78.0746 143.806 78.1707C143.205 78.3048 143.092 78.2444 143.321 77.9094C143.485 77.6697 143.184 77.864 142.652 78.3411C142.12 78.8182 141.685 79.4104 141.685 79.6571C141.685 79.9038 141.88 80.1056 142.119 80.1056C142.357 80.1056 143.011 79.7312 143.571 79.2736ZM145.315 79.3412C145.315 79.0642 145.102 78.9561 144.77 79.0647C144.471 79.1627 144.226 79.3674 144.226 79.5195C144.226 79.6715 144.471 79.796 144.77 79.796C145.07 79.796 145.315 79.5913 145.315 79.3412ZM133.88 77.6182C135.007 77.1424 135.112 77.0406 134.35 77.1643C133.81 77.252 132.952 77.4585 132.444 77.6232C131.936 77.788 131.521 77.9959 131.521 78.0852C131.521 78.1746 131.725 78.2441 131.975 78.2396C132.224 78.2353 133.082 77.9555 133.88 77.6182ZM128.771 77.6658C128.88 77.5161 129.298 77.32 129.701 77.2302C130.143 77.1316 130.343 77.1914 130.205 77.3808C130.06 77.5813 130.29 77.6133 130.84 77.4693C131.314 77.3453 131.947 77.1206 132.247 76.9698C132.587 76.7988 131.944 76.745 130.537 76.8268C129.297 76.8989 128.11 77.0487 127.899 77.1597C127.688 77.2707 127.61 77.4913 127.725 77.6498C127.84 77.8084 128.078 77.9381 128.254 77.9381C128.43 77.9381 128.663 77.8156 128.771 77.6658ZM144.77 77.3188C144.894 77.1485 144.831 77.0091 144.632 77.0091C144.432 77.0091 144.168 77.1485 144.044 77.3188C143.921 77.4891 143.983 77.6284 144.183 77.6284C144.383 77.6284 144.647 77.4891 144.77 77.3188ZM128.193 76.3244C128.419 76.622 128.742 76.6436 129.464 76.4095C129.996 76.2368 130.432 76.0517 130.432 75.9982C130.432 75.9447 130.064 75.8984 129.615 75.8952C129.166 75.8921 128.176 75.8627 127.416 75.83C126.655 75.7973 126.122 75.6481 126.23 75.4986C126.339 75.349 127.042 74.9722 127.794 74.6613C128.779 74.2541 128.984 74.0641 128.527 73.9817C128.178 73.9189 127.635 74.0866 127.321 74.3545C127.007 74.6224 126.445 74.8416 126.071 74.8416C125.698 74.8416 125.305 74.9623 125.198 75.1098C125.092 75.2574 125.286 75.5876 125.631 75.8436C125.975 76.0996 126.502 76.376 126.802 76.4578C127.101 76.5397 127.469 76.4535 127.619 76.266C127.811 76.0255 127.98 76.0427 128.193 76.3244ZM137.836 75.649C138.656 75.3568 139.178 74.893 139.458 74.2094C139.684 73.6547 139.87 72.4327 139.87 71.4939C139.87 70.555 139.591 69.0321 139.25 68.1096C138.855 67.0402 138.206 66.1149 137.46 65.556C136.395 64.7579 136.157 64.7049 134.804 64.9641C133.872 65.1429 132.924 65.6221 132.256 66.252C131.638 66.8354 131.034 67.8771 130.813 68.7413C130.603 69.5586 130.432 70.6303 130.432 71.1228C130.432 71.6153 130.579 72.0958 130.759 72.1907C130.939 72.2855 131.069 72.8696 131.049 73.4887C131.019 74.3847 131.23 74.7636 132.083 75.3457C132.872 75.8843 133.612 76.0775 134.89 76.0787C135.845 76.0787 137.171 75.8862 137.836 75.649ZM130.069 75.0254C130.069 74.7424 129.815 74.6466 129.343 74.7519C128.944 74.8409 128.617 75.0369 128.617 75.1874C128.617 75.3378 128.944 75.4609 129.343 75.4609C129.742 75.4609 130.069 75.2649 130.069 75.0254ZM126.52 73.9336C127.374 73.6046 128.358 73.2606 128.708 73.1693C129.094 73.0682 129.343 72.6961 129.343 72.2193C129.343 71.7882 129.256 71.4355 129.149 71.4355C129.043 71.4355 128.185 71.785 127.244 72.2123C126.302 72.6396 125.205 73.1621 124.805 73.3735C124.406 73.5849 124.022 73.7834 123.952 73.8146C123.882 73.8459 123.933 74.0201 124.064 74.2017C124.196 74.3833 124.453 74.532 124.636 74.532C124.818 74.532 125.666 74.2627 126.52 73.9336ZM126.187 72.0348C127.424 71.513 128.599 70.9485 128.798 70.7804C129.038 70.5791 128.604 70.5383 127.528 70.6609C126.629 70.7633 125.282 71.0018 124.533 71.1908C123.784 71.3799 123.172 71.6402 123.172 71.7693C123.172 71.8984 123.271 72.2245 123.392 72.4939C123.513 72.7633 123.686 72.9837 123.776 72.9837C123.865 72.9837 124.95 72.5567 126.187 72.0348ZM125.462 70.0755C126.731 69.6682 128.169 69.0063 128.659 68.6047C129.148 68.2031 129.829 67.4962 130.172 67.0339C130.514 66.5715 130.795 66.1186 130.795 66.0275C130.795 65.9363 130.591 65.8627 130.341 65.8637C130.092 65.8637 129.452 66.0596 128.919 66.2966C128.386 66.5337 127.243 66.8166 126.378 66.9253C124.88 67.1134 124.848 67.1016 125.702 66.6772C126.195 66.432 127.543 65.9742 128.697 65.6596C129.851 65.3451 130.795 64.992 130.795 64.875C130.795 64.7579 130.182 64.7427 129.434 64.8413C128.685 64.9398 128.006 65.0692 127.924 65.1288C127.843 65.1884 127.562 65.0852 127.299 64.8995C126.945 64.6484 126.5 64.7316 125.566 65.2242C124.725 65.6678 124.105 66.3446 123.689 67.2744C123.347 68.0378 123.183 68.7611 123.324 68.8816C123.465 69.0021 124.793 68.5686 126.274 67.9181C127.755 67.2677 129.174 66.7943 129.426 66.8661C129.708 66.946 129.534 67.1652 128.979 67.4321C128.48 67.6717 127.419 68.0889 126.62 68.3593C125.822 68.6297 125.209 69.0144 125.259 69.2142C125.312 69.4262 124.914 69.5776 124.303 69.5776C123.562 69.5776 123.201 69.7582 123.067 70.1969C122.962 70.5375 122.94 70.8162 123.016 70.8162C123.093 70.8162 124.193 70.4829 125.462 70.0755ZM129.161 69.8872C129.285 69.7169 129.172 69.5873 128.911 69.5993C128.649 69.6114 128.109 69.7409 127.709 69.8872C127.061 70.1248 127.088 70.1557 127.96 70.1751C128.497 70.1872 129.038 70.0575 129.161 69.8872ZM145.95 66.2488C146.05 65.9933 145.69 65.8547 144.891 65.8408C143.691 65.8201 143.688 65.817 144.589 65.4623C145.088 65.2657 145.612 64.9627 145.753 64.7891C145.895 64.6156 145.863 64.3473 145.682 64.193C145.485 64.0254 144.604 64.3983 143.492 65.1194C141.631 66.3262 141.631 66.3263 143.201 66.515C144.064 66.6188 145.002 66.6885 145.285 66.6698C145.568 66.6512 145.867 66.4617 145.95 66.2488ZM133.067 61.7343C133.618 61.5443 134.009 61.2456 133.936 61.0707C133.864 60.8957 133.331 60.7919 132.753 60.84C132.175 60.888 130.695 61.3557 129.465 61.8793C128.234 62.4028 126.773 63.2352 126.218 63.7289C125.21 64.6267 125.21 64.6266 128.638 63.3532C130.523 62.6528 132.516 61.9243 133.067 61.7343ZM136.862 63.9588C137.504 63.8007 138.13 63.5315 138.254 63.3607C138.395 63.1653 138.097 63.1215 137.45 63.2425C136.884 63.3483 135.972 63.5799 135.423 63.757C134.874 63.9341 134.425 64.2164 134.425 64.3842C134.425 64.5529 134.709 64.5903 135.06 64.4679C135.41 64.346 136.22 64.117 136.862 63.9588ZM131.521 63.8491C131.272 63.5936 130.875 63.3846 130.638 63.3846C130.401 63.3846 129.891 63.5892 129.503 63.8392C128.848 64.2616 128.911 64.2945 130.386 64.3037C131.756 64.3121 131.911 64.2501 131.521 63.8491ZM136.331 62.6029C137.279 62.3112 138.055 61.9498 138.055 61.7996C138.055 61.6495 137.898 61.5267 137.706 61.5267C137.513 61.5267 136.411 61.8347 135.255 62.2111C134.1 62.5876 133.045 62.9011 132.912 62.9079C132.779 62.9147 132.534 63.0413 132.368 63.1895C132.197 63.3413 132.62 63.3878 133.336 63.296C134.035 63.2064 135.382 62.8945 136.331 62.6029ZM142.048 62.2033C142.048 62.0646 142.579 61.7365 143.228 61.4744C143.876 61.2122 144.693 61.0348 145.043 61.08C145.5 61.1392 145.678 60.9513 145.678 60.4103C145.678 59.6584 145.678 59.6584 143.827 60.4585C142.809 60.8986 141.895 61.1899 141.797 61.1059C141.698 61.0218 142.163 60.7113 142.831 60.4158C143.498 60.1204 143.865 59.8268 143.646 59.7635C143.426 59.7002 142.83 59.7836 142.321 59.9488C141.567 60.1933 141.394 60.4547 141.394 61.3524C141.394 61.9592 141.541 62.4557 141.721 62.4557C141.901 62.4557 142.048 62.3421 142.048 62.2033ZM143.742 61.9395C143.609 61.826 143.391 61.826 143.258 61.9395C143.125 62.0531 143.234 62.146 143.5 62.146C143.766 62.146 143.875 62.0531 143.742 61.9395ZM144.419 58.9105C145.678 58.4618 145.678 58.4618 145.651 56.3559C145.636 55.1976 145.514 53.6926 145.379 53.0114C145.133 51.7728 145.133 51.7728 143.918 52.7809C142.774 53.7293 142.752 53.7844 143.555 53.7099C144.112 53.6581 144.407 53.7916 144.407 54.0951C144.407 54.3966 144.112 54.5324 143.567 54.4822C143.104 54.4396 142.41 54.5491 142.024 54.7253C141.638 54.9016 141.322 55.1963 141.322 55.3802C141.322 55.5748 141.696 55.5055 142.217 55.2145C142.709 54.9394 143.208 54.7144 143.327 54.7144C143.446 54.7144 143.442 54.8538 143.318 55.0241C143.195 55.1944 143.444 55.3337 143.872 55.3337C144.331 55.3337 144.588 55.492 144.5 55.7208C144.418 55.9337 143.792 56.4392 143.109 56.8442C142.033 57.4817 141.988 57.5547 142.774 57.3885C143.273 57.2829 144.049 57.1094 144.498 57.0031C144.988 56.887 145.315 56.9462 145.315 57.1511C145.315 57.3389 144.661 57.8613 143.863 58.3121C143.064 58.7629 142.411 59.183 142.411 59.2455C142.411 59.308 142.579 59.3592 142.785 59.3592C142.992 59.3592 143.727 59.1572 144.419 58.9105ZM142.957 58.1189C143.079 57.9495 143.078 57.8109 142.953 57.8109C142.828 57.8109 142.41 57.9551 142.024 58.1315C141.638 58.3077 141.322 58.5913 141.322 58.7617C141.322 58.9638 141.567 58.9594 142.028 58.749C142.416 58.5717 142.834 58.2883 142.957 58.1189ZM143.017 56.0572C142.939 55.9904 142.434 56.0786 141.895 56.2534C141.356 56.4282 141.015 56.7092 141.137 56.8779C141.274 57.0662 141.707 56.9904 142.26 56.6817C142.755 56.4051 143.095 56.1241 143.017 56.0572ZM141.978 53.4346C142.346 53.0223 142.327 52.8954 141.876 52.7476C141.466 52.6134 141.322 52.7783 141.322 53.3823C141.322 53.8311 141.368 54.1403 141.425 54.0693C141.481 53.9984 141.73 53.7127 141.978 53.4346ZM143.681 52.2372C143.805 52.0669 143.824 51.9276 143.724 51.9276C143.624 51.9276 143.442 52.0669 143.318 52.2372C143.195 52.4075 143.176 52.5469 143.276 52.5469C143.375 52.5469 143.558 52.4075 143.681 52.2372ZM142.411 50.9175C142.411 50.8486 142.166 50.7922 141.866 50.7922C141.567 50.7922 141.322 51.0576 141.322 51.382C141.322 51.9063 141.382 51.9202 141.866 51.5073C142.166 51.2519 142.411 50.9865 142.411 50.9175ZM144.77 50.9986C144.894 50.8283 144.831 50.689 144.632 50.689C144.432 50.689 144.168 50.8283 144.044 50.9986C143.921 51.1689 143.983 51.3083 144.183 51.3083C144.383 51.3083 144.647 51.1689 144.77 50.9986ZM159.005 80.7263C158.05 80.5817 156.693 80.1739 155.99 79.8201C155.287 79.4662 154.503 79.1767 154.248 79.1767C153.993 79.1767 153.209 78.7238 152.504 78.1703C151.531 77.4055 150.983 76.5328 150.22 74.5339C149.364 72.2899 149.248 71.5826 149.433 69.7156C149.565 68.3878 150.022 66.8042 150.596 65.6882C151.117 64.6767 152.061 63.3836 152.694 62.8146C153.327 62.2458 154.744 61.3908 155.842 60.9147C156.94 60.4386 158.474 59.8996 159.251 59.7169C160.262 59.4794 161.193 59.4808 162.518 59.7218C163.538 59.9073 165.265 60.3949 166.357 60.8054C167.448 61.2159 168.649 61.7899 169.027 62.0811C169.404 62.3722 170.043 63.1611 170.445 63.834C170.93 64.6436 171.235 65.9011 171.348 67.5498C171.471 69.3512 171.383 70.1888 171.031 70.5719C170.73 70.8989 169.64 71.218 168.184 71.4054C166.886 71.5724 164.273 71.8038 162.376 71.9196C160.479 72.0354 158.519 72.1685 158.02 72.2154C157.474 72.2666 157.158 72.4676 157.228 72.7195C157.291 72.9499 157.572 73.4403 157.852 73.8092C158.131 74.1782 159.304 74.7841 160.459 75.1558C162.13 75.6939 163.089 75.8035 165.167 75.6939C166.793 75.6081 168.139 75.3542 168.736 75.0205C169.263 74.7259 169.926 74.5607 170.21 74.6535C170.587 74.7769 170.725 75.403 170.725 76.9863C170.725 79.1505 170.725 79.1505 169.001 80.0151C167.493 80.7712 166.866 80.8866 164.009 80.9344C162.212 80.9644 159.961 80.8709 159.005 80.7263ZM166.288 79.6236C166.732 79.3585 167.095 79.0007 167.095 78.8286C167.095 78.6565 166.768 78.6041 166.369 78.7122C165.97 78.8203 165.643 78.8541 165.643 78.7872C165.643 78.7204 166.538 78.1188 167.632 77.4503C168.725 76.7819 169.624 76.1305 169.628 76.0028C169.632 75.8751 169.513 75.7727 169.364 75.7754C169.214 75.7785 168.165 75.9662 167.032 76.1936C165.9 76.4209 164.708 76.8337 164.383 77.1109C164.058 77.388 163.516 77.7467 163.178 77.908C162.84 78.0693 162.67 78.2918 162.799 78.4025C162.929 78.5132 163.707 78.2246 164.528 77.7612C165.349 77.2977 166.108 76.993 166.215 77.084C166.321 77.175 165.675 77.7624 164.778 78.3892C163.52 79.2684 162.997 79.4645 162.489 79.2469C162.012 79.042 161.657 79.121 161.196 79.5352C160.582 80.0865 160.643 80.1056 163.021 80.1056C164.66 80.1056 165.751 79.9448 166.288 79.6236ZM164.917 79.3315C164.917 79.2464 164.999 79.1767 165.098 79.1767C165.198 79.1767 165.28 79.2464 165.28 79.3315C165.28 79.4167 165.198 79.4863 165.098 79.4863C164.999 79.4863 164.917 79.4167 164.917 79.3315ZM159.987 79.608C160.302 79.5047 160.561 79.2907 160.561 79.1327C160.561 78.9673 160.263 78.9814 159.859 79.1658C159.473 79.3421 159.064 79.4863 158.951 79.4863C158.838 79.4863 158.746 79.2088 158.746 78.8697C158.746 78.5305 159.073 78.0789 159.472 77.8662C159.871 77.6535 160.198 77.3687 160.198 77.2334C160.198 77.0981 159.892 77.1268 159.519 77.2973C159.145 77.4678 158.164 77.7368 157.339 77.895C156.39 78.0769 155.758 78.0732 155.622 77.8851C155.503 77.7213 155.708 77.399 156.077 77.1688C156.65 76.8114 156.495 76.7998 155.011 77.0894C153.544 77.3759 153.351 77.4941 153.769 77.851C154.041 78.0833 155.232 78.6127 156.414 79.0274C157.597 79.4421 158.755 79.7847 158.988 79.7887C159.222 79.7928 159.671 79.7114 159.987 79.608ZM169.048 78.3689C169.623 77.779 170.003 77.2189 169.892 77.1244C169.781 77.0299 169.378 77.0372 168.996 77.1405C168.615 77.2439 168.127 77.814 167.914 78.4074C167.7 79.0008 167.633 79.4762 167.764 79.4639C167.895 79.4516 168.473 78.9589 169.048 78.3689ZM169.817 78.867C169.941 78.6967 169.869 78.5574 169.657 78.5574C169.446 78.5574 169.273 78.6967 169.273 78.867C169.273 79.0373 169.345 79.1767 169.433 79.1767C169.521 79.1767 169.694 79.0373 169.817 78.867ZM162.104 77.4856C162.852 77.1605 163.465 76.7809 163.465 76.6421C163.465 76.5034 163.375 76.3898 163.265 76.3898C163.156 76.3898 162.613 76.5897 162.059 76.8339C161.505 77.0781 160.819 77.5188 160.534 77.8132C160.25 78.1076 160.18 78.2873 160.379 78.2126C160.579 78.1379 161.355 77.8107 162.104 77.4856ZM155.57 76.5007C155.919 76.4167 156.205 76.1485 156.205 75.9045C156.205 75.5732 155.699 75.4609 154.208 75.4609C153.11 75.4609 152.212 75.3249 152.212 75.1586C152.212 74.9924 152.824 74.5751 153.573 74.2314C154.934 73.6064 154.934 73.6063 153.301 73.6821C151.667 73.7578 151.667 73.7578 151.708 74.9134C151.731 75.5489 151.961 76.2867 152.22 76.5528C152.55 76.8927 153.024 76.9796 153.812 76.845C154.429 76.7395 155.22 76.5846 155.57 76.5007ZM159.998 76.355C160.21 76.1865 160.131 76.0802 159.795 76.0802C159.494 76.0802 158.931 76.2964 158.543 76.5607C157.866 77.0225 157.874 77.0332 158.746 76.8356C159.245 76.7224 159.809 76.5062 159.998 76.355ZM158.02 75.9254C158.519 75.682 158.764 75.4798 158.564 75.4761C158.365 75.4724 157.834 75.5533 157.385 75.6561C156.935 75.7587 156.568 75.9659 156.568 76.1163C156.568 76.2668 156.69 76.3849 156.84 76.3789C156.99 76.373 157.521 76.1688 158.02 75.9254ZM156.931 74.5502C156.931 74.39 156.776 74.1774 156.588 74.0779C156.399 73.9784 155.705 74.0981 155.045 74.3441C153.845 74.7911 153.845 74.7911 155.388 74.8163C156.237 74.8303 156.931 74.7105 156.931 74.5502ZM153.271 72.4757C153.354 72.4145 152.905 72.3644 152.272 72.3644C151.64 72.3644 151.123 72.5064 151.123 72.6799C151.123 72.8673 151.528 72.9125 152.121 72.7912C152.67 72.6788 153.187 72.5368 153.271 72.4757ZM155.842 72.5192C155.842 72.2638 155.71 72.0548 155.548 72.0548C155.387 72.0548 154.938 72.2593 154.55 72.5094C153.875 72.9448 153.887 72.9644 154.844 72.9739C155.494 72.9804 155.842 72.8219 155.842 72.5192ZM155.989 70.971C156.724 70.5452 157.523 70.1959 157.764 70.1948C158.004 70.1948 158.691 69.9051 159.29 69.5536C160.379 68.9144 160.379 68.9145 159.2 69.1158C158.528 69.2304 158.02 69.1899 158.02 69.0216C158.02 68.859 158.508 68.6427 159.105 68.5409C159.702 68.4391 160.437 68.4366 160.738 68.5353C161.083 68.6482 161.287 68.5355 161.287 68.2318C161.287 67.8168 160.813 67.7723 157.929 67.9163C156.082 68.0085 154.408 68.229 154.208 68.4063C153.959 68.6281 154.157 68.666 154.844 68.5279C155.591 68.3777 155.842 68.4431 155.842 68.7878C155.842 69.0553 156.055 69.1788 156.35 69.0823C156.629 68.9908 156.972 69.0742 157.112 69.2676C157.262 69.4739 157.066 69.6865 156.638 69.7819C156.237 69.8713 155.827 70.2103 155.728 70.5351C155.622 70.879 155.229 71.1258 154.787 71.1258C154.369 71.1258 154.027 71.2652 154.027 71.4355C154.027 71.6058 154.167 71.7451 154.339 71.7451C154.511 71.7451 155.253 71.3968 155.989 70.971ZM154.217 70.0569C154.967 69.623 155.349 69.2679 155.066 69.2679C154.783 69.2679 154.229 69.4538 153.835 69.6809C153.442 69.9081 152.839 70.1807 152.496 70.2867C152.153 70.3927 151.775 70.3459 151.657 70.1827C151.539 70.0195 151.883 69.7431 152.422 69.5683C152.961 69.3936 153.323 69.1839 153.228 69.1023C153.132 69.0207 152.548 69.0402 151.93 69.1457C151.312 69.2511 150.719 69.5308 150.613 69.7671C150.507 70.0035 150.52 70.4193 150.642 70.6911C150.8 71.0423 151.152 71.1362 151.859 71.0156C152.407 70.9223 153.468 70.4908 154.217 70.0569ZM161.741 70.9207C161.491 70.8348 161.287 70.6479 161.287 70.5053C161.287 70.3627 161.818 70.1417 162.467 70.0141C163.602 69.791 163.612 69.775 162.75 69.5908C161.854 69.3993 161.854 69.3993 162.931 69.0562C163.524 68.8674 164.581 68.5613 165.28 68.3759C166.532 68.0438 166.525 68.041 164.842 68.1811C163.902 68.2594 163.035 68.1876 162.915 68.0215C162.794 67.8555 162.535 67.7197 162.339 67.7197C162.142 67.7197 162.029 67.9558 162.088 68.2444C162.148 68.5405 161.836 68.9251 161.371 69.1272C160.918 69.3242 160.428 69.5979 160.282 69.7356C160.136 69.8733 160.311 69.8956 160.67 69.7853C161.03 69.6749 161.237 69.7053 161.13 69.8527C161.024 70.0001 160.198 70.2792 159.296 70.4729C158.395 70.6666 157.657 70.8927 157.657 70.9755C157.657 71.0582 158.678 71.1148 159.926 71.1013C161.173 71.088 161.99 71.0066 161.741 70.9207ZM166.55 70.645C167.349 70.551 168.533 70.4054 169.182 70.3215C169.831 70.2375 170.362 70.0565 170.362 69.9192C170.362 69.7819 169.275 69.7121 167.947 69.764C166.618 69.8159 165.36 70.0042 165.152 70.1825C164.943 70.3607 164.192 70.5163 163.483 70.5283C162.421 70.5462 162.322 70.5982 162.92 70.8235C163.32 70.974 163.973 71.0338 164.372 70.9564C164.772 70.8791 165.752 70.7389 166.55 70.645ZM166.271 69.0808C166.15 68.9779 165.837 68.9669 165.575 69.0564C165.285 69.1552 165.371 69.2286 165.794 69.2434C166.177 69.2568 166.391 69.1837 166.271 69.0808ZM169.999 68.9583C169.999 68.788 169.927 68.6486 169.839 68.6486C169.751 68.6486 169.578 68.788 169.454 68.9583C169.331 69.1286 169.403 69.2679 169.614 69.2679C169.826 69.2679 169.999 69.1286 169.999 68.9583ZM170.18 67.4316C170.18 67.1926 169.953 66.9326 169.676 66.8538C169.347 66.7603 169.269 66.8442 169.45 67.0948C169.608 67.3131 169.513 67.6053 169.229 67.7709C168.849 67.9923 168.903 68.0389 169.454 67.9643C169.854 67.9102 170.18 67.6705 170.18 67.4316ZM155.359 67.3055C155.46 67.2193 155.488 66.9415 155.42 66.688C155.32 66.3105 155.002 66.3646 153.664 66.9876C152.03 67.748 152.03 67.748 153.603 67.605C154.468 67.5264 155.258 67.3916 155.359 67.3055ZM168.812 67.2229C168.691 67.12 168.378 67.109 168.116 67.1985C167.826 67.2973 167.912 67.3707 168.335 67.3856C168.718 67.3989 168.932 67.3258 168.812 67.2229ZM152.938 66.6473C153.708 66.2813 153.754 66.1859 153.238 66.0152C152.905 65.9046 152.292 65.9691 151.877 66.1585C151.462 66.3479 151.123 66.6373 151.123 66.8016C151.123 66.9659 151.327 67.0954 151.577 67.0894C151.826 67.0835 152.439 66.8844 152.938 66.6473ZM164.191 66.2587C164.191 65.8605 163.802 65.3492 163.276 65.0552C162.622 64.6898 161.886 64.5897 160.694 64.7044C159.776 64.7925 158.595 65.1387 158.069 65.4735C157.543 65.8083 157.067 66.2777 157.012 66.5166C156.931 66.8661 157.622 66.9509 160.551 66.9509C164.077 66.9509 164.191 66.9292 164.191 66.2587ZM169.581 66.207C169.85 66.0615 170.013 65.6953 169.944 65.3934C169.874 65.0914 169.557 64.7044 169.238 64.5334C168.889 64.3456 168.241 64.3256 167.605 64.4829C166.55 64.7435 166.55 64.7435 167.549 64.8587C168.098 64.9221 168.547 65.0788 168.547 65.2069C168.547 65.335 168.016 65.6652 167.367 65.9406C166.187 66.4415 166.187 66.4415 167.639 66.4565C168.438 66.4649 169.312 66.3525 169.581 66.207ZM166.271 65.6747C166.15 65.5718 165.837 65.5608 165.575 65.6502C165.285 65.7491 165.371 65.8224 165.794 65.8373C166.177 65.8506 166.391 65.7775 166.271 65.6747ZM156.652 64.9675C157.032 64.6297 156.89 64.5978 155.842 64.7856C155.143 64.9107 154.245 65.1257 153.845 65.2631C153.336 65.4385 153.578 65.4927 154.656 65.445C155.501 65.4076 156.399 65.1927 156.652 64.9675ZM153.492 64.3733C153.38 64.278 153.087 64.3731 152.841 64.5847C152.485 64.8906 152.527 64.9261 153.044 64.7581C153.402 64.6418 153.604 64.4687 153.492 64.3733ZM166.471 64.3309C166.627 64.2085 166.259 64.1703 165.654 64.2461C165.049 64.3218 164.554 64.5167 164.554 64.6792C164.554 64.8416 164.921 64.8798 165.371 64.7641C165.82 64.6483 166.315 64.4534 166.471 64.3309ZM158.02 63.8491C158.268 63.5936 158.754 63.3846 159.099 63.3846C159.444 63.3846 160.241 63.2316 160.87 63.0447C161.498 62.8577 162.013 62.5938 162.013 62.4583C162.013 62.3227 161.319 62.3406 160.47 62.4979C159.622 62.6552 158.111 62.9372 157.112 63.1245C156.114 63.3118 155.134 63.5506 154.934 63.6551C154.735 63.7595 155.143 63.9321 155.842 64.0385C156.541 64.1449 157.215 64.2503 157.34 64.2728C157.465 64.2951 157.771 64.1045 158.02 63.8491ZM159.472 64.1587C159.472 64.0736 159.39 64.0039 159.29 64.0039C159.191 64.0039 159.109 64.0736 159.109 64.1587C159.109 64.2439 159.191 64.3135 159.29 64.3135C159.39 64.3135 159.472 64.2439 159.472 64.1587ZM163.646 63.6942C164.217 63.4852 164.061 63.4245 162.92 63.4111C161.855 63.3987 161.613 63.4741 162.013 63.6942C162.312 63.8593 162.639 63.9867 162.739 63.9774C162.839 63.9681 163.247 63.8406 163.646 63.6942ZM168.475 63.2398C168.585 63.1456 168.361 62.8562 167.976 62.5967C167.591 62.3371 166.908 61.9935 166.458 61.8329C165.916 61.6395 165.334 61.6598 164.734 61.8932C164.236 62.0869 163.828 62.358 163.828 62.4956C163.828 62.6333 164.032 62.6926 164.282 62.6275C164.531 62.5625 165.266 62.431 165.915 62.3353C166.805 62.2042 167.095 62.2737 167.095 62.6182C167.095 62.8694 166.859 63.0749 166.572 63.0749C166.284 63.0749 165.932 63.236 165.789 63.4329C165.602 63.6912 165.912 63.738 166.902 63.601C167.656 63.4965 168.364 63.334 168.475 63.2398ZM156.445 62.5694C157.112 62.332 157.657 62.0699 157.657 61.987C157.657 61.9041 157.208 61.8414 156.659 61.8475C156.11 61.8537 155.17 62.2134 154.571 62.6471C153.556 63.382 153.542 63.4209 154.358 63.2184C154.84 63.0989 155.779 62.8069 156.445 62.5694ZM163.127 61.6422C163.905 61.5361 164.452 61.3274 164.344 61.1784C164.236 61.0293 163.835 60.9074 163.452 60.9074C163.07 60.9074 162.222 61.2009 161.568 61.5596C160.914 61.9184 160.68 62.1271 161.046 62.0234C161.413 61.9198 162.349 61.7482 163.127 61.6422ZM187.521 80.5228C185.259 80.0656 185.259 80.0656 184.135 78.0554C183.516 76.9498 182.919 75.2916 182.808 74.3707C182.68 73.3157 182.78 72.335 183.079 71.7195C183.34 71.1823 184.604 70.0033 185.889 69.0995C187.481 67.9792 188.78 67.3425 189.972 67.0986C190.934 66.9019 192.51 66.7803 193.474 66.8285C195.227 66.9161 195.227 66.9161 195.13 65.6979C195.077 65.0279 194.785 64.2681 194.481 64.0095C194.11 63.6932 193.251 63.5458 191.856 63.5589C190.387 63.5729 189.19 63.8211 187.751 64.4105C186.633 64.8681 185.631 65.2425 185.523 65.2425C185.415 65.2425 185.221 64.5806 185.091 63.7717C184.961 62.9627 184.767 61.9218 184.66 61.4585C184.498 60.7564 184.66 60.5147 185.641 60.0067C186.287 59.6715 187.892 59.2332 189.208 59.0326C191.224 58.7252 192.074 58.7504 194.618 59.1931C196.279 59.482 198.195 59.9173 198.878 60.1606C199.757 60.474 200.372 61.0304 200.987 62.0711C201.465 62.8786 202.149 64.5716 202.507 65.8331C203.049 67.744 203.09 68.403 202.751 69.7825C202.397 71.2196 202.445 71.7346 203.113 73.6818C203.537 74.9158 204.024 76.0844 204.195 76.2788C204.367 76.4731 205.233 76.725 206.121 76.8386C207.008 76.952 207.822 77.1667 207.93 77.3155C208.038 77.4643 208.019 78.362 207.888 79.3103C207.651 81.0346 207.651 81.0346 204.505 81.0346C201.595 81.0346 201.251 80.9665 199.907 80.1231C198.454 79.2117 198.454 79.2117 196.336 80.1231C194.641 80.8522 193.774 81.0291 192 81.0072C190.78 80.9921 188.765 80.7742 187.521 80.5228ZM192.044 78.8851C192.855 78.0086 192.855 78.0086 191.746 77.617C190.753 77.266 190.557 77.2945 189.857 77.8914C189.076 78.5574 189.076 78.5574 189.956 78.5574C190.64 78.5574 190.738 78.64 190.399 78.929C190.16 79.1333 189.964 79.412 189.964 79.5483C189.964 79.6845 190.25 79.7883 190.599 79.7789C190.948 79.7696 191.599 79.3672 192.044 78.8851ZM195.476 79.514C195.938 79.3589 196.957 78.7097 197.74 78.0713C199.163 76.9105 199.163 76.9105 198.012 77.1069C197.135 77.2565 196.861 77.1944 196.861 76.8466C196.861 76.5954 196.628 76.3898 196.344 76.3898C196.06 76.3898 195.318 76.7555 194.695 77.2025C194.073 77.6495 193.639 78.0798 193.731 78.1587C193.824 78.2377 194.401 77.9864 195.013 77.6003C195.625 77.2142 196.219 76.9773 196.332 77.0739C196.445 77.1705 195.834 77.7342 194.975 78.3265C194.116 78.9188 193.167 79.4808 192.868 79.5753C192.568 79.6698 192.843 79.7581 193.479 79.7715C194.115 79.7848 195.014 79.6691 195.476 79.514ZM203.758 78.2127C203.758 77.9883 203.471 78.0632 203.032 78.4026C202.632 78.7108 202.306 79.1767 202.306 79.4379C202.306 79.8013 202.476 79.7568 203.032 79.248C203.431 78.8824 203.758 78.4165 203.758 78.2127ZM206.522 79.3496C206.633 79.1041 206.668 78.6575 206.6 78.3572C206.495 77.893 206.287 77.9585 205.208 78.7945C203.939 79.7778 203.939 79.7778 205.13 79.7869C205.841 79.7922 206.403 79.6158 206.522 79.3496ZM188.986 77.9655C189.347 77.4395 189.469 77.0091 189.258 77.0091C189.047 77.0091 188.875 76.7305 188.875 76.3898C188.875 76.0492 188.737 75.7706 188.568 75.7706C188.399 75.7706 187.966 76.0492 187.604 76.3898C186.969 76.9885 186.97 77.0094 187.639 77.0175C188.194 77.0243 188.086 77.1989 187.091 77.9025C185.938 78.7182 185.899 78.8021 186.537 79.1066C186.926 79.2924 187.462 79.3232 187.776 79.1778C188.081 79.037 188.625 78.4915 188.986 77.9655ZM201.217 79.1767C201.217 79.0064 201.145 78.867 201.057 78.867C200.969 78.867 200.796 79.0064 200.672 79.1767C200.549 79.347 200.621 79.4863 200.832 79.4863C201.044 79.4863 201.217 79.347 201.217 79.1767ZM199.946 78.2477C200.07 78.0774 199.998 77.9381 199.786 77.9381C199.575 77.9381 199.402 78.0774 199.402 78.2477C199.402 78.4181 199.474 78.5574 199.562 78.5574C199.65 78.5574 199.823 78.4181 199.946 78.2477ZM205.391 77.9381C205.515 77.7678 205.452 77.6284 205.253 77.6284C205.053 77.6284 204.789 77.7678 204.665 77.9381C204.542 78.1084 204.604 78.2477 204.804 78.2477C205.004 78.2477 205.268 78.1084 205.391 77.9381ZM202.47 77.5787C202.979 77.3811 203.395 77.1024 203.395 76.9594C203.395 76.8165 203.251 76.6995 203.076 76.6995C202.9 76.6995 202.56 76.2936 202.319 75.7975C202.078 75.3014 201.522 74.8187 201.084 74.7249C200.646 74.6311 199.884 74.6391 199.391 74.7425C198.898 74.8461 198.29 75.0672 198.041 75.2337C197.791 75.4003 197.587 75.7285 197.587 75.9631C197.587 76.1978 197.727 76.3897 197.899 76.3897C198.071 76.3897 198.768 76.0676 199.448 75.6739C200.617 74.9973 200.72 74.9871 201.338 75.4872C201.965 75.9953 201.958 76.0358 201.16 76.5126C200.442 76.9418 200.419 77.009 200.993 77.009C201.435 77.009 201.587 77.1649 201.449 77.4735C201.334 77.729 201.308 77.938 201.393 77.938C201.477 77.938 201.962 77.7764 202.47 77.5787ZM187.18 75.9604C188.081 75.2133 189.142 74.0637 189.537 73.4058C189.933 72.7479 190.669 71.8812 191.173 71.4799C191.677 71.0786 192.011 70.5767 191.916 70.3645C191.82 70.1524 192.173 69.7381 192.7 69.4438C193.226 69.1495 193.574 68.8386 193.474 68.7528C193.373 68.667 192.42 69.0872 191.355 69.6867C190.29 70.2862 189.011 71.0611 188.512 71.4088C188.013 71.7565 187.733 72.0441 187.889 72.0478C188.046 72.0516 188.582 71.8269 189.08 71.5483C189.579 71.2698 190.097 71.1366 190.233 71.2524C190.369 71.3681 189.996 71.8 189.405 72.2122C188.814 72.6243 188.146 72.9664 187.921 72.9726C187.696 72.9788 187.308 73.1927 187.06 73.4482C186.691 73.8273 186.712 73.9127 187.175 73.9127C187.488 73.9127 187.844 73.7733 187.967 73.603C188.091 73.4327 188.345 73.2934 188.533 73.2934C188.721 73.2934 188.875 73.4248 188.875 73.5855C188.875 73.7462 188.386 74.1241 187.788 74.4255C187.19 74.7268 186.74 75.1288 186.789 75.3189C186.838 75.5089 186.388 76.0323 185.789 76.4818C185.19 76.9314 184.89 77.3036 185.121 77.309C185.352 77.3143 186.279 76.7075 187.18 75.9604ZM194.561 76.0608C195.119 75.8799 195.699 75.5663 195.85 75.3641C196 75.1619 196.126 74.1426 196.129 73.099C196.133 71.8193 195.964 71.081 195.611 70.831C195.199 70.5393 194.803 70.5759 193.747 71.003C192.943 71.3286 191.991 72.1052 191.367 72.9446C190.795 73.714 190.327 74.5344 190.327 74.7677C190.327 75.0011 190.496 75.4615 190.703 75.7909C190.961 76.2028 191.464 76.3898 192.312 76.3898C192.991 76.3898 194.003 76.2418 194.561 76.0608ZM185.452 75.4961C185.452 75.1473 185.264 74.9735 184.986 75.0647C184.729 75.1487 184.519 75.3303 184.519 75.4682C184.519 75.6061 184.723 75.7892 184.973 75.8751C185.222 75.961 185.432 76.0423 185.439 76.0557C185.447 76.069 185.452 75.8173 185.452 75.4961ZM186.334 75.6157C186.334 75.5306 186.252 75.4609 186.152 75.4609C186.052 75.4609 185.971 75.5306 185.971 75.6157C185.971 75.7009 186.052 75.7706 186.152 75.7706C186.252 75.7706 186.334 75.7009 186.334 75.6157ZM185.245 73.5847C185.245 73.2341 185.081 73.0333 184.882 73.1385C184.682 73.2438 184.519 73.5307 184.519 73.7761C184.519 74.0215 184.682 74.2223 184.882 74.2223C185.081 74.2223 185.245 73.9354 185.245 73.5847ZM199.372 73.7194C199.455 73.6554 199.448 73.5388 199.356 73.4604C199.264 73.3821 198.828 73.3983 198.388 73.4966C197.947 73.5948 197.587 73.8077 197.587 73.9696C197.587 74.1319 197.953 74.1679 198.403 74.0499C198.853 73.9321 199.288 73.7833 199.372 73.7194ZM201.217 73.603C201.217 73.4327 201.145 73.2934 201.057 73.2934C200.969 73.2934 200.796 73.4327 200.672 73.603C200.549 73.7733 200.621 73.9127 200.832 73.9127C201.044 73.9127 201.217 73.7733 201.217 73.603ZM199.706 70.9723C199.594 70.8769 199.071 70.9386 198.545 71.1095C197.829 71.3414 197.587 71.6362 197.587 72.2734C197.587 73.1266 197.587 73.1266 198.748 72.1361C199.387 71.5914 199.818 71.0676 199.706 70.9723ZM200.854 71.889C200.854 71.6396 200.749 71.4355 200.622 71.4355C200.494 71.4355 200.172 71.6793 199.907 71.9774C199.642 72.2754 199.42 72.6286 199.413 72.7624C199.407 72.8961 199.728 72.8564 200.128 72.6741C200.527 72.4918 200.854 72.1385 200.854 71.889ZM186.899 71.6648C187.486 71.28 188.539 70.4916 189.238 69.9128C190.508 68.8604 190.508 68.8604 189.419 69.0857C188.82 69.2096 187.84 69.5566 187.241 69.8567C186.591 70.1827 186.196 70.6122 186.26 70.9231C186.319 71.2095 186.115 71.5265 185.806 71.6276C185.498 71.7286 185.245 71.9358 185.245 72.0879C185.245 72.24 185.376 72.3644 185.537 72.3644C185.698 72.3644 186.311 72.0496 186.899 71.6648ZM199.15 69.6624C198.911 69.5936 198.38 69.6906 197.97 69.878C197.56 70.0654 197.224 70.3567 197.224 70.5253C197.224 70.694 197.755 70.597 198.404 70.3097C199.052 70.0224 199.388 69.7311 199.15 69.6624ZM201.348 69.7324C201.463 69.4769 201.419 69.2679 201.25 69.2679C201.081 69.2679 200.739 69.4769 200.491 69.7324C200.123 70.1105 200.141 70.1969 200.589 70.1969C200.892 70.1969 201.233 69.9879 201.348 69.7324ZM197.996 69.0928C198.622 68.8164 199.61 68.6499 200.192 68.7227C200.773 68.7955 201.308 68.7736 201.38 68.6742C201.452 68.5747 201.316 67.5877 201.079 66.4808C200.692 64.681 200.562 64.4762 199.843 64.5421C199.401 64.5827 199.039 64.4755 199.039 64.304C199.039 64.1208 198.627 64.0761 198.041 64.1956C197.492 64.3076 196.927 64.454 196.786 64.5211C196.645 64.5881 196.619 64.8423 196.729 65.0859C196.899 65.4639 197.056 65.4572 197.802 65.0404C198.377 64.719 198.676 64.6747 198.676 64.9108C198.676 65.1082 198.945 65.2287 199.273 65.1786C199.602 65.1286 199.938 65.2513 200.02 65.4513C200.103 65.6513 199.552 66.1733 198.796 66.6114C197.422 67.4078 197.422 67.4078 198.757 67.3315C199.491 67.2895 200.116 67.3945 200.147 67.5649C200.177 67.7352 199.68 67.8278 199.041 67.7707C198.262 67.701 197.624 67.8681 197.099 68.2791C196.668 68.6159 195.787 68.9869 195.141 69.1035C194.494 69.2201 193.886 69.4251 193.789 69.559C193.692 69.6929 194.342 69.7559 195.235 69.6989C196.127 69.6419 197.369 69.3692 197.996 69.0928ZM194.132 67.4689C193.663 67.4161 192.778 67.5938 192.166 67.8638C191.554 68.1339 191.053 68.4726 191.053 68.6164C191.053 68.7603 191.937 68.5826 193.019 68.2215C194.558 67.7073 194.8 67.544 194.132 67.4689ZM188.512 68.4938C188.512 68.4086 188.43 68.339 188.33 68.339C188.23 68.339 188.149 68.4086 188.149 68.4938C188.149 68.579 188.23 68.6486 188.33 68.6486C188.43 68.6486 188.512 68.579 188.512 68.4938ZM190.145 68.0293C190.269 67.859 190.237 67.7218 190.076 67.7244C189.914 67.7275 189.537 67.8642 189.238 68.0293C188.769 68.288 188.778 68.3301 189.307 68.3342C189.645 68.3373 190.022 68.1996 190.145 68.0293ZM191.053 67.5649C191.053 67.4797 190.971 67.41 190.871 67.41C190.771 67.41 190.69 67.4797 190.69 67.5649C190.69 67.65 190.771 67.7197 190.871 67.7197C190.971 67.7197 191.053 67.65 191.053 67.5649ZM198.218 66.4811C198.963 66.1405 199.395 65.8618 199.178 65.8618C198.962 65.8618 198.27 66.0147 197.641 66.2017C197.012 66.3887 196.498 66.6674 196.498 66.821C196.498 66.9747 196.58 67.1004 196.681 67.1004C196.781 67.1004 197.473 66.8217 198.218 66.4811ZM191.207 62.4557C191.641 62.4557 192.193 62.2884 192.432 62.0841C192.672 61.8797 192.868 61.5931 192.868 61.4472C192.868 61.3013 192.505 61.3988 192.061 61.664C191.617 61.9291 190.944 62.146 190.565 62.146C190.023 62.146 189.963 62.0554 190.287 61.7227C190.625 61.3751 190.39 61.3805 188.97 61.7528C188.019 62.002 187.037 62.2578 186.788 62.3211C186.538 62.3844 186.334 62.7873 186.334 63.2162C186.334 63.9962 186.334 63.9961 188.376 63.2258C189.498 62.8022 190.773 62.4557 191.207 62.4557ZM197.488 63.0749C197.995 62.7343 198.299 62.4557 198.162 62.4557C198.026 62.4557 197.432 62.6682 196.843 62.9281C196.254 63.1879 195.772 63.4666 195.772 63.5474C195.772 63.6281 195.95 63.6942 196.168 63.6942C196.386 63.6942 196.98 63.4156 197.488 63.0749ZM198.834 63.3922C199.346 63.2261 199.765 62.9439 199.765 62.765C199.765 62.5722 199.321 62.6354 198.676 62.9201C198.077 63.1843 197.587 63.4666 197.587 63.5474C197.587 63.6281 197.658 63.6942 197.745 63.6942C197.831 63.6942 198.322 63.5583 198.834 63.3922ZM194.501 62.4557C194.625 62.2853 194.553 62.146 194.341 62.146C194.13 62.146 193.957 62.2853 193.957 62.4557C193.957 62.626 194.029 62.7653 194.117 62.7653C194.205 62.7653 194.378 62.626 194.501 62.4557ZM197.924 61.9858C199.168 61.5996 199.168 61.5996 198.032 61.0987C197.408 60.8232 196.603 60.6008 196.244 60.6046C195.884 60.6083 195.182 60.8866 194.683 61.2229C193.775 61.8343 193.775 61.8343 194.974 61.4898C195.633 61.3004 196.271 61.2304 196.393 61.3342C196.515 61.438 196.302 61.8261 195.921 62.1966C195.236 62.8618 195.237 62.8671 195.954 62.6212C196.353 62.4841 197.239 62.1982 197.924 61.9858ZM187.786 60.9074C188.285 60.5743 188.5 60.2988 188.263 60.295C188.027 60.2913 187.414 60.424 186.902 60.5901C186.39 60.7562 185.971 61.0348 185.971 61.2094C185.971 61.3839 186.175 61.5236 186.425 61.5198C186.674 61.5161 187.287 61.2404 187.786 60.9074ZM190.496 60.6952C191.202 60.4082 191.779 60.0599 191.779 59.9211C191.779 59.7823 191.656 59.6693 191.507 59.6699C191.357 59.6699 190.703 59.9472 190.055 60.2847C189.406 60.6222 188.875 60.97 188.875 61.0577C188.875 61.1453 188.951 61.2171 189.044 61.2171C189.137 61.2171 189.79 60.9822 190.496 60.6952ZM192.708 60.7624C193.3 60.3805 193.318 60.3062 192.821 60.298C192.497 60.2927 192.027 60.4971 191.779 60.7526C191.53 61.008 191.479 61.2171 191.665 61.2171C191.851 61.2171 192.32 61.0125 192.708 60.7624ZM194.683 60.5978C194.683 60.4274 194.611 60.2881 194.523 60.2881C194.435 60.2881 194.262 60.4274 194.138 60.5978C194.015 60.7681 194.087 60.9074 194.298 60.9074C194.51 60.9074 194.683 60.7681 194.683 60.5978ZM173.591 80.5891C173.49 80.5029 173.543 79.6273 173.708 78.6433C173.874 77.6594 174.085 73.2034 174.176 68.7411C174.289 63.2671 174.219 60.5627 173.962 60.4273C173.718 60.2984 173.805 60.0163 174.206 59.6381C174.703 59.1699 175.334 59.0495 177.294 59.0495C178.866 59.0495 179.863 59.1896 180.051 59.4366C180.212 59.6495 180.384 63.8646 180.433 68.8035C180.481 73.7423 180.563 78.4103 180.614 79.1767C180.707 80.5701 180.707 80.5701 177.241 80.658C175.334 80.7063 173.692 80.6753 173.591 80.5891ZM179.063 79.4984C179.357 79.34 179.513 79.1386 179.41 79.051C179.308 78.9633 178.865 78.9716 178.427 79.0692C177.989 79.167 177.719 79.3705 177.829 79.5215C177.938 79.6724 178.141 79.7937 178.279 79.7911C178.416 79.7881 178.77 79.6569 179.063 79.4984ZM177.739 78.6831C178.673 78.4116 179.437 78.0715 179.437 77.9272C179.437 77.783 179.293 77.5894 179.118 77.4969C178.943 77.4045 178.127 77.6402 177.306 78.0206C176.485 78.401 175.811 78.8167 175.81 78.9445C175.806 79.0722 175.859 79.1767 175.924 79.1767C175.988 79.1767 176.805 78.9546 177.739 78.6831ZM176.33 77.7734C176.894 77.4095 176.921 77.3188 176.465 77.3188C176.152 77.3188 175.692 77.5278 175.444 77.7833C175.195 78.0387 175.134 78.2433 175.309 78.2379C175.483 78.2326 175.942 78.0235 176.33 77.7734ZM178.977 75.8498C179.079 75.6212 179.084 75.3662 178.986 75.283C178.889 75.1999 178.3 75.3801 177.677 75.6835C177.054 75.9868 176.472 76.3929 176.385 76.5859C176.267 76.8452 176.56 76.8491 177.507 76.601C178.213 76.4164 178.874 76.0783 178.977 75.8498ZM176.896 75.3061C177.95 74.6429 178.016 74.532 177.359 74.532C176.937 74.532 176.334 74.6165 176.018 74.7199C175.702 74.8233 175.444 75.1716 175.444 75.494C175.444 75.8164 175.494 76.0802 175.555 76.0802C175.616 76.0802 176.219 75.7318 176.896 75.3061ZM177.779 73.8656C178.284 73.6695 178.797 73.241 178.919 72.9134C179.04 72.5858 179.055 72.2449 178.95 72.156C178.846 72.0671 178.178 72.3911 177.465 72.876C176.753 73.361 176.17 73.8623 176.17 73.9901C176.17 74.1178 176.325 74.2223 176.516 74.2223C176.706 74.2223 177.275 74.0618 177.779 73.8656ZM177.077 72.4774C177.783 72.0046 177.777 71.997 176.896 72.2124C176.397 72.3343 175.833 72.5577 175.643 72.7089C175.432 72.8776 175.502 72.9799 175.825 72.9739C176.114 72.9686 176.678 72.745 177.077 72.4774ZM178.705 71.1401C179.202 70.8149 179.5 70.4573 179.369 70.3453C179.238 70.2334 178.508 70.5025 177.747 70.9435C176.706 71.547 176.542 71.7434 177.084 71.7382C177.48 71.7345 178.209 71.4653 178.705 71.1401ZM176.85 70.6817C177.403 70.4375 178.062 70.0264 178.313 69.7682C178.712 69.3582 178.593 69.3224 177.379 69.486C176.614 69.589 175.868 69.826 175.722 70.0125C175.575 70.1991 175.452 70.5259 175.449 70.7388C175.446 70.9516 175.534 71.1258 175.643 71.1258C175.753 71.1258 176.296 70.926 176.85 70.6817ZM178.892 68.6486C179.016 68.4783 178.79 68.339 178.391 68.339C177.991 68.339 177.564 68.4783 177.44 68.6486C177.317 68.8189 177.543 68.9583 177.942 68.9583C178.341 68.9583 178.769 68.8189 178.892 68.6486ZM178.576 67.0361C178.722 66.8351 178.367 66.8022 177.577 66.9435C176.903 67.064 176.128 67.3442 175.855 67.5662C175.581 67.7882 175.463 68.1156 175.593 68.2937C175.744 68.5023 176.276 68.3916 177.089 67.9826C177.783 67.6334 178.452 67.2074 178.576 67.0361ZM178.076 66.2659C178.625 66.1713 179.074 65.9024 179.074 65.6683C179.074 65.4341 179.012 65.2425 178.937 65.2425C178.861 65.2425 178.219 65.4494 177.509 65.7023C176.8 65.9551 176.1 66.3272 175.954 66.529C175.766 66.7878 175.893 66.8284 176.383 66.6668C176.765 66.5408 177.527 66.3604 178.076 66.2659ZM177.309 65.2528C177.981 64.7754 178.038 64.6415 177.571 64.6335C177.244 64.6279 176.591 64.8972 176.119 65.2322C175.447 65.7096 175.391 65.8434 175.857 65.8515C176.185 65.857 176.838 65.5877 177.309 65.2528ZM178.842 63.6865C179.015 63.5503 179.096 63.2888 179.024 63.1055C178.95 62.9195 178.411 63.1194 177.803 63.5582C176.747 64.3206 176.742 64.3381 177.622 64.1393C178.121 64.0265 178.67 63.8228 178.842 63.6865ZM177.44 63.0749C178.194 62.564 178.685 62.146 178.531 62.146C178.377 62.146 177.619 62.3074 176.847 62.5047C175.878 62.7523 175.444 63.0399 175.444 63.4336C175.444 63.7472 175.585 64.0039 175.757 64.0039C175.929 64.0039 176.687 63.5859 177.44 63.0749ZM178.689 61.346C178.977 61.1129 179.121 60.8448 179.011 60.7503C178.9 60.6557 178.298 60.8266 177.673 61.13C177.049 61.4333 176.536 61.7954 176.535 61.9346C176.535 62.0738 176.9 62.0937 177.35 61.9788C177.799 61.8639 178.402 61.5791 178.689 61.346ZM177.137 60.0328C176.572 59.9775 175.87 60.0102 175.579 60.1056C175.164 60.2413 175.136 60.4164 175.447 60.9124C175.844 61.5457 175.845 61.5456 177.005 60.8396C178.166 60.1333 178.166 60.1333 177.137 60.0328ZM174.513 55.2387C174.406 55.0017 174.368 53.8462 174.428 52.671C174.536 50.5342 174.536 50.5342 176.965 50.443C179.014 50.3661 179.45 50.4399 179.75 50.9186C179.945 51.2302 180.149 52.386 180.202 53.4869C180.299 55.4885 180.299 55.4885 177.503 55.5791C175.375 55.648 174.66 55.5667 174.513 55.2387ZM178.711 53.7516C178.711 53.4296 178.558 53.1662 178.371 53.1662C178.185 53.1662 177.613 53.302 177.101 53.4681C176.589 53.6342 176.17 53.9546 176.17 54.1801C176.17 54.4663 176.553 54.5518 177.44 54.4635C178.392 54.3688 178.711 54.1901 178.711 53.7516ZM176.412 52.6501C176.279 52.5366 176.17 52.6293 176.17 52.8565C176.17 53.0836 176.279 53.1765 176.412 53.063C176.545 52.9494 176.545 52.7636 176.412 52.6501ZM178.477 52.3664C178.78 52.2672 178.939 51.9885 178.831 51.7471C178.722 51.5057 178.406 51.3083 178.128 51.3083C177.849 51.3083 177.622 51.3666 177.622 51.4378C177.622 51.509 177.523 51.7877 177.402 52.0571C177.28 52.3265 177.349 52.5469 177.553 52.5469C177.758 52.5469 178.174 52.4657 178.477 52.3664ZM176.533 51.7728C176.903 51.3924 176.878 51.3083 176.396 51.3083C176.072 51.3083 175.807 51.5173 175.807 51.7728C175.807 52.0282 175.868 52.2372 175.944 52.2372C176.019 52.2372 176.284 52.0282 176.533 51.7728ZM54.8014 48.9557C53.2343 48.7142 50.9474 48.1822 49.7194 47.7734C48.4913 47.3647 46.3516 46.8692 44.9646 46.6724C43.5776 46.4756 41.1965 45.9045 39.6733 45.4034C38.15 44.9023 36.2319 44.0019 35.4109 43.4024C34.59 42.803 33.4791 41.5469 32.9424 40.6111C32.071 39.0917 31.9849 38.6537 32.1382 36.5162C32.2472 34.9963 32.6284 33.4531 33.1827 32.2878C33.6627 31.2786 34.2254 30.4059 34.4332 30.3484C34.6409 30.2909 35.1248 30.4396 35.5085 30.679C36.0324 31.0058 36.1085 31.2188 35.8141 31.5347C35.5985 31.766 35.169 32.6519 34.8597 33.5035C34.5504 34.355 34.1952 35.5722 34.0703 36.2083C33.9453 36.8444 34.0303 37.9579 34.2591 38.6826C34.4879 39.4074 35.0098 40.4015 35.419 40.8916C35.8281 41.3818 36.8961 42.1795 37.7923 42.6642C38.6885 43.1491 40.4708 43.8435 41.7531 44.2075C43.0353 44.5715 44.175 44.7919 44.2859 44.6974C44.3967 44.6028 44.2077 44.2869 43.8658 43.9953C43.524 43.7036 42.1699 43.1448 40.8569 42.7534C39.5438 42.362 37.8847 41.6398 37.17 41.1485C36.4553 40.6572 35.6687 39.9205 35.4221 39.5114C35.1755 39.1023 34.9713 38.0501 34.9684 37.1733C34.9644 35.987 35.2478 35.1171 36.0762 33.7738C36.6885 32.7809 37.7279 31.4082 38.3859 30.7233C39.0439 30.0384 40.6257 28.6165 41.9009 27.5634C43.1761 26.5104 44.9546 25.1768 45.853 24.6C46.7514 24.0231 49.2833 22.5142 51.4795 21.2467C53.6756 19.9793 56.5066 18.4061 57.7704 17.7506C59.0343 17.0952 62.138 15.6842 64.6674 14.615C67.1969 13.5459 70.0754 12.3606 71.0641 11.9811C72.0528 11.6016 75.0748 10.5553 77.7796 9.65596C80.4844 8.75666 85.1128 7.38135 88.065 6.59971C91.0172 5.81806 95.0192 4.82329 96.9585 4.38913C98.8978 3.95496 102.735 3.18694 105.487 2.68239C108.238 2.17785 112.812 1.42533 115.651 1.01015C118.49 0.594966 123.181 0.166762 126.076 0.0585799C129.117 -0.055052 132.719 0.000691178 134.606 0.190593C136.403 0.371381 141.222 0.730107 145.315 0.987753C151.022 1.34703 153.56 1.64842 156.205 2.28091C158.102 2.7345 160.268 3.43371 161.019 3.83473C161.77 4.23575 162.722 4.80488 163.135 5.09947C163.547 5.39405 164.262 6.19243 164.723 6.87365C165.184 7.55488 165.666 8.62089 165.793 9.24255C165.921 9.86421 165.849 11.0442 165.633 11.8648C165.418 12.6854 164.737 14.2669 164.121 15.3793C163.206 17.0323 162.132 18.1289 158.242 21.3824C155.624 23.5718 152.185 26.1951 150.6 27.212C149.015 28.2289 147.055 29.3477 146.244 29.6981C145.434 30.0486 144.689 30.4355 144.589 30.5579C144.489 30.6804 141.712 31.9073 138.418 33.2845C135.124 34.6617 130.06 36.5829 127.165 37.5538C124.27 38.5247 118.774 40.1951 114.951 41.2658C111.129 42.3365 104.35 43.9872 99.8867 44.9341C95.4239 45.881 89.0771 47.0695 85.7829 47.5752C82.4887 48.0809 77.3887 48.7097 74.4495 48.9725C71.5103 49.2354 66.5282 49.4379 63.378 49.4226C60.1702 49.4071 56.397 49.2016 54.8014 48.9557ZM74.0905 47.2678C76.0293 47.0892 80.1474 46.5912 83.2419 46.161C86.3365 45.7309 91.6454 44.8272 95.0394 44.1529C98.4335 43.4786 103.007 42.5 105.203 41.9781C107.4 41.4563 110.503 40.6815 112.1 40.2565C113.698 39.8314 116.638 38.9913 118.634 38.3895C120.631 37.7877 123.735 36.8103 125.531 36.2175C127.328 35.6247 130.514 34.4993 132.61 33.7167C134.706 32.9341 137.973 31.6108 139.87 30.7761C141.767 29.9414 143.482 29.1208 143.681 28.9525C143.881 28.7842 143.473 28.8602 142.774 29.1214C142.075 29.3827 138.835 30.5861 135.573 31.7956C132.312 33.0051 125.533 35.1644 120.509 36.5939C115.485 38.0234 108.679 39.8142 105.385 40.5734C102.091 41.3326 97.2719 42.3824 94.6764 42.9062C92.081 43.43 87.7522 44.2113 85.0569 44.6425C82.3617 45.0737 77.4612 45.7708 74.1669 46.1915C70.8727 46.6122 65.8089 47.0792 62.914 47.2292C57.6505 47.5019 57.6505 47.5019 64.1081 47.5472C67.6597 47.572 72.1518 47.4464 74.0905 47.2678ZM69.2664 44.968C71.6622 44.7238 74.8476 44.3746 76.3449 44.192C77.8423 44.0094 81.681 43.4317 84.8754 42.9082C88.0698 42.3847 92.9703 41.484 95.7654 40.9067C98.5605 40.3294 101.828 39.6293 103.025 39.351C104.223 39.0727 106.592 38.5036 108.289 38.0864C109.986 37.6692 113.743 36.6919 116.638 35.9146C119.533 35.1373 124.433 33.6987 127.528 32.7177C130.622 31.7368 135.115 30.2161 137.51 29.3385C139.906 28.4609 143.827 26.8703 146.222 25.8039C148.618 24.7374 151.722 23.221 153.119 22.4341C154.606 21.5972 156.238 20.3408 157.053 19.4071C157.819 18.5291 158.845 17.1326 159.333 16.3037C159.903 15.3351 160.237 14.2109 160.268 13.1575C160.297 12.1723 160.081 11.1316 159.726 10.5489C159.401 10.0157 158.598 9.19169 157.942 8.71779C157.286 8.24388 155.732 7.46091 154.489 6.97785C153.245 6.49478 152.143 6.09953 152.038 6.09953C151.934 6.09953 151.849 6.23606 151.849 6.40292C151.849 6.56979 152.706 7.12289 153.755 7.63205C154.803 8.14121 155.96 8.73624 156.326 8.95433C156.693 9.17242 157.223 9.72713 157.506 10.187C157.789 10.6469 158.02 11.5008 158.02 12.0845C158.02 12.6682 157.789 13.6172 157.507 14.1934C157.225 14.7696 156.3 15.9132 155.452 16.7347C154.605 17.5562 152.822 18.9698 151.49 19.876C150.159 20.7823 147.999 22.0824 146.692 22.7651C145.384 23.4478 140.088 25.8201 134.923 28.0367C129.757 30.2534 124.47 32.435 123.172 32.8848C121.874 33.3345 118.934 34.3037 116.638 35.0384C114.342 35.7731 109.768 37.0706 106.474 37.9218C103.18 38.7729 99.0959 39.7613 97.3989 40.1182C95.7019 40.4751 93.17 40.9877 91.7724 41.2575C90.3749 41.5272 87.5162 42.0222 85.4199 42.3573C83.3236 42.6925 79.4849 43.2414 76.8894 43.577C74.294 43.9127 69.3629 44.3454 65.9314 44.5387C61.1482 44.8081 58.6494 44.8026 55.2229 44.5149C52.7647 44.3085 49.7734 44.0716 48.5755 43.9884C46.3975 43.837 46.3975 43.8371 47.4714 44.6166C48.1643 45.1196 49.1301 45.4445 50.1939 45.5324C51.1006 45.6073 54.7828 45.6109 58.3765 45.5401C61.9702 45.4695 66.8707 45.2122 69.2664 44.968ZM42.949 41.1983C42.949 41.0877 42.1441 40.3389 41.1603 39.5343C39.916 38.5165 39.2426 37.6629 38.948 36.7293C38.715 35.9913 38.6234 34.859 38.7445 34.2132C38.8655 33.5674 38.8955 33.039 38.8112 33.039C38.7268 33.039 38.3084 33.6546 37.8814 34.4071C37.4544 35.1595 37.0236 36.2394 36.9241 36.8068C36.7988 37.5219 36.9744 38.1539 37.4964 38.8661C37.9749 39.519 38.9409 40.1617 40.1455 40.6288C41.1883 41.033 42.2457 41.3719 42.4952 41.3817C42.7448 41.3916 42.949 41.309 42.949 41.1983ZM72.594 40.8834C72.4609 40.7699 72.243 40.7699 72.11 40.8834C71.9768 40.997 72.0856 41.0899 72.3519 41.0899C72.6182 41.0899 72.7271 40.997 72.594 40.8834ZM65.818 39.9648C68.1139 39.7062 72.361 39.0789 75.2559 38.5707C78.1509 38.0626 82.398 37.2284 84.6939 36.7169C86.9899 36.2054 89.5218 35.6377 90.3204 35.4553C91.119 35.2728 93.4059 34.7136 95.4024 34.2126C97.3989 33.7115 101.564 32.6067 104.659 31.7575C107.753 30.9083 113.144 29.3027 116.638 28.1894C120.132 27.0762 125.114 25.3948 127.709 24.4532C130.305 23.5115 134.276 21.9984 136.533 21.0908C138.791 20.1831 142.139 18.7166 143.975 17.8318C145.81 16.9471 147.666 15.9521 148.099 15.6208C148.532 15.2895 149.216 14.3646 149.619 13.5654C150.022 12.7663 150.462 11.4001 150.598 10.5295C150.809 9.17272 150.747 8.90254 150.167 8.63826C149.794 8.46868 147.875 8.15696 145.903 7.94554C143.515 7.6896 139.875 7.62034 135.013 7.73829C130.996 7.83572 125.504 8.14027 122.809 8.41506C120.114 8.68984 115.948 9.19161 113.552 9.53011C111.157 9.8686 107.563 10.4261 105.566 10.769C103.57 11.1119 100.221 11.7458 98.1249 12.1778C96.0286 12.6097 92.3405 13.4327 89.929 14.0067C87.5176 14.5806 83.6789 15.5984 81.3985 16.2685C79.1182 16.9385 75.3739 18.1192 73.0779 18.8922C70.782 19.6652 67.27 20.9893 65.2735 21.8346C63.277 22.6799 60.745 23.8415 59.647 24.416C58.5489 24.9904 56.6704 26.0376 55.4725 26.743C54.2746 27.4483 52.6283 28.5783 51.8141 29.254C50.9999 29.9297 49.7619 31.0926 49.0631 31.8382C48.3643 32.5838 47.3739 33.8209 46.8623 34.5872C46.3508 35.3536 45.6784 36.7114 45.3683 37.6046C44.846 39.1083 44.8498 39.249 45.4194 39.5044C45.7577 39.6562 46.9329 39.9377 48.031 40.13C49.129 40.3223 50.7625 40.5302 51.661 40.5919C52.5594 40.6536 55.173 40.6435 57.469 40.5696C59.7649 40.4956 63.522 40.2233 65.818 39.9648ZM80.3962 39.8724C83.4588 39.3732 87.8814 38.6103 90.2243 38.1771C92.5673 37.744 95.8342 37.0993 97.4843 36.7445C99.1344 36.3897 103.098 35.4669 106.292 34.6937C109.487 33.9205 114.469 32.6162 117.364 31.7953C120.259 30.9743 124.506 29.6776 126.802 28.9137C129.098 28.1497 131.956 27.1509 133.154 26.6939C134.352 26.237 136.639 25.1149 138.236 24.2003C139.834 23.2858 142.039 21.836 143.137 20.9786C145.133 19.4196 145.133 19.4196 139.556 21.7605C136.488 23.0481 132.241 24.7362 130.118 25.5119C127.995 26.2877 123.97 27.685 121.175 28.6169C118.38 29.5489 113.725 31.0009 110.83 31.8436C107.935 32.6864 102.463 34.1929 98.6694 35.1915C94.8761 36.19 89.4572 37.51 86.6275 38.1246C83.7979 38.7393 79.6325 39.5778 77.3711 39.988C75.1097 40.3982 73.6124 40.7442 74.0438 40.757C74.4751 40.7697 77.3338 40.3717 80.3962 39.8724ZM42.5574 36.3677C42.8045 35.6439 43.4268 34.5004 43.9402 33.8265C44.4536 33.1526 45.4616 32.0531 46.1801 31.3832C46.8986 30.7133 49.1868 28.8504 51.2649 27.2434C53.3431 25.6365 57.1001 23.1634 59.6139 21.7477C62.1277 20.332 66.4714 18.1896 69.2664 16.9867C72.0615 15.7839 75.4102 14.3956 76.7079 13.9017C78.0057 13.4078 80.5008 12.5453 82.2526 11.9849C84.0045 11.4245 85.3709 10.9089 85.2891 10.8391C85.2073 10.7694 82.5489 11.4692 79.3815 12.3942C76.214 13.3193 71.9889 14.6335 69.9924 15.3146C67.9959 15.9956 64.7301 17.2066 62.7349 18.0055C60.7398 18.8044 57.6361 20.1744 55.8379 21.05C54.0398 21.9255 51.422 23.4311 50.0208 24.3956C48.6196 25.3601 46.4355 27.0955 45.1672 28.2521C43.8715 29.4336 42.4035 31.1802 41.8164 32.2388C41.2418 33.275 40.7714 34.5691 40.7712 35.1145C40.7711 35.66 40.9606 36.4613 41.1923 36.895C41.424 37.3288 41.7248 37.6837 41.8608 37.6837C41.9968 37.6837 42.3103 37.0915 42.5574 36.3677ZM152.025 17.1688C153.555 15.9683 155.024 14.4879 155.475 13.6925C155.908 12.9305 156.208 12.0701 156.142 11.7804C156.058 11.4062 155.72 11.6505 154.975 12.6247C154.399 13.3787 153.345 14.4136 152.634 14.9245C151.923 15.4354 150.924 16.2235 150.415 16.6758C149.906 17.128 149.081 17.9513 148.582 18.5054C148.083 19.0594 147.532 19.7175 147.358 19.9678C147.125 20.3036 147.346 20.2704 148.202 19.8412C148.84 19.5213 150.561 18.3187 152.025 17.1688ZM78.402 15.1826C78.2689 15.069 78.051 15.069 77.918 15.1826C77.7848 15.2961 77.8936 15.389 78.1599 15.389C78.4262 15.389 78.5351 15.2961 78.402 15.1826ZM80.9658 14.6211C81.7185 14.369 84.703 13.5376 87.5979 12.7735C90.4928 12.0094 96.2219 10.7549 100.329 9.98566C104.436 9.21645 109.745 8.31284 112.127 7.97765C114.508 7.64245 119.315 7.06101 122.809 6.68555C127.544 6.17673 131.241 5.99549 137.329 5.97381C141.821 5.9578 145.586 5.84199 145.696 5.71644C145.806 5.59088 146.449 5.62332 147.124 5.78854C147.8 5.95376 148.431 6.02165 148.528 5.93941C148.624 5.85717 148.602 5.70342 148.478 5.59775C148.354 5.49208 147.469 5.2807 146.511 5.128C145.554 4.97531 142.483 4.71059 139.688 4.53976C136.243 4.32918 132.385 4.33277 127.709 4.55085C123.916 4.72779 119.506 5.01238 117.908 5.18327C116.311 5.35415 113.126 5.85532 110.83 6.29697C108.534 6.73863 104.627 7.57137 102.149 8.1475C99.6704 8.72362 95.0149 9.94807 91.8035 10.8685C88.592 11.7889 84.4181 13.0502 82.5281 13.6713C80.638 14.2924 79.0182 14.8633 78.9283 14.94C78.8385 15.0166 78.9523 15.0793 79.1811 15.0793C79.41 15.0793 80.2131 14.8731 80.9658 14.6211ZM163.734 10.8681C163.854 10.0023 163.68 9.15458 163.186 8.20253C162.788 7.43471 161.878 6.42672 161.165 5.96257C160.452 5.49841 158.758 4.80141 157.401 4.41368C156.044 4.02596 153.873 3.55738 152.575 3.37238C151.277 3.18738 149.562 2.96527 148.763 2.87883C147.409 2.73225 147.36 2.75289 148.037 3.18546C148.437 3.44054 149.172 3.72523 149.671 3.8181C150.17 3.91097 151.395 4.20367 152.393 4.46854C153.392 4.73342 155.025 5.26136 156.023 5.64175C157.022 6.02213 158.555 6.86518 159.43 7.51518C160.306 8.16518 161.323 9.26214 161.691 9.95287C162.059 10.6436 162.377 11.9054 162.398 12.757C162.435 14.3052 162.435 14.3052 162.997 13.2215C163.306 12.6254 163.638 11.5664 163.734 10.8681ZM153.298 11.6792C153.544 11.1716 153.637 10.3851 153.503 9.93138C153.369 9.4742 153.128 9.22995 152.962 9.38348C152.798 9.53585 152.582 10.3224 152.482 11.1313C152.383 11.9403 152.424 12.6022 152.575 12.6022C152.726 12.6022 153.051 12.1868 153.298 11.6792ZM86.5089 10.5894C86.5089 10.5043 86.4272 10.4346 86.3274 10.4346C86.2276 10.4346 86.1459 10.5043 86.1459 10.5894C86.1459 10.6746 86.2276 10.7443 86.3274 10.7443C86.4272 10.7443 86.5089 10.6746 86.5089 10.5894ZM98.1835 6.276C100.248 5.86213 104.468 5.16299 107.563 4.72236C110.657 4.28174 115.558 3.5694 118.453 3.1394C121.348 2.70939 124.696 2.24112 125.894 2.09878C128.072 1.83997 128.072 1.83997 126.053 1.80221C124.942 1.78143 122.247 1.96726 120.063 2.21514C117.88 2.46302 113.489 3.09293 110.306 3.61491C107.122 4.1369 102.228 5.05543 99.4288 5.65609C96.6296 6.25676 94.2656 6.81129 94.1752 6.88836C94.0849 6.96543 94.1054 7.02848 94.2208 7.02848C94.3362 7.02848 96.1194 6.68987 98.1835 6.276Z" fill="#F7A927"/>
</g>
<defs>
<clipPath id="clip0_14_76">
<rect width="208" height="97" fill="white"/>
</clipPath>
</defs>
</svg>
